<svg width="76" height="11" viewBox="0 0 76 11" fill="none" xmlns="http://www.w3.org/2000/svg">
<mask id="path-1-outside-1_13_2" maskUnits="userSpaceOnUse" x="0" y="-1" width="76" height="12" fill="black">
<rect fill="white" y="-1" width="76" height="12"/>
<path d="M5.94809 8.808L0.392094 6.54V4.392L5.94809 2.124V4.056L2.49209 5.46L5.94809 6.864V8.808Z"/>
<path d="M9.17966 9V2.364H6.69566V0.48H14.0277V2.364H11.5437V9H9.17966ZM17.0307 9.144C15.6627 9.144 14.8947 8.256 14.8947 6.696V2.52H17.2227V6.168C17.2227 7.008 17.4387 7.356 17.9187 7.356C18.4707 7.356 18.7707 6.984 18.7707 6.048V2.52H21.0987V9H19.0107L18.9627 7.968C18.6387 8.76 18.0027 9.144 17.0307 9.144ZM24.4095 9C23.1615 9 22.4415 8.424 22.4415 7.008V0.48H24.7695V6.744C24.7695 7.2 24.9855 7.356 25.3695 7.356H25.7175V9H24.4095ZM26.7423 9V2.52H29.0703V9H26.7423ZM26.7063 1.872V0.24H29.1063V1.872H26.7063ZM33.5563 9.144C31.4443 9.144 30.0522 7.8 30.0522 5.76C30.0522 3.732 31.4443 2.376 33.5563 2.376C35.6683 2.376 37.0603 3.732 37.0603 5.76C37.0603 7.8 35.6683 9.144 33.5563 9.144ZM33.5563 7.476C34.2763 7.476 34.6723 6.864 34.6723 5.76C34.6723 4.668 34.2763 4.044 33.5563 4.044C32.8363 4.044 32.4403 4.668 32.4403 5.76C32.4403 6.864 32.8363 7.476 33.5563 7.476ZM37.8569 9V6.84H40.2089V9H37.8569ZM43.6016 9.144C41.9936 9.144 40.9976 7.836 40.9976 5.76C40.9976 3.696 42.0416 2.376 43.6016 2.376C44.5616 2.376 45.1976 2.784 45.5336 3.456V0.48H47.8616V9H45.5936L45.5576 8.064C45.1976 8.748 44.4896 9.144 43.6016 9.144ZM44.4536 7.476C45.1376 7.476 45.5336 6.96 45.5336 5.76C45.5336 4.56 45.1496 4.044 44.4536 4.044C43.7936 4.044 43.3856 4.704 43.3856 5.76C43.3856 6.792 43.8176 7.476 44.4536 7.476ZM52.3171 9.144C50.2291 9.144 48.8491 7.8 48.8491 5.76C48.8491 3.732 50.2291 2.376 52.3171 2.376C54.4051 2.376 55.7011 3.768 55.7011 5.952V6.36H51.2491C51.2731 7.14 51.7171 7.512 52.3651 7.512C52.8211 7.512 53.1691 7.356 53.3131 6.912L55.6171 7.032C55.2571 8.424 53.9971 9.144 52.3171 9.144ZM53.3731 5.112C53.3491 4.356 52.9411 3.96 52.3171 3.96C51.7171 3.96 51.2971 4.404 51.2491 5.112H53.3731ZM58.335 9L55.959 2.52H58.359L59.667 6.672L60.963 2.52H63.363L60.975 9H58.335Z"/>
<path d="M63.3198 10.32L66.8838 -7.15256e-07H69.2118L65.6478 10.32H63.3198ZM70.0255 8.808V6.864L73.4815 5.46L70.0255 4.056V2.124L75.5815 4.392V6.54L70.0255 8.808Z"/>
</mask>
<path d="M5.94809 8.808L0.392094 6.54V4.392L5.94809 2.124V4.056L2.49209 5.46L5.94809 6.864V8.808Z" fill="#314CD6"/>
<path d="M9.17966 9V2.364H6.69566V0.48H14.0277V2.364H11.5437V9H9.17966ZM17.0307 9.144C15.6627 9.144 14.8947 8.256 14.8947 6.696V2.52H17.2227V6.168C17.2227 7.008 17.4387 7.356 17.9187 7.356C18.4707 7.356 18.7707 6.984 18.7707 6.048V2.52H21.0987V9H19.0107L18.9627 7.968C18.6387 8.76 18.0027 9.144 17.0307 9.144ZM24.4095 9C23.1615 9 22.4415 8.424 22.4415 7.008V0.48H24.7695V6.744C24.7695 7.2 24.9855 7.356 25.3695 7.356H25.7175V9H24.4095ZM26.7423 9V2.52H29.0703V9H26.7423ZM26.7063 1.872V0.24H29.1063V1.872H26.7063ZM33.5563 9.144C31.4443 9.144 30.0522 7.8 30.0522 5.76C30.0522 3.732 31.4443 2.376 33.5563 2.376C35.6683 2.376 37.0603 3.732 37.0603 5.76C37.0603 7.8 35.6683 9.144 33.5563 9.144ZM33.5563 7.476C34.2763 7.476 34.6723 6.864 34.6723 5.76C34.6723 4.668 34.2763 4.044 33.5563 4.044C32.8363 4.044 32.4403 4.668 32.4403 5.76C32.4403 6.864 32.8363 7.476 33.5563 7.476ZM37.8569 9V6.84H40.2089V9H37.8569ZM43.6016 9.144C41.9936 9.144 40.9976 7.836 40.9976 5.76C40.9976 3.696 42.0416 2.376 43.6016 2.376C44.5616 2.376 45.1976 2.784 45.5336 3.456V0.48H47.8616V9H45.5936L45.5576 8.064C45.1976 8.748 44.4896 9.144 43.6016 9.144ZM44.4536 7.476C45.1376 7.476 45.5336 6.96 45.5336 5.76C45.5336 4.56 45.1496 4.044 44.4536 4.044C43.7936 4.044 43.3856 4.704 43.3856 5.76C43.3856 6.792 43.8176 7.476 44.4536 7.476ZM52.3171 9.144C50.2291 9.144 48.8491 7.8 48.8491 5.76C48.8491 3.732 50.2291 2.376 52.3171 2.376C54.4051 2.376 55.7011 3.768 55.7011 5.952V6.36H51.2491C51.2731 7.14 51.7171 7.512 52.3651 7.512C52.8211 7.512 53.1691 7.356 53.3131 6.912L55.6171 7.032C55.2571 8.424 53.9971 9.144 52.3171 9.144ZM53.3731 5.112C53.3491 4.356 52.9411 3.96 52.3171 3.96C51.7171 3.96 51.2971 4.404 51.2491 5.112H53.3731ZM58.335 9L55.959 2.52H58.359L59.667 6.672L60.963 2.52H63.363L60.975 9H58.335Z" fill="#C3FF38"/>
<path d="M63.3198 10.32L66.8838 -7.15256e-07H69.2118L65.6478 10.32H63.3198ZM70.0255 8.808V6.864L73.4815 5.46L70.0255 4.056V2.124L75.5815 4.392V6.54L70.0255 8.808Z" fill="#133ED8"/>
<path d="M5.94809 8.808L5.85361 9.03946L6.19809 9.18008V8.808H5.94809ZM0.392094 6.54H0.142094V6.70797L0.297611 6.77146L0.392094 6.54ZM0.392094 4.392L0.297611 4.16054L0.142094 4.22402V4.392H0.392094ZM5.94809 2.124H6.19809V1.75192L5.85361 1.89254L5.94809 2.124ZM5.94809 4.056L6.04219 4.28762L6.19809 4.22428V4.056H5.94809ZM2.49209 5.46L2.398 5.22838L1.82787 5.46L2.398 5.69162L2.49209 5.46ZM5.94809 6.864H6.19809V6.69572L6.04219 6.63238L5.94809 6.864ZM6.04258 8.57654L0.486577 6.30854L0.297611 6.77146L5.85361 9.03946L6.04258 8.57654ZM0.642094 6.54V4.392H0.142094V6.54H0.642094ZM0.486577 4.62346L6.04258 2.35546L5.85361 1.89254L0.297611 4.16054L0.486577 4.62346ZM5.69809 2.124V4.056H6.19809V2.124H5.69809ZM5.854 3.82438L2.398 5.22838L2.58619 5.69162L6.04219 4.28762L5.854 3.82438ZM2.398 5.69162L5.854 7.09562L6.04219 6.63238L2.58619 5.22838L2.398 5.69162ZM5.69809 6.864V8.808H6.19809V6.864H5.69809ZM9.17966 9H8.92966V9.25H9.17966V9ZM9.17966 2.364H9.42966V2.114H9.17966V2.364ZM6.69566 2.364H6.44566V2.614H6.69566V2.364ZM6.69566 0.48V0.23H6.44566V0.48H6.69566ZM14.0277 0.48H14.2777V0.23H14.0277V0.48ZM14.0277 2.364V2.614H14.2777V2.364H14.0277ZM11.5437 2.364V2.114H11.2937V2.364H11.5437ZM11.5437 9V9.25H11.7937V9H11.5437ZM9.42966 9V2.364H8.92966V9H9.42966ZM9.17966 2.114H6.69566V2.614H9.17966V2.114ZM6.94566 2.364V0.48H6.44566V2.364H6.94566ZM6.69566 0.73H14.0277V0.23H6.69566V0.73ZM13.7777 0.48V2.364H14.2777V0.48H13.7777ZM14.0277 2.114H11.5437V2.614H14.0277V2.114ZM11.2937 2.364V9H11.7937V2.364H11.2937ZM11.5437 8.75H9.17966V9.25H11.5437V8.75ZM14.8947 2.52V2.27H14.6447V2.52H14.8947ZM17.2227 2.52H17.4727V2.27H17.2227V2.52ZM18.7707 2.52V2.27H18.5207V2.52H18.7707ZM21.0987 2.52H21.3487V2.27H21.0987V2.52ZM21.0987 9V9.25H21.3487V9H21.0987ZM19.0107 9L18.7609 9.01162L18.772 9.25H19.0107V9ZM18.9627 7.968L19.2124 7.95638L18.7313 7.87334L18.9627 7.968ZM17.0307 8.894C16.4034 8.894 15.9444 8.69259 15.6382 8.34085C15.3275 7.98391 15.1447 7.43825 15.1447 6.696H14.6447C14.6447 7.51375 14.8458 8.19209 15.2611 8.66915C15.6809 9.15141 16.2899 9.394 17.0307 9.394V8.894ZM15.1447 6.696V2.52H14.6447V6.696H15.1447ZM14.8947 2.77H17.2227V2.27H14.8947V2.77ZM16.9727 2.52V6.168H17.4727V2.52H16.9727ZM16.9727 6.168C16.9727 6.59864 17.026 6.95251 17.1757 7.20463C17.2538 7.3362 17.3585 7.44068 17.4918 7.51018C17.6234 7.57877 17.7687 7.606 17.9187 7.606V7.106C17.8286 7.106 17.7669 7.08973 17.723 7.06682C17.6808 7.04482 17.6415 7.0098 17.6056 6.94937C17.5273 6.81749 17.4727 6.57736 17.4727 6.168H16.9727ZM17.9187 7.606C18.2586 7.606 18.5576 7.48633 18.7578 7.19438C18.9446 6.92203 19.0207 6.53353 19.0207 6.048H18.5207C18.5207 6.49847 18.4467 6.76397 18.3455 6.91162C18.2577 7.03967 18.1307 7.106 17.9187 7.106V7.606ZM19.0207 6.048V2.52H18.5207V6.048H19.0207ZM18.7707 2.77H21.0987V2.27H18.7707V2.77ZM20.8487 2.52V9H21.3487V2.52H20.8487ZM21.0987 8.75H19.0107V9.25H21.0987V8.75ZM19.2604 8.98838L19.2124 7.95638L18.7129 7.97962L18.7609 9.01162L19.2604 8.98838ZM18.7313 7.87334C18.5865 8.22711 18.3788 8.47594 18.1099 8.63933C17.8383 8.80433 17.4846 8.894 17.0307 8.894V9.394C17.5487 9.394 17.9991 9.29167 18.3695 9.06667C18.7425 8.84006 19.0148 8.50089 19.194 8.06266L18.7313 7.87334ZM22.4415 0.48V0.23H22.1915V0.48H22.4415ZM24.7695 0.48H25.0195V0.23H24.7695V0.48ZM25.7175 7.356H25.9675V7.106H25.7175V7.356ZM25.7175 9V9.25H25.9675V9H25.7175ZM24.4095 8.75C23.8193 8.75 23.4015 8.61341 23.1302 8.35423C22.8611 8.09712 22.6915 7.67644 22.6915 7.008H22.1915C22.1915 7.75556 22.382 8.33088 22.7848 8.71577C23.1856 9.09859 23.7518 9.25 24.4095 9.25V8.75ZM22.6915 7.008V0.48H22.1915V7.008H22.6915ZM22.4415 0.73H24.7695V0.23H22.4415V0.73ZM24.5195 0.48V6.744H25.0195V0.48H24.5195ZM24.5195 6.744C24.5195 7.0066 24.5815 7.24054 24.7542 7.40305C24.9239 7.56277 25.1509 7.606 25.3695 7.606V7.106C25.2042 7.106 25.1312 7.07123 25.0969 7.03895C25.0655 7.00946 25.0195 6.9374 25.0195 6.744H24.5195ZM25.3695 7.606H25.7175V7.106H25.3695V7.606ZM25.4675 7.356V9H25.9675V7.356H25.4675ZM25.7175 8.75H24.4095V9.25H25.7175V8.75ZM26.7423 9H26.4923V9.25H26.7423V9ZM26.7423 2.52V2.27H26.4923V2.52H26.7423ZM29.0703 2.52H29.3203V2.27H29.0703V2.52ZM29.0703 9V9.25H29.3203V9H29.0703ZM26.7063 1.872H26.4563V2.122H26.7063V1.872ZM26.7063 0.24V-0.0100002H26.4563V0.24H26.7063ZM29.1063 0.24H29.3563V-0.0100002H29.1063V0.24ZM29.1063 1.872V2.122H29.3563V1.872H29.1063ZM26.9923 9V2.52H26.4923V9H26.9923ZM26.7423 2.77H29.0703V2.27H26.7423V2.77ZM28.8203 2.52V9H29.3203V2.52H28.8203ZM29.0703 8.75H26.7423V9.25H29.0703V8.75ZM26.9563 1.872V0.24H26.4563V1.872H26.9563ZM26.7063 0.49H29.1063V-0.0100002H26.7063V0.49ZM28.8563 0.24V1.872H29.3563V0.24H28.8563ZM29.1063 1.622H26.7063V2.122H29.1063V1.622ZM33.5563 8.894C32.5538 8.894 31.7438 8.57589 31.1859 8.03716C30.6289 7.49923 30.3022 6.72126 30.3022 5.76H29.8022C29.8022 6.83874 30.1716 7.75277 30.8386 8.39684C31.5047 9.04011 32.4467 9.394 33.5563 9.394V8.894ZM30.3022 5.76C30.3022 4.80505 30.6287 4.02682 31.1861 3.48711C31.7443 2.94673 32.5544 2.626 33.5563 2.626V2.126C32.4461 2.126 31.5042 2.48327 30.8384 3.12788C30.1718 3.77318 29.8022 4.68695 29.8022 5.76H30.3022ZM33.5563 2.626C34.5581 2.626 35.3682 2.94673 35.9264 3.48711C36.4838 4.02682 36.8103 4.80505 36.8103 5.76H37.3103C37.3103 4.68695 36.9407 3.77318 36.2741 3.12788C35.6083 2.48327 34.6664 2.126 33.5563 2.126V2.626ZM36.8103 5.76C36.8103 6.72126 36.4836 7.49923 35.9266 8.03716C35.3687 8.57589 34.5587 8.894 33.5563 8.894V9.394C34.6658 9.394 35.6078 9.04011 36.2739 8.39684C36.9409 7.75277 37.3103 6.83874 37.3103 5.76H36.8103ZM33.5563 7.726C33.9998 7.726 34.3582 7.53105 34.5939 7.16817C34.8201 6.81993 34.9223 6.33557 34.9223 5.76H34.4223C34.4223 6.28843 34.3264 6.66207 34.1746 6.89583C34.0323 7.11495 33.8327 7.226 33.5563 7.226V7.726ZM34.9223 5.76C34.9223 5.18989 34.8199 4.70606 34.5942 4.35682C34.3594 3.99345 34.0016 3.794 33.5563 3.794V4.294C33.8309 4.294 34.0311 4.40655 34.1743 4.62818C34.3266 4.86394 34.4223 5.23811 34.4223 5.76H34.9223ZM33.5563 3.794C33.1109 3.794 32.7531 3.99345 32.5183 4.35682C32.2926 4.70606 32.1903 5.18989 32.1903 5.76H32.6903C32.6903 5.23811 32.7859 4.86394 32.9382 4.62818C33.0814 4.40655 33.2816 4.294 33.5563 4.294V3.794ZM32.1903 5.76C32.1903 6.33557 32.2924 6.81993 32.5186 7.16817C32.7543 7.53105 33.1127 7.726 33.5563 7.726V7.226C33.2798 7.226 33.0802 7.11495 32.9379 6.89583C32.7861 6.66207 32.6903 6.28843 32.6903 5.76H32.1903ZM37.8569 9H37.6069V9.25H37.8569V9ZM37.8569 6.84V6.59H37.6069V6.84H37.8569ZM40.2089 6.84H40.4589V6.59H40.2089V6.84ZM40.2089 9V9.25H40.4589V9H40.2089ZM38.1069 9V6.84H37.6069V9H38.1069ZM37.8569 7.09H40.2089V6.59H37.8569V7.09ZM39.9589 6.84V9H40.4589V6.84H39.9589ZM40.2089 8.75H37.8569V9.25H40.2089V8.75ZM45.5336 3.456L45.31 3.5678L45.7836 3.456H45.5336ZM45.5336 0.48V0.23H45.2836V0.48H45.5336ZM47.8616 0.48H48.1116V0.23H47.8616V0.48ZM47.8616 9V9.25H48.1116V9H47.8616ZM45.5936 9L45.3437 9.00961L45.353 9.25H45.5936V9ZM45.5576 8.064L45.8074 8.05439L45.7715 7.1208L45.3363 7.94756L45.5576 8.064ZM43.6016 8.894C42.8729 8.894 42.2962 8.6013 41.8949 8.07832C41.4881 7.54812 41.2476 6.76138 41.2476 5.76H40.7476C40.7476 6.83462 41.005 7.73988 41.4982 8.38268C41.997 9.0327 42.7222 9.394 43.6016 9.394V8.894ZM41.2476 5.76C41.2476 4.7675 41.4988 3.98023 41.9121 3.44721C42.3211 2.91985 42.8994 2.626 43.6016 2.626V2.126C42.7438 2.126 42.02 2.49215 41.517 3.14079C41.0184 3.78377 40.7476 4.6885 40.7476 5.76H41.2476ZM43.6016 2.626C44.4783 2.626 45.0212 2.99023 45.31 3.5678L45.7572 3.3442C45.374 2.57777 44.6449 2.126 43.6016 2.126V2.626ZM45.7836 3.456V0.48H45.2836V3.456H45.7836ZM45.5336 0.73H47.8616V0.23H45.5336V0.73ZM47.6116 0.48V9H48.1116V0.48H47.6116ZM47.8616 8.75H45.5936V9.25H47.8616V8.75ZM45.8434 8.99039L45.8074 8.05439L45.3077 8.07361L45.3437 9.00961L45.8434 8.99039ZM45.3363 7.94756C45.0261 8.537 44.4117 8.894 43.6016 8.894V9.394C44.5675 9.394 45.369 8.959 45.7788 8.18044L45.3363 7.94756ZM44.4536 7.726C44.8691 7.726 45.2223 7.56315 45.4586 7.2059C45.6828 6.86687 45.7836 6.37953 45.7836 5.76H45.2836C45.2836 6.34046 45.1863 6.71113 45.0415 6.9301C44.9088 7.13085 44.722 7.226 44.4536 7.226V7.726ZM45.7836 5.76C45.7836 5.14177 45.6862 4.65425 45.4636 4.31488C45.2283 3.95609 44.874 3.794 44.4536 3.794V4.294C44.7291 4.294 44.9149 4.38991 45.0455 4.58911C45.1889 4.80775 45.2836 5.17823 45.2836 5.76H45.7836ZM44.4536 3.794C44.0255 3.794 43.6833 4.01414 43.4597 4.37408C43.2421 4.72437 43.1356 5.20466 43.1356 5.76H43.6356C43.6356 5.25934 43.733 4.88163 43.8844 4.63792C44.0298 4.40386 44.2217 4.294 44.4536 4.294V3.794ZM43.1356 5.76C43.1356 6.30692 43.2495 6.78613 43.4691 7.1375C43.6923 7.49471 44.0322 7.726 44.4536 7.726V7.226C44.239 7.226 44.0448 7.11529 43.8931 6.8725C43.7377 6.62387 43.6356 6.24508 43.6356 5.76H43.1356ZM55.7011 6.36V6.61H55.9511V6.36H55.7011ZM51.2491 6.36V6.11H50.9913L50.9992 6.36769L51.2491 6.36ZM53.3131 6.912L53.3261 6.66234L53.1345 6.65236L53.0753 6.83487L53.3131 6.912ZM55.6171 7.032L55.8592 7.0946L55.9358 6.79826L55.6301 6.78234L55.6171 7.032ZM53.3731 5.112V5.362H53.6312L53.623 5.10407L53.3731 5.112ZM51.2491 5.112L50.9997 5.09509L50.9816 5.362H51.2491V5.112ZM52.3171 8.894C51.3275 8.894 50.5267 8.57641 49.9747 8.03802C49.4232 7.50021 49.0991 6.72194 49.0991 5.76H48.5991C48.5991 6.83806 48.965 7.75179 49.6256 8.39598C50.2855 9.03959 51.2188 9.394 52.3171 9.394V8.894ZM49.0991 5.76C49.0991 4.80437 49.423 4.02584 49.9749 3.48626C50.5273 2.94621 51.3281 2.626 52.3171 2.626V2.126C51.2182 2.126 50.285 2.48379 49.6254 3.12874C48.9652 3.77416 48.5991 4.68763 48.5991 5.76H49.0991ZM52.3171 2.626C53.3035 2.626 54.0796 2.95324 54.6102 3.51642C55.1423 4.08133 55.4511 4.90899 55.4511 5.952H55.9511C55.9511 4.81101 55.6119 3.85067 54.9741 3.17358C54.3346 2.49476 53.4187 2.126 52.3171 2.126V2.626ZM55.4511 5.952V6.36H55.9511V5.952H55.4511ZM55.7011 6.11H51.2491V6.61H55.7011V6.11ZM50.9992 6.36769C51.0126 6.8034 51.1452 7.15996 51.3984 7.40733C51.6515 7.6546 51.9937 7.762 52.3651 7.762V7.262C52.0885 7.262 51.8847 7.1834 51.7478 7.04967C51.611 6.91604 51.5096 6.6966 51.499 6.35231L50.9992 6.36769ZM52.3651 7.762C52.6187 7.762 52.8684 7.71908 53.0821 7.59444C53.3022 7.46606 53.4618 7.26381 53.5509 6.98913L53.0753 6.83487C53.0204 7.00419 52.9341 7.10194 52.8302 7.16256C52.7198 7.22692 52.5675 7.262 52.3651 7.262V7.762ZM53.3001 7.16166L55.6041 7.28166L55.6301 6.78234L53.3261 6.66234L53.3001 7.16166ZM55.3751 6.9694C55.0538 8.21186 53.9294 8.894 52.3171 8.894V9.394C54.0648 9.394 55.4605 8.63614 55.8592 7.0946L55.3751 6.9694ZM53.623 5.10407C53.6097 4.68421 53.4884 4.3309 53.2518 4.08072C53.0127 3.82791 52.6838 3.71 52.3171 3.71V4.21C52.5745 4.21 52.7616 4.29009 52.8885 4.42428C53.0179 4.5611 53.1126 4.78379 53.1233 5.11993L53.623 5.10407ZM52.3171 3.71C51.9514 3.71 51.629 3.84721 51.3933 4.10002C51.1602 4.35003 51.0267 4.69654 50.9997 5.09509L51.4986 5.12891C51.5195 4.81946 51.6201 4.58997 51.759 4.44098C51.8953 4.29479 52.0828 4.21 52.3171 4.21V3.71ZM51.2491 5.362H53.3731V4.862H51.2491V5.362ZM58.335 9L58.1003 9.08606L58.1604 9.25H58.335V9ZM55.959 2.52V2.27H55.6011L55.7243 2.60606L55.959 2.52ZM58.359 2.52L58.5975 2.44488L58.5424 2.27H58.359V2.52ZM59.667 6.672L59.4286 6.74712L59.6681 7.50751L59.9057 6.74649L59.667 6.672ZM60.963 2.52V2.27H60.7792L60.7244 2.44551L60.963 2.52ZM63.363 2.52L63.5976 2.60645L63.7216 2.27H63.363V2.52ZM60.975 9V9.25H61.1493L61.2096 9.08645L60.975 9ZM58.5698 8.91394L56.1938 2.43394L55.7243 2.60606L58.1003 9.08606L58.5698 8.91394ZM55.959 2.77H58.359V2.27H55.959V2.77ZM58.1206 2.59512L59.4286 6.74712L59.9055 6.59688L58.5975 2.44488L58.1206 2.59512ZM59.9057 6.74649L61.2017 2.59449L60.7244 2.44551L59.4284 6.59751L59.9057 6.74649ZM60.963 2.77H63.363V2.27H60.963V2.77ZM63.1285 2.43355L60.7405 8.91355L61.2096 9.08645L63.5976 2.60645L63.1285 2.43355ZM60.975 8.75H58.335V9.25H60.975V8.75ZM63.3198 10.32L63.0835 10.2384L62.969 10.57H63.3198V10.32ZM66.8838 -7.15256e-07V-0.250001H66.7057L66.6475 -0.0816085L66.8838 -7.15256e-07ZM69.2118 -7.15256e-07L69.4481 0.081607L69.5626 -0.250001H69.2118V-7.15256e-07ZM65.6478 10.32V10.57H65.826L65.8841 10.4016L65.6478 10.32ZM63.5561 10.4016L67.1201 0.081607L66.6475 -0.0816085L63.0835 10.2384L63.5561 10.4016ZM66.8838 0.249999H69.2118V-0.250001H66.8838V0.249999ZM68.9755 -0.0816085L65.4115 10.2384L65.8841 10.4016L69.4481 0.081607L68.9755 -0.0816085ZM65.6478 10.07H63.3198V10.57H65.6478V10.07ZM70.0255 8.808H69.7755V9.18008L70.12 9.03946L70.0255 8.808ZM70.0255 6.864L69.9314 6.63238L69.7755 6.69572V6.864H70.0255ZM73.4815 5.46L73.5756 5.69162L74.1457 5.46L73.5756 5.22838L73.4815 5.46ZM70.0255 4.056H69.7755V4.22428L69.9314 4.28762L70.0255 4.056ZM70.0255 2.124L70.12 1.89254L69.7755 1.75192V2.124H70.0255ZM75.5815 4.392H75.8315V4.22402L75.676 4.16054L75.5815 4.392ZM75.5815 6.54L75.676 6.77146L75.8315 6.70797V6.54H75.5815ZM70.2755 8.808V6.864H69.7755V8.808H70.2755ZM70.1196 7.09562L73.5756 5.69162L73.3874 5.22838L69.9314 6.63238L70.1196 7.09562ZM73.5756 5.22838L70.1196 3.82438L69.9314 4.28762L73.3874 5.69162L73.5756 5.22838ZM70.2755 4.056V2.124H69.7755V4.056H70.2755ZM69.931 2.35546L75.487 4.62346L75.676 4.16054L70.12 1.89254L69.931 2.35546ZM75.3315 4.392V6.54H75.8315V4.392H75.3315ZM75.487 6.30854L69.931 8.57654L70.12 9.03946L75.676 6.77146L75.487 6.30854Z" fill="black" mask="url(#path-1-outside-1_13_2)"/>
</svg>
