<svg width="85" height="13" viewBox="0 0 85 13" fill="none" xmlns="http://www.w3.org/2000/svg">
<path d="M0.257812 6.84872V5.09872L7.25781 2.01633V4.02983L2.4652 5.95384L2.52983 5.84943V6.09801L2.4652 5.99361L7.25781 7.91761V9.93111L0.257812 6.84872ZM84.1074 7.80327L77.1074 10.8857V8.87216L81.9 6.94815L81.8354 7.05256V6.80398L81.9 6.90838L77.1074 4.98438V2.97088L84.1074 6.05327V7.80327Z" fill="#3445D9"/>
<path d="M9.01278 2.59304V0.818182H17.375V2.59304H14.2578V11H12.13V2.59304H9.01278ZM22.5703 7.74858V3.36364H24.6882V11H22.6548V9.61293H22.5753C22.4029 10.0604 22.1162 10.42 21.7152 10.6918C21.3175 10.9635 20.8319 11.0994 20.2585 11.0994C19.7481 11.0994 19.299 10.9834 18.9112 10.7514C18.5234 10.5194 18.2202 10.1896 18.0014 9.76207C17.786 9.33452 17.6766 8.82244 17.6733 8.22585V3.36364H19.7912V7.84801C19.7945 8.29877 19.9155 8.65507 20.1541 8.9169C20.3928 9.17874 20.7126 9.30966 21.1136 9.30966C21.3688 9.30966 21.6075 9.25166 21.8295 9.13565C22.0516 9.01634 22.2306 8.84067 22.3665 8.60866C22.5057 8.37666 22.5736 8.08996 22.5703 7.74858ZM28.5002 0.818182V11H26.3823V0.818182H28.5002ZM30.1967 11V3.36364H32.3146V11H30.1967ZM31.2607 2.37926C30.9458 2.37926 30.6757 2.27486 30.4503 2.06605C30.2282 1.85393 30.1172 1.60038 30.1172 1.3054C30.1172 1.01373 30.2282 0.763494 30.4503 0.554688C30.6757 0.342566 30.9458 0.236505 31.2607 0.236505C31.5755 0.236505 31.844 0.342566 32.0661 0.554688C32.2914 0.763494 32.4041 1.01373 32.4041 1.3054C32.4041 1.60038 32.2914 1.85393 32.0661 2.06605C31.844 2.27486 31.5755 2.37926 31.2607 2.37926ZM37.4615 11.1491C36.6892 11.1491 36.0214 10.9851 35.4579 10.657C34.8978 10.3255 34.4653 9.86482 34.1603 9.27486C33.8554 8.68158 33.7029 7.99384 33.7029 7.21165C33.7029 6.42282 33.8554 5.73343 34.1603 5.14347C34.4653 4.55019 34.8978 4.08949 35.4579 3.76136C36.0214 3.42992 36.6892 3.2642 37.4615 3.2642C38.2337 3.2642 38.8999 3.42992 39.46 3.76136C40.0235 4.08949 40.4577 4.55019 40.7626 5.14347C41.0675 5.73343 41.22 6.42282 41.22 7.21165C41.22 7.99384 41.0675 8.68158 40.7626 9.27486C40.4577 9.86482 40.0235 10.3255 39.46 10.657C38.8999 10.9851 38.2337 11.1491 37.4615 11.1491ZM37.4714 9.50852C37.8227 9.50852 38.1161 9.40909 38.3514 9.21023C38.5867 9.00805 38.764 8.73295 38.8833 8.38494C39.006 8.03693 39.0673 7.64086 39.0673 7.19673C39.0673 6.7526 39.006 6.35653 38.8833 6.00852C38.764 5.66051 38.5867 5.38542 38.3514 5.18324C38.1161 4.98106 37.8227 4.87997 37.4714 4.87997C37.1168 4.87997 36.8185 4.98106 36.5765 5.18324C36.3379 5.38542 36.1573 5.66051 36.0346 6.00852C35.9153 6.35653 35.8556 6.7526 35.8556 7.19673C35.8556 7.64086 35.9153 8.03693 36.0346 8.38494C36.1573 8.73295 36.3379 9.00805 36.5765 9.21023C36.8185 9.40909 37.1168 9.50852 37.4714 9.50852ZM43.835 11.1293C43.5069 11.1293 43.2252 11.0133 42.9899 10.7812C42.7579 10.5459 42.6419 10.2642 42.6419 9.93608C42.6419 9.61127 42.7579 9.33286 42.9899 9.10085C43.2252 8.86884 43.5069 8.75284 43.835 8.75284C44.1532 8.75284 44.4316 8.86884 44.6703 9.10085C44.9089 9.33286 45.0282 9.61127 45.0282 9.93608C45.0282 10.1548 44.9719 10.3554 44.8592 10.5376C44.7498 10.7166 44.6056 10.8608 44.4267 10.9702C44.2477 11.0762 44.0505 11.1293 43.835 11.1293ZM49.581 11.1243C49.0009 11.1243 48.4756 10.9751 48.005 10.6768C47.5376 10.3752 47.1664 9.93277 46.8913 9.34943C46.6196 8.76278 46.4837 8.04356 46.4837 7.19176C46.4837 6.31676 46.6245 5.58925 46.9062 5.00923C47.188 4.4259 47.5625 3.99006 48.0298 3.7017C48.5005 3.41004 49.0159 3.2642 49.576 3.2642C50.0036 3.2642 50.3598 3.33712 50.6449 3.48295C50.9332 3.62547 51.1652 3.80445 51.3409 4.01989C51.5199 4.23201 51.6558 4.44081 51.7486 4.64631H51.8132V0.818182H53.9261V11H51.8381V9.77699H51.7486C51.6491 9.98911 51.5083 10.1996 51.326 10.4084C51.147 10.6139 50.9134 10.7846 50.625 10.9205C50.34 11.0563 49.992 11.1243 49.581 11.1243ZM50.2521 9.43892C50.5935 9.43892 50.8819 9.34612 51.1172 9.16051C51.3558 8.97159 51.5381 8.7081 51.6641 8.37003C51.7933 8.03196 51.858 7.63589 51.858 7.18182C51.858 6.72775 51.795 6.33333 51.669 5.99858C51.5431 5.66383 51.3608 5.4053 51.1222 5.22301C50.8835 5.04072 50.5935 4.94957 50.2521 4.94957C49.9041 4.94957 49.6108 5.04403 49.3722 5.23295C49.1335 5.42187 48.9529 5.68371 48.8303 6.01847C48.7076 6.35322 48.6463 6.741 48.6463 7.18182C48.6463 7.62595 48.7076 8.0187 48.8303 8.36009C48.9562 8.69815 49.1368 8.9633 49.3722 9.15554C49.6108 9.34446 49.9041 9.43892 50.2521 9.43892ZM59.1475 11.1491C58.362 11.1491 57.6859 10.9901 57.1191 10.6719C56.5557 10.3504 56.1215 9.89631 55.8166 9.30966C55.5117 8.7197 55.3592 8.02202 55.3592 7.21662C55.3592 6.43111 55.5117 5.74171 55.8166 5.14844C56.1215 4.55516 56.5507 4.0928 57.1042 3.76136C57.661 3.42992 58.314 3.2642 59.063 3.2642C59.5668 3.2642 60.0358 3.34541 60.47 3.50781C60.9075 3.6669 61.2886 3.9072 61.6135 4.22869C61.9416 4.55019 62.1968 4.95455 62.3791 5.44176C62.5614 5.92566 62.6525 6.49242 62.6525 7.14205V7.72372H56.2044V6.41122H60.6589C60.6589 6.1063 60.5926 5.83617 60.46 5.60085C60.3275 5.36553 60.1435 5.18158 59.9082 5.04901C59.6762 4.91312 59.4061 4.84517 59.0978 4.84517C58.7763 4.84517 58.4913 4.91974 58.2427 5.06889C57.9975 5.21473 57.8052 5.41193 57.666 5.66051C57.5268 5.90578 57.4556 6.17921 57.4522 6.48082V7.72869C57.4522 8.10653 57.5218 8.433 57.661 8.7081C57.8036 8.98319 58.0041 9.19531 58.2626 9.34446C58.5211 9.49361 58.8277 9.56818 59.1824 9.56818C59.4177 9.56818 59.6331 9.53504 59.8287 9.46875C60.0242 9.40246 60.1916 9.30303 60.3308 9.17045C60.47 9.03788 60.5761 8.87547 60.649 8.68324L62.6078 8.8125C62.5083 9.28314 62.3045 9.69413 61.9963 10.0455C61.6913 10.3935 61.2969 10.6652 60.813 10.8608C60.3324 11.053 59.7773 11.1491 59.1475 11.1491ZM70.9489 3.36364L68.2791 11H65.8928L63.223 3.36364H65.4602L67.0462 8.82741H67.1257L68.7067 3.36364H70.9489Z" fill="white"/>
<path d="M9.01278 2.59304V0.818182H17.375V2.59304H14.2578V11H12.13V2.59304H9.01278ZM22.5703 7.74858V3.36364H24.6882V11H22.6548V9.61293H22.5753C22.4029 10.0604 22.1162 10.42 21.7152 10.6918C21.3175 10.9635 20.8319 11.0994 20.2585 11.0994C19.7481 11.0994 19.299 10.9834 18.9112 10.7514C18.5234 10.5194 18.2202 10.1896 18.0014 9.76207C17.786 9.33452 17.6766 8.82244 17.6733 8.22585V3.36364H19.7912V7.84801C19.7945 8.29877 19.9155 8.65507 20.1541 8.9169C20.3928 9.17874 20.7126 9.30966 21.1136 9.30966C21.3688 9.30966 21.6075 9.25166 21.8295 9.13565C22.0516 9.01634 22.2306 8.84067 22.3665 8.60866C22.5057 8.37666 22.5736 8.08996 22.5703 7.74858ZM28.5002 0.818182V11H26.3823V0.818182H28.5002ZM30.1967 11V3.36364H32.3146V11H30.1967ZM31.2607 2.37926C30.9458 2.37926 30.6757 2.27486 30.4503 2.06605C30.2282 1.85393 30.1172 1.60038 30.1172 1.3054C30.1172 1.01373 30.2282 0.763494 30.4503 0.554688C30.6757 0.342566 30.9458 0.236505 31.2607 0.236505C31.5755 0.236505 31.844 0.342566 32.0661 0.554688C32.2914 0.763494 32.4041 1.01373 32.4041 1.3054C32.4041 1.60038 32.2914 1.85393 32.0661 2.06605C31.844 2.27486 31.5755 2.37926 31.2607 2.37926ZM37.4615 11.1491C36.6892 11.1491 36.0214 10.9851 35.4579 10.657C34.8978 10.3255 34.4653 9.86482 34.1603 9.27486C33.8554 8.68158 33.7029 7.99384 33.7029 7.21165C33.7029 6.42282 33.8554 5.73343 34.1603 5.14347C34.4653 4.55019 34.8978 4.08949 35.4579 3.76136C36.0214 3.42992 36.6892 3.2642 37.4615 3.2642C38.2337 3.2642 38.8999 3.42992 39.46 3.76136C40.0235 4.08949 40.4577 4.55019 40.7626 5.14347C41.0675 5.73343 41.22 6.42282 41.22 7.21165C41.22 7.99384 41.0675 8.68158 40.7626 9.27486C40.4577 9.86482 40.0235 10.3255 39.46 10.657C38.8999 10.9851 38.2337 11.1491 37.4615 11.1491ZM37.4714 9.50852C37.8227 9.50852 38.1161 9.40909 38.3514 9.21023C38.5867 9.00805 38.764 8.73295 38.8833 8.38494C39.006 8.03693 39.0673 7.64086 39.0673 7.19673C39.0673 6.7526 39.006 6.35653 38.8833 6.00852C38.764 5.66051 38.5867 5.38542 38.3514 5.18324C38.1161 4.98106 37.8227 4.87997 37.4714 4.87997C37.1168 4.87997 36.8185 4.98106 36.5765 5.18324C36.3379 5.38542 36.1573 5.66051 36.0346 6.00852C35.9153 6.35653 35.8556 6.7526 35.8556 7.19673C35.8556 7.64086 35.9153 8.03693 36.0346 8.38494C36.1573 8.73295 36.3379 9.00805 36.5765 9.21023C36.8185 9.40909 37.1168 9.50852 37.4714 9.50852ZM43.835 11.1293C43.5069 11.1293 43.2252 11.0133 42.9899 10.7812C42.7579 10.5459 42.6419 10.2642 42.6419 9.93608C42.6419 9.61127 42.7579 9.33286 42.9899 9.10085C43.2252 8.86884 43.5069 8.75284 43.835 8.75284C44.1532 8.75284 44.4316 8.86884 44.6703 9.10085C44.9089 9.33286 45.0282 9.61127 45.0282 9.93608C45.0282 10.1548 44.9719 10.3554 44.8592 10.5376C44.7498 10.7166 44.6056 10.8608 44.4267 10.9702C44.2477 11.0762 44.0505 11.1293 43.835 11.1293ZM49.581 11.1243C49.0009 11.1243 48.4756 10.9751 48.005 10.6768C47.5376 10.3752 47.1664 9.93277 46.8913 9.34943C46.6196 8.76278 46.4837 8.04356 46.4837 7.19176C46.4837 6.31676 46.6245 5.58925 46.9062 5.00923C47.188 4.4259 47.5625 3.99006 48.0298 3.7017C48.5005 3.41004 49.0159 3.2642 49.576 3.2642C50.0036 3.2642 50.3598 3.33712 50.6449 3.48295C50.9332 3.62547 51.1652 3.80445 51.3409 4.01989C51.5199 4.23201 51.6558 4.44081 51.7486 4.64631H51.8132V0.818182H53.9261V11H51.8381V9.77699H51.7486C51.6491 9.98911 51.5083 10.1996 51.326 10.4084C51.147 10.6139 50.9134 10.7846 50.625 10.9205C50.34 11.0563 49.992 11.1243 49.581 11.1243ZM50.2521 9.43892C50.5935 9.43892 50.8819 9.34612 51.1172 9.16051C51.3558 8.97159 51.5381 8.7081 51.6641 8.37003C51.7933 8.03196 51.858 7.63589 51.858 7.18182C51.858 6.72775 51.795 6.33333 51.669 5.99858C51.5431 5.66383 51.3608 5.4053 51.1222 5.22301C50.8835 5.04072 50.5935 4.94957 50.2521 4.94957C49.9041 4.94957 49.6108 5.04403 49.3722 5.23295C49.1335 5.42187 48.9529 5.68371 48.8303 6.01847C48.7076 6.35322 48.6463 6.741 48.6463 7.18182C48.6463 7.62595 48.7076 8.0187 48.8303 8.36009C48.9562 8.69815 49.1368 8.9633 49.3722 9.15554C49.6108 9.34446 49.9041 9.43892 50.2521 9.43892ZM59.1475 11.1491C58.362 11.1491 57.6859 10.9901 57.1191 10.6719C56.5557 10.3504 56.1215 9.89631 55.8166 9.30966C55.5117 8.7197 55.3592 8.02202 55.3592 7.21662C55.3592 6.43111 55.5117 5.74171 55.8166 5.14844C56.1215 4.55516 56.5507 4.0928 57.1042 3.76136C57.661 3.42992 58.314 3.2642 59.063 3.2642C59.5668 3.2642 60.0358 3.34541 60.47 3.50781C60.9075 3.6669 61.2886 3.9072 61.6135 4.22869C61.9416 4.55019 62.1968 4.95455 62.3791 5.44176C62.5614 5.92566 62.6525 6.49242 62.6525 7.14205V7.72372H56.2044V6.41122H60.6589C60.6589 6.1063 60.5926 5.83617 60.46 5.60085C60.3275 5.36553 60.1435 5.18158 59.9082 5.04901C59.6762 4.91312 59.4061 4.84517 59.0978 4.84517C58.7763 4.84517 58.4913 4.91974 58.2427 5.06889C57.9975 5.21473 57.8052 5.41193 57.666 5.66051C57.5268 5.90578 57.4556 6.17921 57.4522 6.48082V7.72869C57.4522 8.10653 57.5218 8.433 57.661 8.7081C57.8036 8.98319 58.0041 9.19531 58.2626 9.34446C58.5211 9.49361 58.8277 9.56818 59.1824 9.56818C59.4177 9.56818 59.6331 9.53504 59.8287 9.46875C60.0242 9.40246 60.1916 9.30303 60.3308 9.17045C60.47 9.03788 60.5761 8.87547 60.649 8.68324L62.6078 8.8125C62.5083 9.28314 62.3045 9.69413 61.9963 10.0455C61.6913 10.3935 61.2969 10.6652 60.813 10.8608C60.3324 11.053 59.7773 11.1491 59.1475 11.1491ZM70.9489 3.36364L68.2791 11H65.8928L63.223 3.36364H65.4602L67.0462 8.82741H67.1257L68.7067 3.36364H70.9489Z" fill="#141313" fill-opacity="0.5"/>
<path d="M75.6744 0.340908L72.3931 12.5312H70.5685L73.8498 0.340908H75.6744Z" fill="#37D934"/>
</svg>
