<svg width="82" height="9" viewBox="0 0 82 9" fill="none" xmlns="http://www.w3.org/2000/svg">
<mask id="path-1-inside-1_13_2" fill="white">
<path d="M3.38918 8C2.17918 8 1.63918 7.46 1.63918 6.22V3.97H0.71918V2.6H1.63918V1.33H3.57918V2.6H4.98918V3.97H3.57918V5.94C3.57918 6.48 3.79918 6.63 4.24918 6.63H4.98918V8H3.38918ZM7.56363 8.12C6.42363 8.12 5.78363 7.38 5.78363 6.08V2.6H7.72363V5.64C7.72363 6.34 7.90363 6.63 8.30363 6.63C8.76363 6.63 9.01363 6.32 9.01363 5.54V2.6H10.9536V8H9.21363L9.17363 7.14C8.90363 7.8 8.37363 8.12 7.56363 8.12ZM13.7127 8C12.6727 8 12.0727 7.52 12.0727 6.34V0.9H14.0127V6.12C14.0127 6.5 14.1927 6.63 14.5127 6.63H14.8027V8H13.7127ZM15.6567 8V2.6H17.5967V8H15.6567ZM15.6267 2.06V0.7H17.6267V2.06H15.6267ZM21.335 8.12C19.575 8.12 18.415 7 18.415 5.3C18.415 3.61 19.575 2.48 21.335 2.48C23.095 2.48 24.255 3.61 24.255 5.3C24.255 7 23.095 8.12 21.335 8.12ZM21.335 6.73C21.935 6.73 22.265 6.22 22.265 5.3C22.265 4.39 21.935 3.87 21.335 3.87C20.735 3.87 20.405 4.39 20.405 5.3C20.405 6.22 20.735 6.73 21.335 6.73ZM27.5912 8.12C25.7712 8.12 24.9012 7.36 24.8212 6.3L26.7712 6.25C26.8512 6.68 27.1112 6.88 27.6012 6.88C28.0112 6.88 28.2212 6.75 28.2212 6.49C28.2212 6.22 28.0712 6.08 27.3112 5.96C25.4912 5.67 24.9512 5.26 24.9512 4.26C24.9512 3.18 25.8012 2.48 27.5912 2.48C29.2512 2.48 30.0912 3.24 30.2112 4.42L28.2912 4.48C28.2512 3.98 27.9812 3.72 27.5712 3.72C27.1912 3.72 26.9412 3.9 26.9412 4.2C26.9412 4.5 27.1412 4.63 27.7512 4.71C29.5312 4.94 30.2112 5.46 30.2112 6.44C30.2112 7.53 29.2512 8.12 27.5912 8.12ZM32.7282 8.12C31.5882 8.12 30.7782 7.58 30.7782 6.64C30.7782 5.68 31.4282 5.21 32.6082 4.96L34.2282 4.62C34.2282 4.06 33.9782 3.76 33.5482 3.76C33.0982 3.76 32.8482 3.98 32.7882 4.41L30.8682 4.35C31.0782 3.05 32.0282 2.48 33.5482 2.48C35.3082 2.48 36.1682 3.24 36.1682 4.78V6.36C36.1682 6.71 36.2882 6.78 36.4882 6.78H36.5982V8C36.4782 8.04 36.1682 8.08 35.9182 8.08C35.4182 8.08 34.7982 7.92 34.6282 7.18C34.3482 7.76 33.7382 8.12 32.7282 8.12ZM33.2682 6.9C33.8082 6.9 34.2282 6.58 34.2282 5.88V5.7L33.3482 5.92C33.0082 6 32.7682 6.18 32.7682 6.46C32.7682 6.74 32.9182 6.9 33.2682 6.9ZM38.9373 8C37.8973 8 37.2973 7.52 37.2973 6.34V0.9H39.2373V6.12C39.2373 6.5 39.4173 6.63 39.7373 6.63H40.0273V8H38.9373ZM42.0816 8L40.1016 2.6H42.1016L43.1916 6.06L44.2716 2.6H46.2716L44.2816 8H42.0816ZM48.5583 8.12C47.4183 8.12 46.6083 7.58 46.6083 6.64C46.6083 5.68 47.2583 5.21 48.4383 4.96L50.0583 4.62C50.0583 4.06 49.8083 3.76 49.3783 3.76C48.9283 3.76 48.6783 3.98 48.6183 4.41L46.6983 4.35C46.9083 3.05 47.8583 2.48 49.3783 2.48C51.1383 2.48 51.9983 3.24 51.9983 4.78V6.36C51.9983 6.71 52.1183 6.78 52.3183 6.78H52.4283V8C52.3083 8.04 51.9983 8.08 51.7483 8.08C51.2483 8.08 50.6283 7.92 50.4583 7.18C50.1783 7.76 49.5683 8.12 48.5583 8.12ZM49.0983 6.9C49.6383 6.9 50.0583 6.58 50.0583 5.88V5.7L49.1783 5.92C48.8383 6 48.5983 6.18 48.5983 6.46C48.5983 6.74 48.7483 6.9 49.0983 6.9ZM55.2837 8C54.0737 8 53.5337 7.46 53.5337 6.22V3.97H52.6137V2.6H53.5337V1.33H55.4737V2.6H56.8837V3.97H55.4737V5.94C55.4737 6.48 55.6937 6.63 56.1437 6.63H56.8837V8H55.2837ZM57.6782 8V2.6H59.6182V8H57.6782ZM57.6482 2.06V0.7H59.6482V2.06H57.6482ZM63.3264 8.12C61.5864 8.12 60.4364 7 60.4364 5.3C60.4364 3.61 61.5864 2.48 63.3264 2.48C65.0664 2.48 66.1464 3.64 66.1464 5.46V5.8H62.4364C62.4564 6.45 62.8264 6.76 63.3664 6.76C63.7464 6.76 64.0364 6.63 64.1564 6.26L66.0764 6.36C65.7764 7.52 64.7264 8.12 63.3264 8.12ZM64.2064 4.76C64.1864 4.13 63.8464 3.8 63.3264 3.8C62.8264 3.8 62.4764 4.17 62.4364 4.76H64.2064ZM66.9164 8V2.6H68.7964L68.8364 3.73C69.0664 2.93 69.4564 2.6 70.1264 2.6H70.5864V4.14H70.1064C69.2464 4.14 68.8564 4.36 68.8564 5.11V8H66.9164ZM71.3305 8V2.6H73.2105L73.2505 3.73C73.4805 2.93 73.8705 2.6 74.5405 2.6H75.0005V4.14H74.5205C73.6605 4.14 73.2705 4.36 73.2705 5.11V8H71.3305ZM77.4841 8.12C76.3441 8.12 75.5341 7.58 75.5341 6.64C75.5341 5.68 76.1841 5.21 77.3641 4.96L78.9841 4.62C78.9841 4.06 78.7341 3.76 78.3041 3.76C77.8541 3.76 77.6041 3.98 77.5441 4.41L75.6241 4.35C75.8341 3.05 76.7841 2.48 78.3041 2.48C80.0641 2.48 80.9241 3.24 80.9241 4.78V6.36C80.9241 6.71 81.0441 6.78 81.2441 6.78H81.3541V8C81.2341 8.04 80.9241 8.08 80.6741 8.08C80.1741 8.08 79.5541 7.92 79.3841 7.18C79.1041 7.76 78.4941 8.12 77.4841 8.12ZM78.0241 6.9C78.5641 6.9 78.9841 6.58 78.9841 5.88V5.7L78.1041 5.92C77.7641 6 77.5241 6.18 77.5241 6.46C77.5241 6.74 77.6741 6.9 78.0241 6.9Z"/>
</mask>
<path d="M3.38918 8C2.17918 8 1.63918 7.46 1.63918 6.22V3.97H0.71918V2.6H1.63918V1.33H3.57918V2.6H4.98918V3.97H3.57918V5.94C3.57918 6.48 3.79918 6.63 4.24918 6.63H4.98918V8H3.38918ZM7.56363 8.12C6.42363 8.12 5.78363 7.38 5.78363 6.08V2.6H7.72363V5.64C7.72363 6.34 7.90363 6.63 8.30363 6.63C8.76363 6.63 9.01363 6.32 9.01363 5.54V2.6H10.9536V8H9.21363L9.17363 7.14C8.90363 7.8 8.37363 8.12 7.56363 8.12ZM13.7127 8C12.6727 8 12.0727 7.52 12.0727 6.34V0.9H14.0127V6.12C14.0127 6.5 14.1927 6.63 14.5127 6.63H14.8027V8H13.7127ZM15.6567 8V2.6H17.5967V8H15.6567ZM15.6267 2.06V0.7H17.6267V2.06H15.6267ZM21.335 8.12C19.575 8.12 18.415 7 18.415 5.3C18.415 3.61 19.575 2.48 21.335 2.48C23.095 2.48 24.255 3.61 24.255 5.3C24.255 7 23.095 8.12 21.335 8.12ZM21.335 6.73C21.935 6.73 22.265 6.22 22.265 5.3C22.265 4.39 21.935 3.87 21.335 3.87C20.735 3.87 20.405 4.39 20.405 5.3C20.405 6.22 20.735 6.73 21.335 6.73ZM27.5912 8.12C25.7712 8.12 24.9012 7.36 24.8212 6.3L26.7712 6.25C26.8512 6.68 27.1112 6.88 27.6012 6.88C28.0112 6.88 28.2212 6.75 28.2212 6.49C28.2212 6.22 28.0712 6.08 27.3112 5.96C25.4912 5.67 24.9512 5.26 24.9512 4.26C24.9512 3.18 25.8012 2.48 27.5912 2.48C29.2512 2.48 30.0912 3.24 30.2112 4.42L28.2912 4.48C28.2512 3.98 27.9812 3.72 27.5712 3.72C27.1912 3.72 26.9412 3.9 26.9412 4.2C26.9412 4.5 27.1412 4.63 27.7512 4.71C29.5312 4.94 30.2112 5.46 30.2112 6.44C30.2112 7.53 29.2512 8.12 27.5912 8.12ZM32.7282 8.12C31.5882 8.12 30.7782 7.58 30.7782 6.64C30.7782 5.68 31.4282 5.21 32.6082 4.96L34.2282 4.62C34.2282 4.06 33.9782 3.76 33.5482 3.76C33.0982 3.76 32.8482 3.98 32.7882 4.41L30.8682 4.35C31.0782 3.05 32.0282 2.48 33.5482 2.48C35.3082 2.48 36.1682 3.24 36.1682 4.78V6.36C36.1682 6.71 36.2882 6.78 36.4882 6.78H36.5982V8C36.4782 8.04 36.1682 8.08 35.9182 8.08C35.4182 8.08 34.7982 7.92 34.6282 7.18C34.3482 7.76 33.7382 8.12 32.7282 8.12ZM33.2682 6.9C33.8082 6.9 34.2282 6.58 34.2282 5.88V5.7L33.3482 5.92C33.0082 6 32.7682 6.18 32.7682 6.46C32.7682 6.74 32.9182 6.9 33.2682 6.9ZM38.9373 8C37.8973 8 37.2973 7.52 37.2973 6.34V0.9H39.2373V6.12C39.2373 6.5 39.4173 6.63 39.7373 6.63H40.0273V8H38.9373ZM42.0816 8L40.1016 2.6H42.1016L43.1916 6.06L44.2716 2.6H46.2716L44.2816 8H42.0816ZM48.5583 8.12C47.4183 8.12 46.6083 7.58 46.6083 6.64C46.6083 5.68 47.2583 5.21 48.4383 4.96L50.0583 4.62C50.0583 4.06 49.8083 3.76 49.3783 3.76C48.9283 3.76 48.6783 3.98 48.6183 4.41L46.6983 4.35C46.9083 3.05 47.8583 2.48 49.3783 2.48C51.1383 2.48 51.9983 3.24 51.9983 4.78V6.36C51.9983 6.71 52.1183 6.78 52.3183 6.78H52.4283V8C52.3083 8.04 51.9983 8.08 51.7483 8.08C51.2483 8.08 50.6283 7.92 50.4583 7.18C50.1783 7.76 49.5683 8.12 48.5583 8.12ZM49.0983 6.9C49.6383 6.9 50.0583 6.58 50.0583 5.88V5.7L49.1783 5.92C48.8383 6 48.5983 6.18 48.5983 6.46C48.5983 6.74 48.7483 6.9 49.0983 6.9ZM55.2837 8C54.0737 8 53.5337 7.46 53.5337 6.22V3.97H52.6137V2.6H53.5337V1.33H55.4737V2.6H56.8837V3.97H55.4737V5.94C55.4737 6.48 55.6937 6.63 56.1437 6.63H56.8837V8H55.2837ZM57.6782 8V2.6H59.6182V8H57.6782ZM57.6482 2.06V0.7H59.6482V2.06H57.6482ZM63.3264 8.12C61.5864 8.12 60.4364 7 60.4364 5.3C60.4364 3.61 61.5864 2.48 63.3264 2.48C65.0664 2.48 66.1464 3.64 66.1464 5.46V5.8H62.4364C62.4564 6.45 62.8264 6.76 63.3664 6.76C63.7464 6.76 64.0364 6.63 64.1564 6.26L66.0764 6.36C65.7764 7.52 64.7264 8.12 63.3264 8.12ZM64.2064 4.76C64.1864 4.13 63.8464 3.8 63.3264 3.8C62.8264 3.8 62.4764 4.17 62.4364 4.76H64.2064ZM66.9164 8V2.6H68.7964L68.8364 3.73C69.0664 2.93 69.4564 2.6 70.1264 2.6H70.5864V4.14H70.1064C69.2464 4.14 68.8564 4.36 68.8564 5.11V8H66.9164ZM71.3305 8V2.6H73.2105L73.2505 3.73C73.4805 2.93 73.8705 2.6 74.5405 2.6H75.0005V4.14H74.5205C73.6605 4.14 73.2705 4.36 73.2705 5.11V8H71.3305ZM77.4841 8.12C76.3441 8.12 75.5341 7.58 75.5341 6.64C75.5341 5.68 76.1841 5.21 77.3641 4.96L78.9841 4.62C78.9841 4.06 78.7341 3.76 78.3041 3.76C77.8541 3.76 77.6041 3.98 77.5441 4.41L75.6241 4.35C75.8341 3.05 76.7841 2.48 78.3041 2.48C80.0641 2.48 80.9241 3.24 80.9241 4.78V6.36C80.9241 6.71 81.0441 6.78 81.2441 6.78H81.3541V8C81.2341 8.04 80.9241 8.08 80.6741 8.08C80.1741 8.08 79.5541 7.92 79.3841 7.18C79.1041 7.76 78.4941 8.12 77.4841 8.12ZM78.0241 6.9C78.5641 6.9 78.9841 6.58 78.9841 5.88V5.7L78.1041 5.92C77.7641 6 77.5241 6.18 77.5241 6.46C77.5241 6.74 77.6741 6.9 78.0241 6.9Z" fill="black"/>
<path d="M1.63918 3.97H1.78918V3.82H1.63918V3.97ZM0.71918 3.97H0.56918V4.12H0.71918V3.97ZM0.71918 2.6V2.45H0.56918V2.6H0.71918ZM1.63918 2.6V2.75H1.78918V2.6H1.63918ZM1.63918 1.33V1.18H1.48918V1.33H1.63918ZM3.57918 1.33H3.72918V1.18H3.57918V1.33ZM3.57918 2.6H3.42918V2.75H3.57918V2.6ZM4.98918 2.6H5.13918V2.45H4.98918V2.6ZM4.98918 3.97V4.12H5.13918V3.97H4.98918ZM3.57918 3.97V3.82H3.42918V3.97H3.57918ZM4.98918 6.63H5.13918V6.48H4.98918V6.63ZM4.98918 8V8.15H5.13918V8H4.98918ZM3.38918 7.85C2.803 7.85 2.41317 7.71883 2.16718 7.46963C1.92076 7.21998 1.78918 6.82205 1.78918 6.22H1.48918C1.48918 6.85795 1.6276 7.35002 1.95368 7.68037C2.28019 8.01117 2.76536 8.15 3.38918 8.15V7.85ZM1.78918 6.22V3.97H1.48918V6.22H1.78918ZM1.63918 3.82H0.71918V4.12H1.63918V3.82ZM0.86918 3.97V2.6H0.56918V3.97H0.86918ZM0.71918 2.75H1.63918V2.45H0.71918V2.75ZM1.78918 2.6V1.33H1.48918V2.6H1.78918ZM1.63918 1.48H3.57918V1.18H1.63918V1.48ZM3.42918 1.33V2.6H3.72918V1.33H3.42918ZM3.57918 2.75H4.98918V2.45H3.57918V2.75ZM4.83918 2.6V3.97H5.13918V2.6H4.83918ZM4.98918 3.82H3.57918V4.12H4.98918V3.82ZM3.42918 3.97V5.94H3.72918V3.97H3.42918ZM3.42918 5.94C3.42918 6.22459 3.48614 6.44904 3.64247 6.59659C3.79706 6.74249 4.01452 6.78 4.24918 6.78V6.48C4.03384 6.48 3.9163 6.44251 3.84839 6.37841C3.78222 6.31596 3.72918 6.19541 3.72918 5.94H3.42918ZM4.24918 6.78H4.98918V6.48H4.24918V6.78ZM4.83918 6.63V8H5.13918V6.63H4.83918ZM4.98918 7.85H3.38918V8.15H4.98918V7.85ZM5.78363 2.6V2.45H5.63363V2.6H5.78363ZM7.72363 2.6H7.87363V2.45H7.72363V2.6ZM9.01363 2.6V2.45H8.86363V2.6H9.01363ZM10.9536 2.6H11.1036V2.45H10.9536V2.6ZM10.9536 8V8.15H11.1036V8H10.9536ZM9.21363 8L9.0638 8.00697L9.07045 8.15H9.21363V8ZM9.17363 7.14L9.32347 7.13303L9.0348 7.0832L9.17363 7.14ZM7.56363 7.97C7.02769 7.97 6.62768 7.79735 6.35927 7.48901C6.08814 7.17755 5.93363 6.70735 5.93363 6.08H5.63363C5.63363 6.75265 5.79913 7.30245 6.13299 7.68599C6.46958 8.07265 6.95958 8.27 7.56363 8.27V7.97ZM5.93363 6.08V2.6H5.63363V6.08H5.93363ZM5.78363 2.75H7.72363V2.45H5.78363V2.75ZM7.57363 2.6V5.64H7.87363V2.6H7.57363ZM7.57363 5.64C7.57363 5.99638 7.61824 6.27801 7.73465 6.47408C7.79483 6.57542 7.87445 6.65438 7.97491 6.70676C8.07432 6.75859 8.18566 6.78 8.30363 6.78V6.48C8.22161 6.48 8.16044 6.46516 8.1136 6.44074C8.06781 6.41687 8.02744 6.37958 7.99261 6.32092C7.91903 6.19699 7.87363 5.98362 7.87363 5.64H7.57363ZM8.30363 6.78C8.57198 6.78 8.80113 6.6865 8.95484 6.46233C9.1005 6.24992 9.16363 5.94052 9.16363 5.54H8.86363C8.86363 5.91948 8.80177 6.15508 8.70742 6.29267C8.62114 6.4185 8.49529 6.48 8.30363 6.48V6.78ZM9.16363 5.54V2.6H8.86363V5.54H9.16363ZM9.01363 2.75H10.9536V2.45H9.01363V2.75ZM10.8036 2.6V8H11.1036V2.6H10.8036ZM10.9536 7.85H9.21363V8.15H10.9536V7.85ZM9.36347 7.99303L9.32347 7.13303L9.0238 7.14697L9.0638 8.00697L9.36347 7.99303ZM9.0348 7.0832C8.91017 7.38787 8.72954 7.60576 8.49325 7.7493C8.25539 7.8938 7.9494 7.97 7.56363 7.97V8.27C7.98786 8.27 8.35188 8.1862 8.64901 8.0057C8.94772 7.82424 9.1671 7.55214 9.31246 7.19679L9.0348 7.0832ZM12.0727 0.9V0.75H11.9227V0.9H12.0727ZM14.0127 0.9H14.1627V0.75H14.0127V0.9ZM14.8027 6.63H14.9527V6.48H14.8027V6.63ZM14.8027 8V8.15H14.9527V8H14.8027ZM13.7127 7.85C13.2129 7.85 12.8475 7.73445 12.6063 7.50404C12.3664 7.27487 12.2227 6.90626 12.2227 6.34H11.9227C11.9227 6.95374 12.079 7.41513 12.3991 7.72096C12.7179 8.02555 13.1724 8.15 13.7127 8.15V7.85ZM12.2227 6.34V0.9H11.9227V6.34H12.2227ZM12.0727 1.05H14.0127V0.75H12.0727V1.05ZM13.8627 0.9V6.12H14.1627V0.9H13.8627ZM13.8627 6.12C13.8627 6.33076 13.9125 6.50682 14.0399 6.62673C14.1655 6.74496 14.3367 6.78 14.5127 6.78V6.48C14.3687 6.48 14.2899 6.45004 14.2455 6.40827C14.2029 6.36818 14.1627 6.28924 14.1627 6.12H13.8627ZM14.5127 6.78H14.8027V6.48H14.5127V6.78ZM14.6527 6.63V8H14.9527V6.63H14.6527ZM14.8027 7.85H13.7127V8.15H14.8027V7.85ZM15.6567 8H15.5067V8.15H15.6567V8ZM15.6567 2.6V2.45H15.5067V2.6H15.6567ZM17.5967 2.6H17.7467V2.45H17.5967V2.6ZM17.5967 8V8.15H17.7467V8H17.5967ZM15.6267 2.06H15.4767V2.21H15.6267V2.06ZM15.6267 0.7V0.55H15.4767V0.7H15.6267ZM17.6267 0.7H17.7767V0.55H17.6267V0.7ZM17.6267 2.06V2.21H17.7767V2.06H17.6267ZM15.8067 8V2.6H15.5067V8H15.8067ZM15.6567 2.75H17.5967V2.45H15.6567V2.75ZM17.4467 2.6V8H17.7467V2.6H17.4467ZM17.5967 7.85H15.6567V8.15H17.5967V7.85ZM15.7767 2.06V0.7H15.4767V2.06H15.7767ZM15.6267 0.849999H17.6267V0.55H15.6267V0.849999ZM17.4767 0.7V2.06H17.7767V0.7H17.4767ZM17.6267 1.91H15.6267V2.21H17.6267V1.91ZM21.335 7.97C20.4871 7.97 19.7967 7.70074 19.3192 7.2396C18.8421 6.77894 18.565 6.11476 18.565 5.3H18.265C18.265 6.18524 18.5678 6.93106 19.1108 7.4554C19.6532 7.97926 20.4228 8.27 21.335 8.27V7.97ZM18.565 5.3C18.565 4.49043 18.842 3.82609 19.3193 3.36402C19.797 2.90154 20.4874 2.63 21.335 2.63V2.33C20.4225 2.33 19.6529 2.62346 19.1106 3.14848C18.5679 3.67391 18.265 4.41957 18.265 5.3H18.565ZM21.335 2.63C22.1825 2.63 22.8729 2.90154 23.3506 3.36402C23.8279 3.82609 24.105 4.49043 24.105 5.3H24.405C24.405 4.41957 24.102 3.67391 23.5593 3.14848C23.017 2.62346 22.2474 2.33 21.335 2.33V2.63ZM24.105 5.3C24.105 6.11476 23.8278 6.77894 23.3508 7.2396C22.8732 7.70074 22.1828 7.97 21.335 7.97V8.27C22.2471 8.27 23.0167 7.97926 23.5592 7.4554C24.1021 6.93106 24.405 6.18524 24.405 5.3H24.105ZM21.335 6.88C21.6851 6.88 21.9652 6.72733 22.1508 6.4417C22.3306 6.16486 22.415 5.77414 22.415 5.3H22.115C22.115 5.74586 22.0344 6.07014 21.8992 6.2783C21.7697 6.47767 21.5848 6.58 21.335 6.58V6.88ZM22.415 5.3C22.415 4.83054 22.3304 4.44014 22.1509 4.16234C21.966 3.87607 21.6862 3.72 21.335 3.72V4.02C21.5838 4.02 21.769 4.12393 21.899 4.32516C22.0345 4.53486 22.115 4.85946 22.115 5.3H22.415ZM21.335 3.72C20.9838 3.72 20.704 3.87607 20.519 4.16234C20.3395 4.44014 20.255 4.83054 20.255 5.3H20.555C20.555 4.85946 20.6354 4.53486 20.7709 4.32516C20.901 4.12393 21.0862 4.02 21.335 4.02V3.72ZM20.255 5.3C20.255 5.77414 20.3394 6.16486 20.5192 6.4417C20.7047 6.72733 20.9848 6.88 21.335 6.88V6.58C21.0851 6.58 20.9002 6.47767 20.7708 6.2783C20.6356 6.07014 20.555 5.74586 20.555 5.3H20.255ZM24.8212 6.3L24.8174 6.15005L24.6598 6.15409L24.6716 6.31129L24.8212 6.3ZM26.7712 6.25L26.9187 6.22256L26.8953 6.09677L26.7674 6.10005L26.7712 6.25ZM27.3112 5.96L27.2876 6.10813L27.2878 6.10816L27.3112 5.96ZM30.2112 4.42L30.2159 4.56993L30.3767 4.5649L30.3604 4.40482L30.2112 4.42ZM28.2912 4.48L28.1417 4.49196L28.1531 4.63439L28.2959 4.62993L28.2912 4.48ZM27.7512 4.71L27.7317 4.85873L27.732 4.85876L27.7512 4.71ZM27.5912 7.97C26.6998 7.97 26.0615 7.78359 25.6405 7.48512C25.224 7.18992 25.0076 6.77677 24.9708 6.28871L24.6716 6.31129C24.7148 6.88323 24.9735 7.38008 25.467 7.72988C25.9559 8.07641 26.6626 8.27 27.5912 8.27V7.97ZM24.8251 6.44995L26.7751 6.39995L26.7674 6.10005L24.8174 6.15005L24.8251 6.44995ZM26.6237 6.27744C26.6684 6.51736 26.7675 6.713 26.9416 6.84559C27.1134 6.97645 27.3377 7.03 27.6012 7.03V6.73C27.3747 6.73 27.224 6.68355 27.1233 6.60691C27.025 6.532 26.954 6.41264 26.9187 6.22256L26.6237 6.27744ZM27.6012 7.03C27.8173 7.03 28.0058 6.99658 28.1446 6.90961C28.2948 6.8155 28.3712 6.6684 28.3712 6.49H28.0712C28.0712 6.5716 28.0426 6.6195 27.9853 6.65539C27.9166 6.69842 27.7951 6.73 27.6012 6.73V7.03ZM28.3712 6.49C28.3712 6.40928 28.3601 6.32488 28.3206 6.24419C28.2803 6.16188 28.2166 6.09581 28.1314 6.04196C27.97 5.93998 27.7143 5.87179 27.3346 5.81184L27.2878 6.10816C27.6681 6.16821 27.8674 6.23002 27.9711 6.29555C28.0184 6.32544 28.0396 6.35249 28.0512 6.37612C28.0635 6.40137 28.0712 6.43572 28.0712 6.49H28.3712ZM27.3348 5.81187C26.4255 5.66698 25.8678 5.4957 25.537 5.25496C25.3757 5.13763 25.2694 5.00432 25.2018 4.84739C25.1334 4.68846 25.1012 4.49723 25.1012 4.26H24.8012C24.8012 4.52277 24.8366 4.75779 24.9263 4.96605C25.0168 5.17631 25.1592 5.35112 25.3605 5.49754C25.7546 5.7843 26.3769 5.96302 27.2876 6.10813L27.3348 5.81187ZM25.1012 4.26C25.1012 3.76471 25.2932 3.36697 25.6868 3.08727C26.0877 2.8024 26.7123 2.63 27.5912 2.63V2.33C26.6801 2.33 25.9847 2.5076 25.5131 2.84273C25.0342 3.18303 24.8012 3.67529 24.8012 4.26H25.1012ZM27.5912 2.63C28.3999 2.63 28.9885 2.81521 29.3864 3.12576C29.7815 3.43408 30.0054 3.87888 30.062 4.43518L30.3604 4.40482C30.297 3.78112 30.0409 3.25592 29.571 2.88924C29.104 2.52479 28.4425 2.33 27.5912 2.33V2.63ZM30.2065 4.27007L28.2865 4.33007L28.2959 4.62993L30.2159 4.56993L30.2065 4.27007ZM28.4407 4.46804C28.4188 4.19447 28.3325 3.96758 28.1776 3.80803C28.0209 3.64654 27.8094 3.57 27.5712 3.57V3.87C27.743 3.87 27.8716 3.92346 27.9623 4.01697C28.055 4.11242 28.1236 4.26553 28.1417 4.49196L28.4407 4.46804ZM27.5712 3.57C27.3597 3.57 27.1672 3.61986 27.0237 3.7275C26.8756 3.83861 26.7912 4.00326 26.7912 4.2H27.0912C27.0912 4.09674 27.1319 4.02139 27.2037 3.9675C27.2802 3.91014 27.4028 3.87 27.5712 3.87V3.57ZM26.7912 4.2C26.7912 4.29147 26.8065 4.38073 26.8483 4.46298C26.8906 4.54628 26.955 4.61215 27.0372 4.6642C27.1937 4.76337 27.4256 4.81858 27.7317 4.85873L27.7707 4.56127C27.4668 4.52142 27.2937 4.47163 27.1977 4.4108C27.1536 4.38285 27.1299 4.35497 27.1157 4.32702C27.101 4.29802 27.0912 4.25853 27.0912 4.2H26.7912ZM27.732 4.85876C28.6156 4.97294 29.1999 5.15672 29.5613 5.41568C29.9099 5.66547 30.0612 5.99242 30.0612 6.44H30.3612C30.3612 5.90758 30.1725 5.48453 29.7361 5.17182C29.3125 4.86828 28.6668 4.67706 27.7704 4.56124L27.732 4.85876ZM30.0612 6.44C30.0612 6.93262 29.8484 7.30528 29.4434 7.56207C29.0297 7.82437 28.4072 7.97 27.5912 7.97V8.27C28.4352 8.27 29.1227 8.12063 29.604 7.81543C30.0941 7.50471 30.3612 7.03738 30.3612 6.44H30.0612ZM32.6082 4.96L32.5774 4.8132L32.5772 4.81326L32.6082 4.96ZM34.2282 4.62L34.2591 4.7668L34.3782 4.74179V4.62H34.2282ZM32.7882 4.41L32.7836 4.55993L32.9182 4.56413L32.9368 4.43073L32.7882 4.41ZM30.8682 4.35L30.7202 4.32608L30.6929 4.49459L30.8636 4.49993L30.8682 4.35ZM36.5982 6.78H36.7482V6.63H36.5982V6.78ZM36.5982 8L36.6457 8.1423L36.7482 8.10811V8H36.5982ZM34.6282 7.18L34.7744 7.14642L34.6788 6.73021L34.4932 7.11479L34.6282 7.18ZM34.2282 5.7H34.3782V5.50788L34.1919 5.55448L34.2282 5.7ZM33.3482 5.92L33.3826 6.06603L33.3846 6.06552L33.3482 5.92ZM32.7282 7.97C32.1797 7.97 31.7263 7.83981 31.4143 7.61146C31.1071 7.38663 30.9282 7.0612 30.9282 6.64H30.6282C30.6282 7.1588 30.8543 7.57337 31.2372 7.85354C31.6151 8.13019 32.1368 8.27 32.7282 8.27V7.97ZM30.9282 6.64C30.9282 6.19924 31.0749 5.88467 31.349 5.64709C31.6306 5.40295 32.0587 5.22976 32.6393 5.10674L32.5772 4.81326C31.9778 4.94024 31.4909 5.12705 31.1525 5.42041C30.8065 5.72033 30.6282 6.12076 30.6282 6.64H30.9282ZM32.6391 5.1068L34.2591 4.7668L34.1974 4.4732L32.5774 4.8132L32.6391 5.1068ZM34.3782 4.62C34.3782 4.3204 34.3117 4.06725 34.1665 3.88617C34.0173 3.70008 33.8011 3.61 33.5482 3.61V3.91C33.7254 3.91 33.8492 3.96992 33.9325 4.07383C34.0198 4.18275 34.0782 4.3596 34.0782 4.62H34.3782ZM33.5482 3.61C33.2995 3.61 33.0855 3.67103 32.9241 3.8101C32.7624 3.94937 32.6731 4.1499 32.6397 4.38927L32.9368 4.43073C32.9634 4.2401 33.0291 4.11563 33.1199 4.0374C33.2109 3.95897 33.347 3.91 33.5482 3.91V3.61ZM32.7929 4.26007L30.8729 4.20007L30.8636 4.49993L32.7836 4.55993L32.7929 4.26007ZM31.0163 4.37392C31.1157 3.75885 31.3862 3.33061 31.8007 3.05199C32.2204 2.76987 32.8044 2.63 33.5482 2.63V2.33C32.7721 2.33 32.1211 2.47512 31.6333 2.80301C31.1403 3.13439 30.8308 3.64115 30.7202 4.32608L31.0163 4.37392ZM33.5482 2.63C34.4101 2.63 35.0228 2.81657 35.4192 3.16514C35.8118 3.51038 36.0182 4.03774 36.0182 4.78H36.3182C36.3182 3.98226 36.0947 3.35962 35.6173 2.93985C35.1437 2.52343 34.4463 2.33 33.5482 2.33V2.63ZM36.0182 4.78V6.36H36.3182V4.78H36.0182ZM36.0182 6.36C36.0182 6.54411 36.0481 6.69731 36.1416 6.80147C36.2406 6.91163 36.3762 6.93 36.4882 6.93V6.63C36.4002 6.63 36.3759 6.61337 36.3648 6.60103C36.3484 6.5827 36.3182 6.52589 36.3182 6.36H36.0182ZM36.4882 6.93H36.5982V6.63H36.4882V6.93ZM36.4482 6.78V8H36.7482V6.78H36.4482ZM36.5508 7.8577C36.5059 7.87267 36.411 7.8913 36.2889 7.90609C36.17 7.92051 36.0361 7.93 35.9182 7.93V8.23C36.0504 8.23 36.1965 8.21949 36.325 8.20391C36.4505 8.1887 36.5706 8.16734 36.6457 8.1423L36.5508 7.8577ZM35.9182 7.93C35.6815 7.93 35.4301 7.89169 35.2223 7.77634C35.0204 7.66433 34.8498 7.47464 34.7744 7.14642L34.4821 7.21358C34.5766 7.62536 34.801 7.88567 35.0767 8.03866C35.3464 8.18831 35.6549 8.23 35.9182 8.23V7.93ZM34.4932 7.11479C34.2461 7.62655 33.7015 7.97 32.7282 7.97V8.27C33.775 8.27 34.4504 7.89345 34.7633 7.24521L34.4932 7.11479ZM33.2682 7.05C33.5672 7.05 33.8483 6.96108 34.0552 6.76011C34.2633 6.5581 34.3782 6.26057 34.3782 5.88H34.0782C34.0782 6.19942 33.9832 6.4119 33.8462 6.54489C33.7082 6.67892 33.5093 6.75 33.2682 6.75V7.05ZM34.3782 5.88V5.7H34.0782V5.88H34.3782ZM34.1919 5.55448L33.3119 5.77448L33.3846 6.06552L34.2646 5.84552L34.1919 5.55448ZM33.3139 5.77399C32.9558 5.85825 32.6182 6.06985 32.6182 6.46H32.9182C32.9182 6.29015 33.0607 6.14175 33.3826 6.06601L33.3139 5.77399ZM32.6182 6.46C32.6182 6.62592 32.6632 6.78256 32.7853 6.89522C32.905 7.00573 33.0733 7.05 33.2682 7.05V6.75C33.1132 6.75 33.0315 6.71427 32.9887 6.67478C32.9483 6.63744 32.9182 6.57408 32.9182 6.46H32.6182ZM37.2973 0.9V0.75H37.1473V0.9H37.2973ZM39.2373 0.9H39.3873V0.75H39.2373V0.9ZM40.0273 6.63H40.1773V6.48H40.0273V6.63ZM40.0273 8V8.15H40.1773V8H40.0273ZM38.9373 7.85C38.4376 7.85 38.0721 7.73445 37.8309 7.50404C37.591 7.27487 37.4473 6.90626 37.4473 6.34H37.1473C37.1473 6.95374 37.3036 7.41513 37.6237 7.72096C37.9425 8.02555 38.3971 8.15 38.9373 8.15V7.85ZM37.4473 6.34V0.9H37.1473V6.34H37.4473ZM37.2973 1.05H39.2373V0.75H37.2973V1.05ZM39.0873 0.9V6.12H39.3873V0.9H39.0873ZM39.0873 6.12C39.0873 6.33076 39.1371 6.50682 39.2645 6.62673C39.3901 6.74496 39.5613 6.78 39.7373 6.78V6.48C39.5933 6.48 39.5145 6.45004 39.4701 6.40827C39.4275 6.36818 39.3873 6.28924 39.3873 6.12H39.0873ZM39.7373 6.78H40.0273V6.48H39.7373V6.78ZM39.8773 6.63V8H40.1773V6.63H39.8773ZM40.0273 7.85H38.9373V8.15H40.0273V7.85ZM42.0816 8L41.9408 8.05164L41.9768 8.15H42.0816V8ZM40.1016 2.6V2.45H39.8868L39.9608 2.65164L40.1016 2.6ZM42.1016 2.6L42.2447 2.55493L42.2116 2.45H42.1016V2.6ZM43.1916 6.06L43.0485 6.10507L43.1923 6.56131L43.3348 6.10469L43.1916 6.06ZM44.2716 2.6V2.45H44.1613L44.1284 2.55531L44.2716 2.6ZM46.2716 2.6L46.4123 2.65187L46.4867 2.45H46.2716V2.6ZM44.2816 8V8.15H44.3862L44.4223 8.05187L44.2816 8ZM42.2224 7.94836L40.2424 2.54836L39.9608 2.65164L41.9408 8.05164L42.2224 7.94836ZM40.1016 2.75H42.1016V2.45H40.1016V2.75ZM41.9585 2.64507L43.0485 6.10507L43.3347 6.01493L42.2447 2.55493L41.9585 2.64507ZM43.3348 6.10469L44.4148 2.64469L44.1284 2.55531L43.0484 6.01531L43.3348 6.10469ZM44.2716 2.75H46.2716V2.45H44.2716V2.75ZM46.1309 2.54813L44.1409 7.94813L44.4223 8.05187L46.4123 2.65187L46.1309 2.54813ZM44.2816 7.85H42.0816V8.15H44.2816V7.85ZM48.4383 4.96L48.4075 4.8132L48.4072 4.81326L48.4383 4.96ZM50.0583 4.62L50.0891 4.7668L50.2083 4.74179V4.62H50.0583ZM48.6183 4.41L48.6136 4.55993L48.7483 4.56413L48.7669 4.43073L48.6183 4.41ZM46.6983 4.35L46.5502 4.32608L46.523 4.49459L46.6936 4.49993L46.6983 4.35ZM52.4283 6.78H52.5783V6.63H52.4283V6.78ZM52.4283 8L52.4758 8.1423L52.5783 8.10811V8H52.4283ZM50.4583 7.18L50.6045 7.14642L50.5089 6.73021L50.3232 7.11479L50.4583 7.18ZM50.0583 5.7H50.2083V5.50788L50.0219 5.55448L50.0583 5.7ZM49.1783 5.92L49.2127 6.06603L49.2147 6.06552L49.1783 5.92ZM48.5583 7.97C48.0098 7.97 47.5564 7.83981 47.2444 7.61146C46.9372 7.38663 46.7583 7.0612 46.7583 6.64H46.4583C46.4583 7.1588 46.6844 7.57337 47.0672 7.85354C47.4452 8.13019 47.9669 8.27 48.5583 8.27V7.97ZM46.7583 6.64C46.7583 6.19924 46.905 5.88467 47.1791 5.64709C47.4607 5.40295 47.8888 5.22976 48.4694 5.10674L48.4072 4.81326C47.8079 4.94024 47.321 5.12705 46.9826 5.42041C46.6366 5.72033 46.4583 6.12076 46.4583 6.64H46.7583ZM48.4691 5.1068L50.0891 4.7668L50.0275 4.4732L48.4075 4.8132L48.4691 5.1068ZM50.2083 4.62C50.2083 4.3204 50.1418 4.06725 49.9966 3.88617C49.8474 3.70008 49.6312 3.61 49.3783 3.61V3.91C49.5555 3.91 49.6792 3.96992 49.7625 4.07383C49.8499 4.18275 49.9083 4.3596 49.9083 4.62H50.2083ZM49.3783 3.61C49.1295 3.61 48.9156 3.67103 48.7542 3.8101C48.5925 3.94937 48.5032 4.1499 48.4698 4.38927L48.7669 4.43073C48.7935 4.2401 48.8591 4.11563 48.95 4.0374C49.041 3.95897 49.1771 3.91 49.3783 3.91V3.61ZM48.623 4.26007L46.703 4.20007L46.6936 4.49993L48.6136 4.55993L48.623 4.26007ZM46.8464 4.37392C46.9458 3.75885 47.2162 3.33061 47.6307 3.05199C48.0505 2.76987 48.6345 2.63 49.3783 2.63V2.33C48.6022 2.33 47.9512 2.47512 47.4634 2.80301C46.9704 3.13439 46.6609 3.64115 46.5502 4.32608L46.8464 4.37392ZM49.3783 2.63C50.2402 2.63 50.8529 2.81657 51.2493 3.16514C51.6419 3.51038 51.8483 4.03774 51.8483 4.78H52.1483C52.1483 3.98226 51.9248 3.35962 51.4474 2.93985C50.9738 2.52343 50.2764 2.33 49.3783 2.33V2.63ZM51.8483 4.78V6.36H52.1483V4.78H51.8483ZM51.8483 6.36C51.8483 6.54411 51.8782 6.69731 51.9717 6.80147C52.0706 6.91163 52.2063 6.93 52.3183 6.93V6.63C52.2303 6.63 52.206 6.61337 52.1949 6.60103C52.1785 6.5827 52.1483 6.52589 52.1483 6.36H51.8483ZM52.3183 6.93H52.4283V6.63H52.3183V6.93ZM52.2783 6.78V8H52.5783V6.78H52.2783ZM52.3809 7.8577C52.336 7.87267 52.241 7.8913 52.119 7.90609C52.0001 7.92051 51.8662 7.93 51.7483 7.93V8.23C51.8805 8.23 52.0266 8.21949 52.1551 8.20391C52.2806 8.1887 52.4007 8.16734 52.4758 8.1423L52.3809 7.8577ZM51.7483 7.93C51.5116 7.93 51.2602 7.89169 51.0524 7.77634C50.8505 7.66433 50.6799 7.47464 50.6045 7.14642L50.3121 7.21358C50.4067 7.62536 50.6311 7.88567 50.9068 8.03866C51.1764 8.18831 51.485 8.23 51.7483 8.23V7.93ZM50.3232 7.11479C50.0762 7.62655 49.5315 7.97 48.5583 7.97V8.27C49.6051 8.27 50.2805 7.89345 50.5934 7.24521L50.3232 7.11479ZM49.0983 7.05C49.3973 7.05 49.6784 6.96108 49.8853 6.76011C50.0934 6.5581 50.2083 6.26057 50.2083 5.88H49.9083C49.9083 6.19942 49.8133 6.4119 49.6763 6.54489C49.5383 6.67892 49.3394 6.75 49.0983 6.75V7.05ZM50.2083 5.88V5.7H49.9083V5.88H50.2083ZM50.0219 5.55448L49.1419 5.77448L49.2147 6.06552L50.0947 5.84552L50.0219 5.55448ZM49.144 5.77399C48.7859 5.85825 48.4483 6.06985 48.4483 6.46H48.7483C48.7483 6.29015 48.8908 6.14175 49.2127 6.06601L49.144 5.77399ZM48.4483 6.46C48.4483 6.62592 48.4933 6.78256 48.6153 6.89522C48.7351 7.00573 48.9034 7.05 49.0983 7.05V6.75C48.9432 6.75 48.8616 6.71427 48.8188 6.67478C48.7784 6.63744 48.7483 6.57408 48.7483 6.46H48.4483ZM53.5337 3.97H53.6837V3.82H53.5337V3.97ZM52.6137 3.97H52.4637V4.12H52.6137V3.97ZM52.6137 2.6V2.45H52.4637V2.6H52.6137ZM53.5337 2.6V2.75H53.6837V2.6H53.5337ZM53.5337 1.33V1.18H53.3837V1.33H53.5337ZM55.4737 1.33H55.6237V1.18H55.4737V1.33ZM55.4737 2.6H55.3237V2.75H55.4737V2.6ZM56.8837 2.6H57.0337V2.45H56.8837V2.6ZM56.8837 3.97V4.12H57.0337V3.97H56.8837ZM55.4737 3.97V3.82H55.3237V3.97H55.4737ZM56.8837 6.63H57.0337V6.48H56.8837V6.63ZM56.8837 8V8.15H57.0337V8H56.8837ZM55.2837 7.85C54.6975 7.85 54.3077 7.71883 54.0617 7.46963C53.8153 7.21998 53.6837 6.82205 53.6837 6.22H53.3837C53.3837 6.85795 53.5221 7.35002 53.8482 7.68037C54.1747 8.01117 54.6599 8.15 55.2837 8.15V7.85ZM53.6837 6.22V3.97H53.3837V6.22H53.6837ZM53.5337 3.82H52.6137V4.12H53.5337V3.82ZM52.7637 3.97V2.6H52.4637V3.97H52.7637ZM52.6137 2.75H53.5337V2.45H52.6137V2.75ZM53.6837 2.6V1.33H53.3837V2.6H53.6837ZM53.5337 1.48H55.4737V1.18H53.5337V1.48ZM55.3237 1.33V2.6H55.6237V1.33H55.3237ZM55.4737 2.75H56.8837V2.45H55.4737V2.75ZM56.7337 2.6V3.97H57.0337V2.6H56.7337ZM56.8837 3.82H55.4737V4.12H56.8837V3.82ZM55.3237 3.97V5.94H55.6237V3.97H55.3237ZM55.3237 5.94C55.3237 6.22459 55.3807 6.44904 55.537 6.59659C55.6916 6.74249 55.909 6.78 56.1437 6.78V6.48C55.9284 6.48 55.8108 6.44251 55.7429 6.37841C55.6767 6.31596 55.6237 6.19541 55.6237 5.94H55.3237ZM56.1437 6.78H56.8837V6.48H56.1437V6.78ZM56.7337 6.63V8H57.0337V6.63H56.7337ZM56.8837 7.85H55.2837V8.15H56.8837V7.85ZM57.6782 8H57.5282V8.15H57.6782V8ZM57.6782 2.6V2.45H57.5282V2.6H57.6782ZM59.6182 2.6H59.7682V2.45H59.6182V2.6ZM59.6182 8V8.15H59.7682V8H59.6182ZM57.6482 2.06H57.4982V2.21H57.6482V2.06ZM57.6482 0.7V0.55H57.4982V0.7H57.6482ZM59.6482 0.7H59.7982V0.55H59.6482V0.7ZM59.6482 2.06V2.21H59.7982V2.06H59.6482ZM57.8282 8V2.6H57.5282V8H57.8282ZM57.6782 2.75H59.6182V2.45H57.6782V2.75ZM59.4682 2.6V8H59.7682V2.6H59.4682ZM59.6182 7.85H57.6782V8.15H59.6182V7.85ZM57.7982 2.06V0.7H57.4982V2.06H57.7982ZM57.6482 0.849999H59.6482V0.55H57.6482V0.849999ZM59.4982 0.7V2.06H59.7982V0.7H59.4982ZM59.6482 1.91H57.6482V2.21H59.6482V1.91ZM66.1464 5.8V5.95H66.2964V5.8H66.1464ZM62.4364 5.8V5.65H62.2818L62.2865 5.80461L62.4364 5.8ZM64.1564 6.26L64.1642 6.1102L64.0493 6.10422L64.0138 6.21372L64.1564 6.26ZM66.0764 6.36L66.2217 6.39756L66.2677 6.21976L66.0842 6.2102L66.0764 6.36ZM64.2064 4.76V4.91H64.3613L64.3564 4.75524L64.2064 4.76ZM62.4364 4.76L62.2868 4.74985L62.2759 4.91H62.4364V4.76ZM63.3264 7.97C62.489 7.97 61.8063 7.70105 61.3337 7.24011C60.8614 6.77953 60.5864 6.11516 60.5864 5.3H60.2864C60.2864 6.18484 60.5865 6.93047 61.1242 7.45489C61.6616 7.97895 62.4238 8.27 63.3264 8.27V7.97ZM60.5864 5.3C60.5864 4.49002 60.8613 3.8255 61.3338 3.3635C61.8066 2.90123 62.4894 2.63 63.3264 2.63V2.33C62.4235 2.33 61.6613 2.62377 61.1241 3.149C60.5866 3.6745 60.2864 4.41998 60.2864 5.3H60.5864ZM63.3264 2.63C64.1619 2.63 64.8249 2.90754 65.2798 3.39035C65.7356 3.8742 65.9964 4.57939 65.9964 5.46H66.2964C66.2964 4.52061 66.0173 3.7358 65.4981 3.18465C64.978 2.63245 64.231 2.33 63.3264 2.33V2.63ZM65.9964 5.46V5.8H66.2964V5.46H65.9964ZM66.1464 5.65H62.4364V5.95H66.1464V5.65ZM62.2865 5.80461C62.2974 6.15704 62.4042 6.43818 62.6016 6.63105C62.799 6.82386 63.068 6.91 63.3664 6.91V6.61C63.1249 6.61 62.9389 6.54114 62.8113 6.41645C62.6837 6.29182 62.5955 6.09296 62.5864 5.79539L62.2865 5.80461ZM63.3664 6.91C63.5718 6.91 63.7685 6.87515 63.9345 6.77832C64.1044 6.67924 64.2289 6.52288 64.2991 6.30628L64.0138 6.21372C63.964 6.36712 63.8835 6.46076 63.7834 6.51918C63.6794 6.57985 63.5411 6.61 63.3664 6.61V6.91ZM64.1486 6.4098L66.0686 6.5098L66.0842 6.2102L64.1642 6.1102L64.1486 6.4098ZM65.9312 6.32244C65.6544 7.39272 64.6858 7.97 63.3264 7.97V8.27C64.7671 8.27 65.8985 7.64728 66.2217 6.39756L65.9312 6.32244ZM64.3564 4.75524C64.3456 4.41512 64.2476 4.13594 64.0629 3.94068C63.8768 3.74385 63.6192 3.65 63.3264 3.65V3.95C63.5537 3.95 63.7261 4.02115 63.845 4.14682C63.9653 4.27406 64.0473 4.47488 64.0565 4.76476L64.3564 4.75524ZM63.3264 3.65C63.037 3.65 62.7841 3.75822 62.5992 3.95646C62.416 4.15302 62.3086 4.42812 62.2868 4.74985L62.5861 4.77015C62.6043 4.50188 62.6919 4.29698 62.8187 4.16104C62.9438 4.02678 63.1159 3.95 63.3264 3.95V3.65ZM62.4364 4.91H64.2064V4.61H62.4364V4.91ZM66.9164 8H66.7664V8.15H66.9164V8ZM66.9164 2.6V2.45H66.7664V2.6H66.9164ZM68.7964 2.6L68.9464 2.59469L68.9412 2.45H68.7964V2.6ZM68.8364 3.73L68.6865 3.73531L68.9806 3.77145L68.8364 3.73ZM70.5864 2.6H70.7364V2.45H70.5864V2.6ZM70.5864 4.14V4.29H70.7364V4.14H70.5864ZM68.8564 8V8.15H69.0064V8H68.8564ZM67.0664 8V2.6H66.7664V8H67.0664ZM66.9164 2.75H68.7964V2.45H66.9164V2.75ZM68.6465 2.60531L68.6865 3.73531L68.9864 3.72469L68.9464 2.59469L68.6465 2.60531ZM68.9806 3.77145C69.0916 3.38551 69.2355 3.1341 69.4148 2.97822C69.5907 2.82537 69.8174 2.75 70.1264 2.75V2.45C69.7655 2.45 69.4622 2.53963 69.2181 2.75178C68.9774 2.96089 68.8113 3.27449 68.6923 3.68855L68.9806 3.77145ZM70.1264 2.75H70.5864V2.45H70.1264V2.75ZM70.4364 2.6V4.14H70.7364V2.6H70.4364ZM70.5864 3.99H70.1064V4.29H70.5864V3.99ZM70.1064 3.99C69.6722 3.99 69.3171 4.04364 69.0709 4.22234C68.8115 4.41055 68.7064 4.70998 68.7064 5.11H69.0064C69.0064 4.76002 69.0964 4.57445 69.247 4.46516C69.4108 4.34635 69.6807 4.29 70.1064 4.29V3.99ZM68.7064 5.11V8H69.0064V5.11H68.7064ZM68.8564 7.85H66.9164V8.15H68.8564V7.85ZM71.3305 8H71.1805V8.15H71.3305V8ZM71.3305 2.6V2.45H71.1805V2.6H71.3305ZM73.2105 2.6L73.3604 2.59469L73.3553 2.45H73.2105V2.6ZM73.2505 3.73L73.1006 3.73531L73.3947 3.77145L73.2505 3.73ZM75.0005 2.6H75.1505V2.45H75.0005V2.6ZM75.0005 4.14V4.29H75.1505V4.14H75.0005ZM73.2705 8V8.15H73.4205V8H73.2705ZM71.4805 8V2.6H71.1805V8H71.4805ZM71.3305 2.75H73.2105V2.45H71.3305V2.75ZM73.0606 2.60531L73.1006 3.73531L73.4004 3.72469L73.3604 2.59469L73.0606 2.60531ZM73.3947 3.77145C73.5056 3.38551 73.6495 3.1341 73.8289 2.97822C74.0048 2.82537 74.2315 2.75 74.5405 2.75V2.45C74.1796 2.45 73.8762 2.53963 73.6321 2.75178C73.3915 2.96089 73.2254 3.27449 73.1063 3.68855L73.3947 3.77145ZM74.5405 2.75H75.0005V2.45H74.5405V2.75ZM74.8505 2.6V4.14H75.1505V2.6H74.8505ZM75.0005 3.99H74.5205V4.29H75.0005V3.99ZM74.5205 3.99C74.0862 3.99 73.7312 4.04364 73.4849 4.22234C73.2255 4.41055 73.1205 4.70998 73.1205 5.11H73.4205C73.4205 4.76002 73.5105 4.57445 73.6611 4.46516C73.8248 4.34635 74.0948 4.29 74.5205 4.29V3.99ZM73.1205 5.11V8H73.4205V5.11H73.1205ZM73.2705 7.85H71.3305V8.15H73.2705V7.85ZM77.3641 4.96L77.3333 4.8132L77.333 4.81326L77.3641 4.96ZM78.9841 4.62L79.0149 4.7668L79.1341 4.74179V4.62H78.9841ZM77.5441 4.41L77.5394 4.55993L77.674 4.56413L77.6927 4.43073L77.5441 4.41ZM75.6241 4.35L75.476 4.32608L75.4488 4.49459L75.6194 4.49993L75.6241 4.35ZM81.3541 6.78H81.5041V6.63H81.3541V6.78ZM81.3541 8L81.4015 8.1423L81.5041 8.10811V8H81.3541ZM79.3841 7.18L79.5303 7.14642L79.4347 6.73021L79.249 7.11479L79.3841 7.18ZM78.9841 5.7H79.1341V5.50788L78.9477 5.55448L78.9841 5.7ZM78.1041 5.92L78.1385 6.06603L78.1405 6.06552L78.1041 5.92ZM77.4841 7.97C76.9356 7.97 76.4822 7.83981 76.1702 7.61146C75.863 7.38663 75.6841 7.0612 75.6841 6.64H75.3841C75.3841 7.1588 75.6102 7.57337 75.993 7.85354C76.371 8.13019 76.8926 8.27 77.4841 8.27V7.97ZM75.6841 6.64C75.6841 6.19924 75.8308 5.88467 76.1049 5.64709C76.3865 5.40295 76.8145 5.22976 77.3952 5.10674L77.333 4.81326C76.7337 4.94024 76.2467 5.12705 75.9083 5.42041C75.5624 5.72033 75.3841 6.12076 75.3841 6.64H75.6841ZM77.3949 5.1068L79.0149 4.7668L78.9533 4.4732L77.3333 4.8132L77.3949 5.1068ZM79.1341 4.62C79.1341 4.3204 79.0676 4.06725 78.9224 3.88617C78.7732 3.70008 78.5569 3.61 78.3041 3.61V3.91C78.4813 3.91 78.605 3.96992 78.6883 4.07383C78.7756 4.18275 78.8341 4.3596 78.8341 4.62H79.1341ZM78.3041 3.61C78.0553 3.61 77.8414 3.67103 77.68 3.8101C77.5183 3.94937 77.4289 4.1499 77.3955 4.38927L77.6927 4.43073C77.7193 4.2401 77.7849 4.11563 77.8757 4.0374C77.9668 3.95897 78.1029 3.91 78.3041 3.91V3.61ZM77.5488 4.26007L75.6288 4.20007L75.6194 4.49993L77.5394 4.55993L77.5488 4.26007ZM75.7722 4.37392C75.8715 3.75885 76.142 3.33061 76.5565 3.05199C76.9762 2.76987 77.5603 2.63 78.3041 2.63V2.33C77.5279 2.33 76.877 2.47512 76.3892 2.80301C75.8962 3.13439 75.5867 3.64115 75.476 4.32608L75.7722 4.37392ZM78.3041 2.63C79.166 2.63 79.7786 2.81657 80.175 3.16514C80.5677 3.51038 80.7741 4.03774 80.7741 4.78H81.0741C81.0741 3.98226 80.8505 3.35962 80.3732 2.93985C79.8996 2.52343 79.2022 2.33 78.3041 2.33V2.63ZM80.7741 4.78V6.36H81.0741V4.78H80.7741ZM80.7741 6.36C80.7741 6.54411 80.804 6.69731 80.8975 6.80147C80.9964 6.91163 81.1321 6.93 81.2441 6.93V6.63C81.1561 6.63 81.1318 6.61337 81.1207 6.60103C81.1042 6.5827 81.0741 6.52589 81.0741 6.36H80.7741ZM81.2441 6.93H81.3541V6.63H81.2441V6.93ZM81.2041 6.78V8H81.5041V6.78H81.2041ZM81.3067 7.8577C81.2618 7.87267 81.1668 7.8913 81.0448 7.90609C80.9258 7.92051 80.792 7.93 80.6741 7.93V8.23C80.8062 8.23 80.9524 8.21949 81.0809 8.20391C81.2064 8.1887 81.3264 8.16734 81.4015 8.1423L81.3067 7.8577ZM80.6741 7.93C80.4374 7.93 80.186 7.89169 79.9781 7.77634C79.7763 7.66433 79.6057 7.47464 79.5303 7.14642L79.2379 7.21358C79.3325 7.62536 79.5569 7.88567 79.8326 8.03866C80.1022 8.18831 80.4108 8.23 80.6741 8.23V7.93ZM79.249 7.11479C79.002 7.62655 78.4573 7.97 77.4841 7.97V8.27C78.5309 8.27 79.2062 7.89345 79.5192 7.24521L79.249 7.11479ZM78.0241 7.05C78.3231 7.05 78.6041 6.96108 78.8111 6.76011C79.0191 6.5581 79.1341 6.26057 79.1341 5.88H78.8341C78.8341 6.19942 78.7391 6.4119 78.6021 6.54489C78.4641 6.67892 78.2651 6.75 78.0241 6.75V7.05ZM79.1341 5.88V5.7H78.8341V5.88H79.1341ZM78.9477 5.55448L78.0677 5.77448L78.1405 6.06552L79.0205 5.84552L78.9477 5.55448ZM78.0697 5.77399C77.7116 5.85825 77.3741 6.06985 77.3741 6.46H77.6741C77.6741 6.29015 77.8166 6.14175 78.1385 6.06601L78.0697 5.77399ZM77.3741 6.46C77.3741 6.62592 77.4191 6.78256 77.5411 6.89522C77.6608 7.00573 77.8292 7.05 78.0241 7.05V6.75C77.869 6.75 77.7874 6.71427 77.7446 6.67478C77.7041 6.63744 77.6741 6.57408 77.6741 6.46H77.3741Z" fill="black" mask="url(#path-1-inside-1_13_2)"/>
</svg>
