<svg width="74" height="11" viewBox="0 0 74 11" fill="none" xmlns="http://www.w3.org/2000/svg">
<path d="M5.952 8.808L0.396 6.54V4.392L5.952 2.124V4.056L2.496 5.46L5.952 6.864V8.808ZM9.92756 9C8.47556 9 7.82756 8.352 7.82756 6.864V4.164H6.72356V2.52H7.82756V0.995999H10.1556V2.52H11.8476V4.164H10.1556V6.528C10.1556 7.176 10.4196 7.356 10.9596 7.356H11.8476V9H9.92756ZM14.9369 9.144C13.5689 9.144 12.8009 8.256 12.8009 6.696V2.52H15.1289V6.168C15.1289 7.008 15.3449 7.356 15.8249 7.356C16.3769 7.356 16.6769 6.984 16.6769 6.048V2.52H19.0049V9H16.9169L16.8689 7.968C16.5449 8.76 15.9089 9.144 14.9369 9.144ZM22.3158 9C21.0678 9 20.3478 8.424 20.3478 7.008V0.48H22.6758V6.744C22.6758 7.2 22.8918 7.356 23.2758 7.356H23.6238V9H22.3158Z" fill="#707070"/>
<path d="M5.952 8.808L0.396 6.54V4.392L5.952 2.124V4.056L2.496 5.46L5.952 6.864V8.808ZM9.92756 9C8.47556 9 7.82756 8.352 7.82756 6.864V4.164H6.72356V2.52H7.82756V0.995999H10.1556V2.52H11.8476V4.164H10.1556V6.528C10.1556 7.176 10.4196 7.356 10.9596 7.356H11.8476V9H9.92756ZM14.9369 9.144C13.5689 9.144 12.8009 8.256 12.8009 6.696V2.52H15.1289V6.168C15.1289 7.008 15.3449 7.356 15.8249 7.356C16.3769 7.356 16.6769 6.984 16.6769 6.048V2.52H19.0049V9H16.9169L16.8689 7.968C16.5449 8.76 15.9089 9.144 14.9369 9.144ZM22.3158 9C21.0678 9 20.3478 8.424 20.3478 7.008V0.48H22.6758V6.744C22.6758 7.2 22.8918 7.356 23.2758 7.356H23.6238V9H22.3158Z" fill="black" fill-opacity="0.2"/>
<path d="M24.6486 9V2.52H26.9766V9H24.6486ZM24.6126 1.872V0.24H27.0126V1.872H24.6126ZM31.4625 9.144C29.3505 9.144 27.9585 7.8 27.9585 5.76C27.9585 3.732 29.3505 2.376 31.4625 2.376C33.5745 2.376 34.9665 3.732 34.9665 5.76C34.9665 7.8 33.5745 9.144 31.4625 9.144ZM31.4625 7.476C32.1825 7.476 32.5785 6.864 32.5785 5.76C32.5785 4.668 32.1825 4.044 31.4625 4.044C30.7425 4.044 30.3465 4.668 30.3465 5.76C30.3465 6.864 30.7425 7.476 31.4625 7.476ZM35.7632 9V6.84H38.1152V9H35.7632ZM41.5078 9.144C39.8998 9.144 38.9038 7.836 38.9038 5.76C38.9038 3.696 39.9478 2.376 41.5078 2.376C42.4678 2.376 43.1038 2.784 43.4398 3.456V0.48H45.7678V9H43.4998L43.4638 8.064C43.1038 8.748 42.3958 9.144 41.5078 9.144ZM42.3598 7.476C43.0438 7.476 43.4398 6.96 43.4398 5.76C43.4398 4.56 43.0558 4.044 42.3598 4.044C41.6998 4.044 41.2918 4.704 41.2918 5.76C41.2918 6.792 41.7238 7.476 42.3598 7.476ZM50.2234 9.144C48.1354 9.144 46.7554 7.8 46.7554 5.76C46.7554 3.732 48.1354 2.376 50.2234 2.376C52.3114 2.376 53.6074 3.768 53.6074 5.952V6.36H49.1554C49.1794 7.14 49.6234 7.512 50.2714 7.512C50.7274 7.512 51.0754 7.356 51.2194 6.912L53.5234 7.032C53.1634 8.424 51.9034 9.144 50.2234 9.144ZM51.2794 5.112C51.2554 4.356 50.8474 3.96 50.2234 3.96C49.6234 3.96 49.2034 4.404 49.1554 5.112H51.2794ZM56.2413 9L53.8653 2.52H56.2653L57.5733 6.672L58.8693 2.52H61.2693L58.8813 9H56.2413Z" fill="#707070"/>
<path d="M61.2261 10.32L64.7901 -7.15256e-07H67.1181L63.5541 10.32H61.2261ZM67.9317 8.808V6.864L71.3877 5.46L67.9317 4.056V2.124L73.4877 4.392V6.54L67.9317 8.808Z" fill="black"/>
<path d="M61.2261 10.32L64.7901 -7.15256e-07H67.1181L63.5541 10.32H61.2261ZM67.9317 8.808V6.864L71.3877 5.46L67.9317 4.056V2.124L73.4877 4.392V6.54L67.9317 8.808Z" fill="#C2FF38"/>
</svg>
