<svg width="75" height="11" viewBox="0 0 75 11" fill="none" xmlns="http://www.w3.org/2000/svg">
<mask id="path-1-outside-1_0_1" maskUnits="userSpaceOnUse" x="-1" y="-1" width="77" height="13" fill="black">
<rect fill="white" x="-1" y="-1" width="77" height="13"/>
<path d="M0.384 4.332L5.94 2.088V4.116L1.14 6.048V4.86L5.94 6.792V8.82L0.384 6.576V4.332ZM10.2761 1.188V6.6C10.2761 6.808 10.3321 6.972 10.4441 7.092C10.5641 7.212 10.7241 7.272 10.9241 7.272H11.9681V9H10.2281C9.41213 9 8.80413 8.804 8.40413 8.412C8.00413 8.02 7.80413 7.416 7.80413 6.6V1.188H10.2761ZM11.9201 2.64V4.344H6.67613V2.64H11.9201ZM17.2144 9L17.1064 6.936L17.4304 6.96C17.3584 7.752 17.1384 8.316 16.7704 8.652C16.4024 8.98 15.9184 9.144 15.3184 9.144C14.6384 9.144 14.0984 8.936 13.6984 8.52C13.2984 8.104 13.0984 7.508 13.0984 6.732V2.64H15.5704V5.868C15.5704 6.22 15.5864 6.488 15.6184 6.672C15.6504 6.856 15.7104 7 15.7984 7.104C15.8944 7.208 16.0384 7.26 16.2304 7.26C16.4944 7.26 16.6824 7.148 16.7944 6.924C16.9064 6.7 16.9624 6.348 16.9624 5.868V2.64H19.4344V9H17.2144ZM23.4219 0.48V6.684C23.4219 6.868 23.4699 7.012 23.5659 7.116C23.6699 7.22 23.8139 7.272 23.9979 7.272H24.3699V9H23.1699C22.4819 9 21.9379 8.812 21.5379 8.436C21.1459 8.052 20.9499 7.5 20.9499 6.78V0.48H23.4219ZM27.788 2.64V9H25.316V2.64H27.788ZM27.824 0.48V1.956H25.28V0.48H27.824ZM32.2957 9.144C31.5837 9.144 30.9557 9.008 30.4117 8.736C29.8757 8.456 29.4597 8.064 29.1637 7.56C28.8757 7.056 28.7317 6.476 28.7317 5.82C28.7317 5.164 28.8757 4.584 29.1637 4.08C29.4597 3.576 29.8757 3.188 30.4117 2.916C30.9557 2.636 31.5837 2.496 32.2957 2.496C32.9997 2.496 33.6197 2.636 34.1557 2.916C34.6997 3.188 35.1157 3.576 35.4037 4.08C35.6997 4.584 35.8477 5.164 35.8477 5.82C35.8477 6.476 35.6997 7.056 35.4037 7.56C35.1157 8.064 34.6997 8.456 34.1557 8.736C33.6197 9.008 32.9997 9.144 32.2957 9.144ZM32.2957 7.404C32.6317 7.404 32.8877 7.268 33.0637 6.996C33.2397 6.724 33.3277 6.332 33.3277 5.82C33.3277 5.308 33.2397 4.916 33.0637 4.644C32.8877 4.372 32.6317 4.236 32.2957 4.236C31.9517 4.236 31.6917 4.372 31.5157 4.644C31.3397 4.916 31.2517 5.308 31.2517 5.82C31.2517 6.332 31.3397 6.724 31.5157 6.996C31.6917 7.268 31.9517 7.404 32.2957 7.404ZM39.0784 6.828V9H36.6184V6.828H39.0784Z"/>
<path d="M44.365 0.48H46.837V9H44.425L44.389 8.076C44.205 8.42 43.953 8.684 43.633 8.868C43.321 9.052 42.953 9.144 42.529 9.144C41.977 9.144 41.497 9.004 41.089 8.724C40.681 8.444 40.369 8.056 40.153 7.56C39.945 7.056 39.841 6.476 39.841 5.82C39.841 5.164 39.945 4.588 40.153 4.092C40.369 3.588 40.681 3.196 41.089 2.916C41.497 2.636 41.977 2.496 42.529 2.496C42.929 2.496 43.285 2.588 43.597 2.772C43.909 2.956 44.165 3.22 44.365 3.564V0.48ZM44.341 6.636C44.429 6.396 44.473 6.124 44.473 5.82C44.473 5.5 44.429 5.22 44.341 4.98C44.261 4.74 44.141 4.552 43.981 4.416C43.821 4.28 43.633 4.212 43.417 4.212C43.081 4.212 42.817 4.36 42.625 4.656C42.441 4.944 42.349 5.332 42.349 5.82C42.349 6.284 42.445 6.668 42.637 6.972C42.837 7.268 43.097 7.416 43.417 7.416C43.641 7.416 43.829 7.348 43.981 7.212C44.141 7.068 44.261 6.876 44.341 6.636ZM47.7986 5.82C47.7986 5.164 47.9426 4.584 48.2306 4.08C48.5266 3.576 48.9426 3.188 49.4786 2.916C50.0146 2.636 50.6386 2.496 51.3506 2.496C52.0386 2.496 52.6466 2.652 53.1746 2.964C53.7026 3.268 54.1066 3.7 54.3866 4.26C54.6666 4.82 54.7906 5.464 54.7586 6.192L54.7466 6.42H50.3666C50.3746 6.748 50.4666 7.012 50.6426 7.212C50.8186 7.404 51.0546 7.5 51.3506 7.5C51.5506 7.5 51.7306 7.448 51.8906 7.344C52.0586 7.232 52.1746 7.092 52.2386 6.924L54.6746 7.092C54.4746 7.724 54.0746 8.224 53.4746 8.592C52.8826 8.96 52.1746 9.144 51.3506 9.144C50.6386 9.144 50.0146 9.008 49.4786 8.736C48.9426 8.456 48.5266 8.064 48.2306 7.56C47.9426 7.056 47.7986 6.476 47.7986 5.82ZM52.3106 5.16C52.2946 4.84 52.1986 4.592 52.0226 4.416C51.8466 4.232 51.6226 4.14 51.3506 4.14C51.0626 4.14 50.8306 4.232 50.6546 4.416C50.4786 4.6 50.3826 4.848 50.3666 5.16H52.3106ZM59.8014 9H57.4134L55.0134 2.64H57.3294L58.6134 6.564L59.8854 2.64H62.2014L59.8014 9Z"/>
<path d="M65.6678 -7.15256e-07H68.1758L64.6238 10.32H62.1278L65.6678 -7.15256e-07ZM74.4953 4.332V6.576L68.9393 8.82V6.792L73.7393 4.86V6.048L68.9393 4.116V2.088L74.4953 4.332Z"/>
</mask>
<path d="M0.384 4.332L5.94 2.088V4.116L1.14 6.048V4.86L5.94 6.792V8.82L0.384 6.576V4.332ZM10.2761 1.188V6.6C10.2761 6.808 10.3321 6.972 10.4441 7.092C10.5641 7.212 10.7241 7.272 10.9241 7.272H11.9681V9H10.2281C9.41213 9 8.80413 8.804 8.40413 8.412C8.00413 8.02 7.80413 7.416 7.80413 6.6V1.188H10.2761ZM11.9201 2.64V4.344H6.67613V2.64H11.9201ZM17.2144 9L17.1064 6.936L17.4304 6.96C17.3584 7.752 17.1384 8.316 16.7704 8.652C16.4024 8.98 15.9184 9.144 15.3184 9.144C14.6384 9.144 14.0984 8.936 13.6984 8.52C13.2984 8.104 13.0984 7.508 13.0984 6.732V2.64H15.5704V5.868C15.5704 6.22 15.5864 6.488 15.6184 6.672C15.6504 6.856 15.7104 7 15.7984 7.104C15.8944 7.208 16.0384 7.26 16.2304 7.26C16.4944 7.26 16.6824 7.148 16.7944 6.924C16.9064 6.7 16.9624 6.348 16.9624 5.868V2.64H19.4344V9H17.2144ZM23.4219 0.48V6.684C23.4219 6.868 23.4699 7.012 23.5659 7.116C23.6699 7.22 23.8139 7.272 23.9979 7.272H24.3699V9H23.1699C22.4819 9 21.9379 8.812 21.5379 8.436C21.1459 8.052 20.9499 7.5 20.9499 6.78V0.48H23.4219ZM27.788 2.64V9H25.316V2.64H27.788ZM27.824 0.48V1.956H25.28V0.48H27.824ZM32.2957 9.144C31.5837 9.144 30.9557 9.008 30.4117 8.736C29.8757 8.456 29.4597 8.064 29.1637 7.56C28.8757 7.056 28.7317 6.476 28.7317 5.82C28.7317 5.164 28.8757 4.584 29.1637 4.08C29.4597 3.576 29.8757 3.188 30.4117 2.916C30.9557 2.636 31.5837 2.496 32.2957 2.496C32.9997 2.496 33.6197 2.636 34.1557 2.916C34.6997 3.188 35.1157 3.576 35.4037 4.08C35.6997 4.584 35.8477 5.164 35.8477 5.82C35.8477 6.476 35.6997 7.056 35.4037 7.56C35.1157 8.064 34.6997 8.456 34.1557 8.736C33.6197 9.008 32.9997 9.144 32.2957 9.144ZM32.2957 7.404C32.6317 7.404 32.8877 7.268 33.0637 6.996C33.2397 6.724 33.3277 6.332 33.3277 5.82C33.3277 5.308 33.2397 4.916 33.0637 4.644C32.8877 4.372 32.6317 4.236 32.2957 4.236C31.9517 4.236 31.6917 4.372 31.5157 4.644C31.3397 4.916 31.2517 5.308 31.2517 5.82C31.2517 6.332 31.3397 6.724 31.5157 6.996C31.6917 7.268 31.9517 7.404 32.2957 7.404ZM39.0784 6.828V9H36.6184V6.828H39.0784Z" fill="#3F3B3B"/>
<path d="M0.384 4.332L5.94 2.088V4.116L1.14 6.048V4.86L5.94 6.792V8.82L0.384 6.576V4.332ZM10.2761 1.188V6.6C10.2761 6.808 10.3321 6.972 10.4441 7.092C10.5641 7.212 10.7241 7.272 10.9241 7.272H11.9681V9H10.2281C9.41213 9 8.80413 8.804 8.40413 8.412C8.00413 8.02 7.80413 7.416 7.80413 6.6V1.188H10.2761ZM11.9201 2.64V4.344H6.67613V2.64H11.9201ZM17.2144 9L17.1064 6.936L17.4304 6.96C17.3584 7.752 17.1384 8.316 16.7704 8.652C16.4024 8.98 15.9184 9.144 15.3184 9.144C14.6384 9.144 14.0984 8.936 13.6984 8.52C13.2984 8.104 13.0984 7.508 13.0984 6.732V2.64H15.5704V5.868C15.5704 6.22 15.5864 6.488 15.6184 6.672C15.6504 6.856 15.7104 7 15.7984 7.104C15.8944 7.208 16.0384 7.26 16.2304 7.26C16.4944 7.26 16.6824 7.148 16.7944 6.924C16.9064 6.7 16.9624 6.348 16.9624 5.868V2.64H19.4344V9H17.2144ZM23.4219 0.48V6.684C23.4219 6.868 23.4699 7.012 23.5659 7.116C23.6699 7.22 23.8139 7.272 23.9979 7.272H24.3699V9H23.1699C22.4819 9 21.9379 8.812 21.5379 8.436C21.1459 8.052 20.9499 7.5 20.9499 6.78V0.48H23.4219ZM27.788 2.64V9H25.316V2.64H27.788ZM27.824 0.48V1.956H25.28V0.48H27.824ZM32.2957 9.144C31.5837 9.144 30.9557 9.008 30.4117 8.736C29.8757 8.456 29.4597 8.064 29.1637 7.56C28.8757 7.056 28.7317 6.476 28.7317 5.82C28.7317 5.164 28.8757 4.584 29.1637 4.08C29.4597 3.576 29.8757 3.188 30.4117 2.916C30.9557 2.636 31.5837 2.496 32.2957 2.496C32.9997 2.496 33.6197 2.636 34.1557 2.916C34.6997 3.188 35.1157 3.576 35.4037 4.08C35.6997 4.584 35.8477 5.164 35.8477 5.82C35.8477 6.476 35.6997 7.056 35.4037 7.56C35.1157 8.064 34.6997 8.456 34.1557 8.736C33.6197 9.008 32.9997 9.144 32.2957 9.144ZM32.2957 7.404C32.6317 7.404 32.8877 7.268 33.0637 6.996C33.2397 6.724 33.3277 6.332 33.3277 5.82C33.3277 5.308 33.2397 4.916 33.0637 4.644C32.8877 4.372 32.6317 4.236 32.2957 4.236C31.9517 4.236 31.6917 4.372 31.5157 4.644C31.3397 4.916 31.2517 5.308 31.2517 5.82C31.2517 6.332 31.3397 6.724 31.5157 6.996C31.6917 7.268 31.9517 7.404 32.2957 7.404ZM39.0784 6.828V9H36.6184V6.828H39.0784Z" fill="black" fill-opacity="0.2"/>
<path d="M44.365 0.48H46.837V9H44.425L44.389 8.076C44.205 8.42 43.953 8.684 43.633 8.868C43.321 9.052 42.953 9.144 42.529 9.144C41.977 9.144 41.497 9.004 41.089 8.724C40.681 8.444 40.369 8.056 40.153 7.56C39.945 7.056 39.841 6.476 39.841 5.82C39.841 5.164 39.945 4.588 40.153 4.092C40.369 3.588 40.681 3.196 41.089 2.916C41.497 2.636 41.977 2.496 42.529 2.496C42.929 2.496 43.285 2.588 43.597 2.772C43.909 2.956 44.165 3.22 44.365 3.564V0.48ZM44.341 6.636C44.429 6.396 44.473 6.124 44.473 5.82C44.473 5.5 44.429 5.22 44.341 4.98C44.261 4.74 44.141 4.552 43.981 4.416C43.821 4.28 43.633 4.212 43.417 4.212C43.081 4.212 42.817 4.36 42.625 4.656C42.441 4.944 42.349 5.332 42.349 5.82C42.349 6.284 42.445 6.668 42.637 6.972C42.837 7.268 43.097 7.416 43.417 7.416C43.641 7.416 43.829 7.348 43.981 7.212C44.141 7.068 44.261 6.876 44.341 6.636ZM47.7986 5.82C47.7986 5.164 47.9426 4.584 48.2306 4.08C48.5266 3.576 48.9426 3.188 49.4786 2.916C50.0146 2.636 50.6386 2.496 51.3506 2.496C52.0386 2.496 52.6466 2.652 53.1746 2.964C53.7026 3.268 54.1066 3.7 54.3866 4.26C54.6666 4.82 54.7906 5.464 54.7586 6.192L54.7466 6.42H50.3666C50.3746 6.748 50.4666 7.012 50.6426 7.212C50.8186 7.404 51.0546 7.5 51.3506 7.5C51.5506 7.5 51.7306 7.448 51.8906 7.344C52.0586 7.232 52.1746 7.092 52.2386 6.924L54.6746 7.092C54.4746 7.724 54.0746 8.224 53.4746 8.592C52.8826 8.96 52.1746 9.144 51.3506 9.144C50.6386 9.144 50.0146 9.008 49.4786 8.736C48.9426 8.456 48.5266 8.064 48.2306 7.56C47.9426 7.056 47.7986 6.476 47.7986 5.82ZM52.3106 5.16C52.2946 4.84 52.1986 4.592 52.0226 4.416C51.8466 4.232 51.6226 4.14 51.3506 4.14C51.0626 4.14 50.8306 4.232 50.6546 4.416C50.4786 4.6 50.3826 4.848 50.3666 5.16H52.3106ZM59.8014 9H57.4134L55.0134 2.64H57.3294L58.6134 6.564L59.8854 2.64H62.2014L59.8014 9Z" fill="#707070"/>
<path d="M65.6678 -7.15256e-07H68.1758L64.6238 10.32H62.1278L65.6678 -7.15256e-07ZM74.4953 4.332V6.576L68.9393 8.82V6.792L73.7393 4.86V6.048L68.9393 4.116V2.088L74.4953 4.332Z" fill="black"/>
<path d="M65.6678 -7.15256e-07H68.1758L64.6238 10.32H62.1278L65.6678 -7.15256e-07ZM74.4953 4.332V6.576L68.9393 8.82V6.792L73.7393 4.86V6.048L68.9393 4.116V2.088L74.4953 4.332Z" fill="#C2FF38"/>
<path d="M0.384 4.332L0.00950387 3.40477L-0.616 3.6574V4.332H0.384ZM5.94 2.088H6.94V0.605629L5.5655 1.16077L5.94 2.088ZM5.94 4.116L6.31339 5.04367L6.94 4.79146V4.116H5.94ZM1.14 6.048H0.14V7.52846L1.51339 6.97567L1.14 6.048ZM1.14 4.86L1.51339 3.93232L0.14 3.37954V4.86H1.14ZM5.94 6.792H6.94V6.11654L6.31339 5.86432L5.94 6.792ZM5.94 8.82L5.5655 9.74723L6.94 10.3024V8.82H5.94ZM0.384 6.576H-0.616V7.2506L0.00950387 7.50323L0.384 6.576ZM0.758496 5.25923L6.3145 3.01523L5.5655 1.16077L0.00950387 3.40477L0.758496 5.25923ZM4.94 2.088V4.116H6.94V2.088H4.94ZM5.56661 3.18832L0.766611 5.12033L1.51339 6.97567L6.31339 5.04367L5.56661 3.18832ZM2.14 6.048V4.86H0.14V6.048H2.14ZM0.766611 5.78767L5.56661 7.71968L6.31339 5.86432L1.51339 3.93232L0.766611 5.78767ZM4.94 6.792V8.82H6.94V6.792H4.94ZM6.3145 7.89277L0.758496 5.64877L0.00950387 7.50323L5.5655 9.74723L6.3145 7.89277ZM1.384 6.576V4.332H-0.616V6.576H1.384ZM10.2761 1.188H11.2761V0.188H10.2761V1.188ZM10.4441 7.092L9.71307 7.77432L9.72483 7.78692L9.73702 7.79911L10.4441 7.092ZM11.9681 7.272H12.9681V6.272H11.9681V7.272ZM11.9681 9V10H12.9681V9H11.9681ZM8.40413 8.412L9.10405 7.69779L8.40413 8.412ZM7.80412 1.188V0.188H6.80412V1.188H7.80412ZM11.9201 2.64H12.9201V1.64H11.9201V2.64ZM11.9201 4.344V5.344H12.9201V4.344H11.9201ZM6.67613 4.344H5.67613V5.344H6.67613V4.344ZM6.67613 2.64V1.64H5.67613V2.64H6.67613ZM9.27612 1.188V6.6H11.2761V1.188H9.27612ZM9.27612 6.6C9.27612 6.99088 9.38554 7.4234 9.71307 7.77432L11.1752 6.40968C11.2208 6.45858 11.2495 6.51187 11.2645 6.55586C11.2783 6.59634 11.2761 6.61542 11.2761 6.6H9.27612ZM9.73702 7.79911C10.0778 8.13984 10.5099 8.272 10.9241 8.272V6.272C10.924 6.272 10.9556 6.27206 11.0052 6.29067C11.058 6.31044 11.1096 6.34323 11.1512 6.38489L9.73702 7.79911ZM10.9241 8.272H11.9681V6.272H10.9241V8.272ZM10.9681 7.272V9H12.9681V7.272H10.9681ZM11.9681 8H10.2281V10H11.9681V8ZM10.2281 8C9.55466 8 9.24647 7.83736 9.10405 7.69779L7.7042 9.12621C8.36178 9.77064 9.2696 10 10.2281 10V8ZM9.10405 7.69779C8.96898 7.56541 8.80412 7.27042 8.80412 6.6H6.80412C6.80412 7.56158 7.03927 8.47459 7.7042 9.12621L9.10405 7.69779ZM8.80412 6.6V1.188H6.80412V6.6H8.80412ZM7.80412 2.188H10.2761V0.188H7.80412V2.188ZM10.9201 2.64V4.344H12.9201V2.64H10.9201ZM11.9201 3.344H6.67613V5.344H11.9201V3.344ZM7.67613 4.344V2.64H5.67613V4.344H7.67613ZM6.67613 3.64H11.9201V1.64H6.67613V3.64ZM17.2144 9L16.2157 9.05225L16.2653 10H17.2144V9ZM17.1064 6.936L17.1802 5.93873L16.0484 5.85489L16.1077 6.98825L17.1064 6.936ZM17.4304 6.96L18.4263 7.05054L18.5183 6.03785L17.5042 5.96273L17.4304 6.96ZM16.7704 8.652L17.4358 9.39857L17.4446 9.39049L16.7704 8.652ZM13.6984 8.52L14.4192 7.82689L13.6984 8.52ZM13.0984 2.64V1.64H12.0984V2.64H13.0984ZM15.5704 2.64H16.5704V1.64H15.5704V2.64ZM15.6184 6.672L14.6332 6.84334V6.84334L15.6184 6.672ZM15.7984 7.104L15.035 7.74994L15.0489 7.76642L15.0636 7.78228L15.7984 7.104ZM16.9624 2.64V1.64H15.9624V2.64H16.9624ZM19.4344 2.64H20.4344V1.64H19.4344V2.64ZM19.4344 9V10H20.4344V9H19.4344ZM18.213 8.94775L18.105 6.88375L16.1077 6.98825L16.2157 9.05225L18.213 8.94775ZM17.0325 7.93327L17.3565 7.95727L17.5042 5.96273L17.1802 5.93873L17.0325 7.93327ZM16.4345 6.86946C16.3723 7.55373 16.1968 7.82154 16.0961 7.91351L17.4446 9.39049C18.0799 8.81046 18.3445 7.95027 18.4263 7.05054L16.4345 6.86946ZM16.105 7.90549C15.958 8.03655 15.7288 8.144 15.3184 8.144V10.144C16.108 10.144 16.8468 9.92345 17.4357 9.39851L16.105 7.90549ZM15.3184 8.144C14.8579 8.144 14.5971 8.01192 14.4192 7.82689L12.9775 9.21311C13.5996 9.86008 14.4189 10.144 15.3184 10.144V8.144ZM14.4192 7.82689C14.2529 7.65391 14.0984 7.34076 14.0984 6.732H12.0984C12.0984 7.67524 12.3439 8.55409 12.9775 9.21311L14.4192 7.82689ZM14.0984 6.732V2.64H12.0984V6.732H14.0984ZM13.0984 3.64H15.5704V1.64H13.0984V3.64ZM14.5704 2.64V5.868H16.5704V2.64H14.5704ZM14.5704 5.868C14.5704 6.23659 14.5862 6.57322 14.6332 6.84334L16.6036 6.50066C16.5866 6.40278 16.5704 6.20341 16.5704 5.868H14.5704ZM14.6332 6.84334C14.6848 7.14019 14.7973 7.46902 15.035 7.74994L16.5618 6.45806C16.5929 6.49488 16.6066 6.52409 16.6105 6.53338C16.614 6.54181 16.6093 6.53333 16.6036 6.50066L14.6332 6.84334ZM15.0636 7.78228C15.4092 8.15672 15.8628 8.26 16.2304 8.26V6.26C16.222 6.26 16.2574 6.25856 16.318 6.28045C16.3843 6.30436 16.4637 6.3504 16.5332 6.42572L15.0636 7.78228ZM16.2304 8.26C16.5053 8.26 16.8032 8.20069 17.0812 8.0351C17.3622 7.86767 17.5599 7.62894 17.6888 7.37121L15.8999 6.47679C15.9168 6.44306 15.9645 6.37233 16.0576 6.3169C16.1475 6.26331 16.2195 6.26 16.2304 6.26V8.26ZM17.6888 7.37121C17.9084 6.93192 17.9624 6.38598 17.9624 5.868H15.9624C15.9624 6.07216 15.9503 6.22513 15.9328 6.33488C15.9146 6.44898 15.8954 6.4858 15.8999 6.47679L17.6888 7.37121ZM17.9624 5.868V2.64H15.9624V5.868H17.9624ZM16.9624 3.64H19.4344V1.64H16.9624V3.64ZM18.4344 2.64V9H20.4344V2.64H18.4344ZM19.4344 8H17.2144V10H19.4344V8ZM23.4219 0.48H24.4219V-0.52H23.4219V0.48ZM23.5659 7.116L22.8311 7.79428L22.8447 7.80897L22.8588 7.82311L23.5659 7.116ZM24.3699 7.272H25.3699V6.272H24.3699V7.272ZM24.3699 9V10H25.3699V9H24.3699ZM21.5379 8.436L20.8382 9.15036L20.8455 9.15757L20.853 9.16463L21.5379 8.436ZM20.9499 0.48V-0.52H19.9499V0.48H20.9499ZM22.4219 0.48V6.684H24.4219V0.48H22.4219ZM22.4219 6.684C22.4219 7.04171 22.5184 7.45547 22.8311 7.79428L24.3007 6.43772C24.3557 6.49728 24.3891 6.56119 24.4066 6.61377C24.4229 6.66273 24.4219 6.69055 24.4219 6.684H22.4219ZM22.8588 7.82311C23.1948 8.15911 23.619 8.272 23.9979 8.272V6.272C23.999 6.272 24.0352 6.27208 24.0916 6.29245C24.1519 6.31423 24.2169 6.35276 24.273 6.40889L22.8588 7.82311ZM23.9979 8.272H24.3699V6.272H23.9979V8.272ZM23.3699 7.272V9H25.3699V7.272H23.3699ZM24.3699 8H23.1699V10H24.3699V8ZM23.1699 8C22.6691 8 22.3935 7.86781 22.2228 7.70737L20.853 9.16463C21.4824 9.75619 22.2948 10 23.1699 10V8ZM22.2377 7.72164C22.0923 7.57919 21.9499 7.31865 21.9499 6.78H19.9499C19.9499 7.68135 20.1996 8.52481 20.8382 9.15036L22.2377 7.72164ZM21.9499 6.78V0.48H19.9499V6.78H21.9499ZM20.9499 1.48H23.4219V-0.52H20.9499V1.48ZM27.788 2.64H28.788V1.64H27.788V2.64ZM27.788 9V10H28.788V9H27.788ZM25.316 9H24.316V10H25.316V9ZM25.316 2.64V1.64H24.316V2.64H25.316ZM27.824 0.48H28.824V-0.52H27.824V0.48ZM27.824 1.956V2.956H28.824V1.956H27.824ZM25.28 1.956H24.28V2.956H25.28V1.956ZM25.28 0.48V-0.52H24.28V0.48H25.28ZM26.788 2.64V9H28.788V2.64H26.788ZM27.788 8H25.316V10H27.788V8ZM26.316 9V2.64H24.316V9H26.316ZM25.316 3.64H27.788V1.64H25.316V3.64ZM26.824 0.48V1.956H28.824V0.48H26.824ZM27.824 0.956H25.28V2.956H27.824V0.956ZM26.28 1.956V0.48H24.28V1.956H26.28ZM25.28 1.48H27.824V-0.52H25.28V1.48ZM30.4117 8.736L29.9486 9.62235L29.9565 9.62646L29.9644 9.63043L30.4117 8.736ZM29.1637 7.56L28.2954 8.05617L28.3014 8.06642L29.1637 7.56ZM29.1637 4.08L28.3013 3.57354L28.2954 3.58386L29.1637 4.08ZM30.4117 2.916L30.8642 3.80776L30.8693 3.80514L30.4117 2.916ZM34.1557 2.916L33.6926 3.80235L33.7005 3.80646L33.7084 3.81043L34.1557 2.916ZM35.4037 4.08L34.5354 4.57617L34.5414 4.58642L35.4037 4.08ZM35.4037 7.56L34.5413 7.05354L34.5354 7.06386L35.4037 7.56ZM34.1557 8.736L34.6082 9.62776L34.6133 9.62514L34.1557 8.736ZM33.0637 6.996L32.2241 6.45275V6.45275L33.0637 6.996ZM33.0637 4.644L32.2241 5.18725V5.18725L33.0637 4.644ZM31.5157 4.644L30.6761 4.10075L31.5157 4.644ZM31.5157 6.996L30.6761 7.53925L31.5157 6.996ZM32.2957 8.144C31.7125 8.144 31.2422 8.03322 30.8589 7.84157L29.9644 9.63043C30.6691 9.98278 31.4548 10.144 32.2957 10.144V8.144ZM30.8747 7.84965C30.4987 7.65323 30.2237 7.39025 30.0259 7.05358L28.3014 8.06642C28.6956 8.73775 29.2526 9.25877 29.9486 9.62235L30.8747 7.84965ZM30.0319 7.06386C29.841 6.72979 29.7317 6.32503 29.7317 5.82H27.7317C27.7317 6.62697 27.9103 7.38221 28.2954 8.05614L30.0319 7.06386ZM29.7317 5.82C29.7317 5.31497 29.841 4.91021 30.0319 4.57614L28.2954 3.58386C27.9103 4.25779 27.7317 5.01303 27.7317 5.82H29.7317ZM30.0259 4.58642C30.2222 4.2523 30.4937 3.99575 30.8642 3.80775L29.9591 2.02425C29.2576 2.38025 28.6971 2.8997 28.3014 3.57358L30.0259 4.58642ZM30.8693 3.80514C31.2502 3.60906 31.7168 3.496 32.2957 3.496V1.496C31.4506 1.496 30.6611 1.66294 29.954 2.02686L30.8693 3.80514ZM32.2957 3.496C32.8649 3.496 33.3214 3.60839 33.6926 3.80235L34.6187 2.02965C33.918 1.66361 33.1344 1.496 32.2957 1.496V3.496ZM33.7084 3.81043C34.0848 3.99859 34.3502 4.25199 34.5354 4.57614L36.2719 3.58386C35.8811 2.90001 35.3145 2.37741 34.6029 2.02157L33.7084 3.81043ZM34.5414 4.58642C34.7365 4.91875 34.8477 5.31978 34.8477 5.82H36.8477C36.8477 5.00822 36.6628 4.24925 36.2659 3.57358L34.5414 4.58642ZM34.8477 5.82C34.8477 6.32022 34.7365 6.72125 34.5414 7.05358L36.2659 8.06642C36.6628 7.39075 36.8477 6.63178 36.8477 5.82H34.8477ZM34.5354 7.06386C34.3487 7.39062 34.0798 7.65037 33.698 7.84686L34.6133 9.62514C35.3195 9.26163 35.8826 8.73738 36.2719 8.05614L34.5354 7.06386ZM33.7031 7.84425C33.3295 8.03385 32.8693 8.144 32.2957 8.144V10.144C33.13 10.144 33.9098 9.98215 34.6082 9.62775L33.7031 7.84425ZM32.2957 8.404C32.9557 8.404 33.5349 8.10856 33.9032 7.53925L32.2241 6.45275C32.2197 6.4596 32.2209 6.4561 32.23 6.44749C32.2396 6.43849 32.2534 6.42798 32.2705 6.41888C32.2875 6.40985 32.3014 6.40557 32.3088 6.40389C32.3155 6.40234 32.3122 6.404 32.2957 6.404V8.404ZM33.9032 7.53925C34.2284 7.03675 34.3277 6.42227 34.3277 5.82H32.3277C32.3277 6.24173 32.2509 6.41125 32.2241 6.45275L33.9032 7.53925ZM34.3277 5.82C34.3277 5.21773 34.2284 4.60325 33.9032 4.10075L32.2241 5.18725C32.2509 5.22875 32.3277 5.39827 32.3277 5.82H34.3277ZM33.9032 4.10075C33.5349 3.53144 32.9557 3.236 32.2957 3.236V5.236C32.3122 5.236 32.3155 5.23766 32.3088 5.23611C32.3014 5.23443 32.2875 5.23015 32.2705 5.22112C32.2534 5.21202 32.2396 5.20151 32.23 5.19251C32.2209 5.1839 32.2197 5.1804 32.2241 5.18725L33.9032 4.10075ZM32.2957 3.236C31.6376 3.236 31.0496 3.52349 30.6761 4.10075L32.3552 5.18725C32.3587 5.18193 32.3565 5.18646 32.3467 5.19566C32.3365 5.20523 32.3225 5.21554 32.3062 5.2241C32.29 5.23255 32.2777 5.23603 32.2731 5.23707C32.269 5.23799 32.2755 5.236 32.2957 5.236V3.236ZM30.6761 4.10075C30.3509 4.60325 30.2517 5.21773 30.2517 5.82H32.2517C32.2517 5.39827 32.3284 5.22875 32.3552 5.18725L30.6761 4.10075ZM30.2517 5.82C30.2517 6.42227 30.3509 7.03675 30.6761 7.53925L32.3552 6.45275C32.3284 6.41125 32.2517 6.24173 32.2517 5.82H30.2517ZM30.6761 7.53925C31.0496 8.11651 31.6376 8.404 32.2957 8.404V6.404C32.2755 6.404 32.269 6.40201 32.2731 6.40292C32.2777 6.40397 32.29 6.40745 32.3062 6.4159C32.3225 6.42446 32.3365 6.43477 32.3467 6.44434C32.3565 6.45354 32.3587 6.45807 32.3552 6.45275L30.6761 7.53925ZM39.0784 6.828H40.0784V5.828H39.0784V6.828ZM39.0784 9V10H40.0784V9H39.0784ZM36.6184 9H35.6184V10H36.6184V9ZM36.6184 6.828V5.828H35.6184V6.828H36.6184ZM38.0784 6.828V9H40.0784V6.828H38.0784ZM39.0784 8H36.6184V10H39.0784V8ZM37.6184 9V6.828H35.6184V9H37.6184ZM36.6184 7.828H39.0784V5.828H36.6184V7.828ZM44.365 0.48V-0.52H43.365V0.48H44.365ZM46.837 0.48H47.837V-0.52H46.837V0.48ZM46.837 9V10H47.837V9H46.837ZM44.425 9L43.4258 9.03893L43.4632 10H44.425V9ZM44.389 8.076L45.3883 8.03707L45.2448 4.35579L43.5072 7.60435L44.389 8.076ZM43.633 8.868L43.1345 8.00104L43.125 8.00663L43.633 8.868ZM41.089 8.724L41.6549 7.89949L41.089 8.724ZM40.153 7.56L39.2287 7.94149L39.2323 7.95041L39.2362 7.95927L40.153 7.56ZM40.153 4.092L39.2339 3.69807L39.2308 3.70527L40.153 4.092ZM41.089 2.916L41.6549 3.74051L41.089 2.916ZM43.597 2.772L44.105 1.91063L44.105 1.91063L43.597 2.772ZM44.365 3.564L43.5005 4.06662L45.365 7.27357V3.564H44.365ZM44.341 6.636L43.4022 6.29175L43.397 6.30569L43.3923 6.31977L44.341 6.636ZM44.341 4.98L43.3923 5.29623L43.397 5.31031L43.4022 5.32425L44.341 4.98ZM43.981 4.416L44.6287 3.65406L43.981 4.416ZM42.625 4.656L41.786 4.1118L41.7823 4.11761L42.625 4.656ZM42.637 6.972L41.7915 7.50599L41.7998 7.51906L41.8084 7.53186L42.637 6.972ZM43.981 7.212L44.6478 7.95724L44.65 7.95529L43.981 7.212ZM44.365 1.48H46.837V-0.52H44.365V1.48ZM45.837 0.48V9H47.837V0.48H45.837ZM46.837 8H44.425V10H46.837V8ZM45.4243 8.96107L45.3883 8.03707L43.3898 8.11493L43.4258 9.03893L45.4243 8.96107ZM43.5072 7.60435C43.4063 7.79314 43.2829 7.91578 43.1346 8.00109L44.1315 9.73491C44.6231 9.45222 45.0038 9.04686 45.2708 8.54765L43.5072 7.60435ZM43.125 8.00663C42.9915 8.08541 42.8052 8.144 42.529 8.144V10.144C43.1009 10.144 43.6506 10.0186 44.141 9.72937L43.125 8.00663ZM42.529 8.144C42.1548 8.144 41.8774 8.05217 41.6549 7.89949L40.5232 9.54851C41.1167 9.95583 41.7993 10.144 42.529 10.144V8.144ZM41.6549 7.89949C41.4157 7.73535 41.2183 7.5015 41.0699 7.16073L39.2362 7.95927C39.5198 8.61049 39.9464 9.15265 40.5232 9.54851L41.6549 7.89949ZM41.0774 7.17851C40.9284 6.81741 40.841 6.3711 40.841 5.82H38.841C38.841 6.5809 38.9617 7.29459 39.2287 7.94149L41.0774 7.17851ZM40.841 5.82C40.841 5.26838 40.9285 4.82853 41.0752 4.47873L39.2308 3.70527C38.9615 4.34747 38.841 5.05962 38.841 5.82H40.841ZM41.0722 4.48592C41.2219 4.13655 41.4196 3.90196 41.6549 3.74051L40.5232 2.09149C39.9424 2.49004 39.5162 3.03945 39.2339 3.69808L41.0722 4.48592ZM41.6549 3.74051C41.8774 3.58783 42.1548 3.496 42.529 3.496V1.496C41.7993 1.496 41.1167 1.68417 40.5232 2.09149L41.6549 3.74051ZM42.529 3.496C42.7695 3.496 42.9467 3.54939 43.089 3.63337L44.105 1.91063C43.6234 1.62661 43.0885 1.496 42.529 1.496V3.496ZM43.089 3.63336C43.2392 3.72192 43.378 3.85581 43.5005 4.06662L45.2295 3.06138C44.9521 2.58419 44.5789 2.19008 44.105 1.91063L43.089 3.63336ZM45.365 3.564V0.48H43.365V3.564H45.365ZM45.2799 6.98026C45.4152 6.61131 45.473 6.21977 45.473 5.82H43.473C43.473 6.02823 43.4429 6.18069 43.4022 6.29175L45.2799 6.98026ZM45.473 5.82C45.473 5.41094 45.4171 5.00985 45.2799 4.63575L43.4022 5.32425C43.441 5.43015 43.473 5.58906 43.473 5.82H45.473ZM45.2897 4.66377C45.1638 4.28612 44.9539 3.93051 44.6287 3.65406L43.3334 5.17794C43.3336 5.17811 43.3348 5.17912 43.3369 5.18161C43.3391 5.18416 43.343 5.18899 43.3481 5.19703C43.3584 5.21319 43.3749 5.24399 43.3923 5.29623L45.2897 4.66377ZM44.6287 3.65406C44.2823 3.35964 43.8629 3.212 43.417 3.212V5.212C43.4184 5.212 43.4034 5.21188 43.3799 5.20338C43.356 5.19472 43.3398 5.18337 43.3334 5.17794L44.6287 3.65406ZM43.417 3.212C42.7223 3.212 42.1514 3.54865 41.7861 4.11181L43.464 5.20019C43.4758 5.18203 43.4819 5.17647 43.4801 5.17822C43.4779 5.1804 43.4699 5.18752 43.456 5.19528C43.442 5.20313 43.4284 5.20809 43.418 5.21065C43.4082 5.21308 43.4068 5.212 43.417 5.212V3.212ZM41.7823 4.11761C41.4605 4.62129 41.349 5.21893 41.349 5.82H43.349C43.349 5.44507 43.4215 5.26671 43.4677 5.19439L41.7823 4.11761ZM41.349 5.82C41.349 6.4189 41.4731 7.00187 41.7915 7.50599L43.4825 6.43801C43.4169 6.33413 43.349 6.1491 43.349 5.82H41.349ZM41.8084 7.53186C42.169 8.06555 42.722 8.416 43.417 8.416V6.416C43.4147 6.416 43.4219 6.41581 43.4355 6.4193C43.4496 6.42288 43.464 6.42872 43.4767 6.43594C43.4891 6.44297 43.4943 6.44819 43.4928 6.44674C43.4909 6.44491 43.4811 6.43504 43.4656 6.41214L41.8084 7.53186ZM43.417 8.416C43.8609 8.416 44.2939 8.27392 44.6478 7.95724L43.3142 6.46676C43.3317 6.45117 43.3571 6.43505 43.3859 6.42462C43.4133 6.41472 43.4269 6.416 43.417 6.416V8.416ZM44.65 7.95529C44.9595 7.67671 45.1646 7.32745 45.2897 6.95223L43.3923 6.31977C43.3574 6.42455 43.3225 6.45929 43.3121 6.46871L44.65 7.95529ZM48.2306 4.08L47.3683 3.57354L47.3624 3.58386L48.2306 4.08ZM49.4786 2.916L49.9312 3.80781L49.9416 3.80235L49.4786 2.916ZM53.1746 2.964L52.6659 3.82498L52.6757 3.83062L53.1746 2.964ZM54.3866 4.26L53.4922 4.70721V4.70721L54.3866 4.26ZM54.7586 6.192L55.7573 6.24456L55.7577 6.23591L54.7586 6.192ZM54.7466 6.42V7.42H55.6954L55.7452 6.47256L54.7466 6.42ZM50.3666 6.42V5.42H49.3419L49.3669 6.44438L50.3666 6.42ZM50.6426 7.212L49.8919 7.87263L49.8986 7.88025L49.9055 7.88772L50.6426 7.212ZM51.8906 7.344L52.4356 8.1825L52.4453 8.17605L51.8906 7.344ZM52.2386 6.924L52.3074 5.92637L51.568 5.87537L51.3041 6.568L52.2386 6.924ZM54.6746 7.092L55.628 7.39371L56.0115 6.18182L54.7434 6.09437L54.6746 7.092ZM53.4746 8.592L52.9518 7.73955L52.9467 7.74271L53.4746 8.592ZM49.4786 8.736L49.0156 9.62241L49.0261 9.62775L49.4786 8.736ZM48.2306 7.56L47.3623 8.05617L47.3683 8.06642L48.2306 7.56ZM52.3106 5.16V6.16H53.3619L53.3094 5.11006L52.3106 5.16ZM52.0226 4.416L51.3 5.10722L51.3077 5.11525L51.3155 5.12311L52.0226 4.416ZM50.6546 4.416L51.3773 5.10722V5.10722L50.6546 4.416ZM50.3666 5.16L49.3679 5.10879L49.314 6.16H50.3666V5.16ZM48.7986 5.82C48.7986 5.31497 48.908 4.91021 49.0989 4.57614L47.3624 3.58386C46.9773 4.25779 46.7986 5.01303 46.7986 5.82H48.7986ZM49.0929 4.58642C49.2891 4.2523 49.5607 3.99575 49.9312 3.80775L49.0261 2.02425C48.3246 2.38025 47.7641 2.8997 47.3683 3.57358L49.0929 4.58642ZM49.9416 3.80235C50.3114 3.6092 50.7713 3.496 51.3506 3.496V1.496C50.5059 1.496 49.7179 1.6628 49.0156 2.02965L49.9416 3.80235ZM51.3506 3.496C51.882 3.496 52.3101 3.61469 52.6659 3.82493L53.6834 2.10307C52.9831 1.68931 52.1953 1.496 51.3506 1.496V3.496ZM52.6757 3.83062C53.0286 4.03384 53.2974 4.31766 53.4922 4.70721L55.2811 3.81279C54.9158 3.08234 54.3766 2.50216 53.6736 2.09738L52.6757 3.83062ZM53.4922 4.70721C53.6845 5.09179 53.7854 5.56198 53.7596 6.14809L55.7577 6.23591C55.7959 5.36602 55.6488 4.54821 55.2811 3.81279L53.4922 4.70721ZM53.76 6.13944L53.748 6.36744L55.7452 6.47256L55.7572 6.24456L53.76 6.13944ZM54.7466 5.42H50.3666V7.42H54.7466V5.42ZM49.3669 6.44438C49.3793 6.9509 49.5273 7.4583 49.8919 7.87263L51.3933 6.55137C51.3932 6.55121 51.393 6.55101 51.3923 6.54985C51.3916 6.54859 51.3891 6.54413 51.3859 6.53492C51.3794 6.51631 51.3682 6.47335 51.3663 6.39562L49.3669 6.44438ZM49.9055 7.88772C50.2976 8.31555 50.8165 8.5 51.3506 8.5V6.5C51.3112 6.5 51.309 6.49382 51.3284 6.5017C51.3376 6.50545 51.3483 6.51104 51.3588 6.51839C51.3693 6.52571 51.3762 6.53242 51.3798 6.53628L49.9055 7.88772ZM51.3506 8.5C51.7343 8.5 52.1054 8.39709 52.4356 8.18244L51.3456 6.50556C51.3456 6.50558 51.346 6.50533 51.3468 6.50491C51.3475 6.50448 51.3486 6.50395 51.3499 6.50335C51.3526 6.50211 51.3554 6.50105 51.3581 6.50029C51.3607 6.49953 51.3619 6.4994 51.3613 6.49948C51.3606 6.49958 51.3572 6.5 51.3506 6.5V8.5ZM52.4453 8.17605C52.7641 7.96352 53.0261 7.66585 53.1731 7.27999L51.3041 6.568C51.3116 6.54845 51.3225 6.53037 51.3336 6.51698C51.344 6.50444 51.3479 6.50394 51.3359 6.51195L52.4453 8.17605ZM52.1698 7.92163L54.6058 8.08963L54.7434 6.09437L52.3074 5.92637L52.1698 7.92163ZM53.7212 6.79029C53.5985 7.17795 53.3605 7.48891 52.9518 7.73956L53.9975 9.44444C54.7888 8.95909 55.3507 8.27005 55.628 7.39371L53.7212 6.79029ZM52.9467 7.74271C52.54 7.9955 52.0224 8.144 51.3506 8.144V10.144C52.3268 10.144 53.2252 9.9245 54.0026 9.44129L52.9467 7.74271ZM51.3506 8.144C50.767 8.144 50.3033 8.03308 49.9312 7.84425L49.0261 9.62775C49.726 9.98292 50.5102 10.144 51.3506 10.144V8.144ZM49.9416 7.84965C49.5656 7.65323 49.2906 7.39025 49.0929 7.05358L47.3683 8.06642C47.7626 8.73775 48.3196 9.25877 49.0156 9.62235L49.9416 7.84965ZM49.0989 7.06386C48.908 6.72979 48.7986 6.32503 48.7986 5.82H46.7986C46.7986 6.62697 46.9773 7.38221 47.3624 8.05614L49.0989 7.06386ZM53.3094 5.11006C53.2847 4.61572 53.1268 4.10598 52.7297 3.70889L51.3155 5.12311C51.3082 5.11577 51.3022 5.10811 51.2979 5.10145C51.2938 5.09495 51.2929 5.09208 51.2941 5.09499C51.2966 5.10154 51.3081 5.13537 51.3119 5.20994L53.3094 5.11006ZM52.7453 3.72478C52.3667 3.32902 51.8748 3.14 51.3506 3.14V5.14C51.3622 5.14 51.3659 5.14097 51.3633 5.14048C51.3604 5.13995 51.353 5.13823 51.3427 5.13402C51.3323 5.12976 51.3223 5.12429 51.3137 5.11833C51.3052 5.11245 51.3007 5.10798 51.3 5.10722L52.7453 3.72478ZM51.3506 3.14C50.829 3.14 50.3222 3.31687 49.932 3.72478L51.3773 5.10722C51.3738 5.11081 51.3672 5.11692 51.3574 5.12353C51.3476 5.13019 51.3377 5.13522 51.3293 5.13858C51.3113 5.14569 51.3136 5.14 51.3506 5.14V3.14ZM49.932 3.72478C49.5549 4.11905 49.3933 4.61378 49.3679 5.10879L51.3653 5.21121C51.3688 5.14325 51.3796 5.11032 51.3832 5.10099C51.3858 5.09426 51.3843 5.09983 51.3773 5.10722L49.932 3.72478ZM50.3666 6.16H52.3106V4.16H50.3666V6.16ZM59.8014 9V10H60.4929L60.737 9.35306L59.8014 9ZM57.4134 9L56.4778 9.35306L56.722 10H57.4134V9ZM55.0134 2.64V1.64H53.5672L54.0778 2.99306L55.0134 2.64ZM57.3294 2.64L58.2799 2.32901L58.0544 1.64H57.3294V2.64ZM58.6134 6.564L57.663 6.87499L58.6179 9.79317L59.5647 6.87236L58.6134 6.564ZM59.8854 2.64V1.64H59.1584L58.9342 2.33164L59.8854 2.64ZM62.2014 2.64L63.137 2.99306L63.6476 1.64H62.2014V2.64ZM59.8014 8H57.4134V10H59.8014V8ZM58.349 8.64694L55.949 2.28694L54.0778 2.99306L56.4778 9.35306L58.349 8.64694ZM55.0134 3.64H57.3294V1.64H55.0134V3.64ZM56.379 2.95099L57.663 6.87499L59.5639 6.25301L58.2799 2.32901L56.379 2.95099ZM59.5647 6.87236L60.8367 2.94836L58.9342 2.33164L57.6622 6.25564L59.5647 6.87236ZM59.8854 3.64H62.2014V1.64H59.8854V3.64ZM61.2658 2.28694L58.8658 8.64694L60.737 9.35306L63.137 2.99306L61.2658 2.28694ZM65.6678 -7.15256e-07V-1H64.9537L64.7219 -0.324466L65.6678 -7.15256e-07ZM68.1758 -7.15256e-07L69.1214 0.325448L69.5776 -1H68.1758V-7.15256e-07ZM64.6238 10.32V11.32H65.3372L65.5694 10.6454L64.6238 10.32ZM62.1278 10.32L61.1819 9.99553L60.7276 11.32H62.1278V10.32ZM65.6678 0.999999H68.1758V-1H65.6678V0.999999ZM67.2303 -0.325449L63.6783 9.99455L65.5694 10.6454L69.1214 0.325448L67.2303 -0.325449ZM64.6238 9.32H62.1278V11.32H64.6238V9.32ZM63.0737 10.6445L66.6137 0.324464L64.7219 -0.324466L61.1819 9.99553L63.0737 10.6445ZM74.4952 4.332H75.4952V3.6574L74.8697 3.40477L74.4952 4.332ZM74.4952 6.576L74.8697 7.50323L75.4952 7.2506V6.576H74.4952ZM68.9392 8.82H67.9392V10.3024L69.3137 9.74723L68.9392 8.82ZM68.9392 6.792L68.5659 5.86432L67.9392 6.11654V6.792H68.9392ZM73.7393 4.86H74.7393V3.37954L73.3659 3.93232L73.7393 4.86ZM73.7393 6.048L73.3659 6.97567L74.7393 7.52846V6.048H73.7393ZM68.9392 4.116H67.9392V4.79146L68.5659 5.04367L68.9392 4.116ZM68.9392 2.088L69.3137 1.16077L67.9392 0.605629V2.088H68.9392ZM73.4952 4.332V6.576H75.4952V4.332H73.4952ZM74.1208 5.64877L68.5648 7.89277L69.3137 9.74723L74.8697 7.50323L74.1208 5.64877ZM69.9392 8.82V6.792H67.9392V8.82H69.9392ZM69.3126 7.71968L74.1126 5.78767L73.3659 3.93232L68.5659 5.86432L69.3126 7.71968ZM72.7393 4.86V6.048H74.7393V4.86H72.7393ZM74.1126 5.12033L69.3126 3.18832L68.5659 5.04367L73.3659 6.97567L74.1126 5.12033ZM69.9392 4.116V2.088H67.9392V4.116H69.9392ZM68.5648 3.01523L74.1208 5.25923L74.8697 3.40477L69.3137 1.16077L68.5648 3.01523Z" fill="#CDCDCD" mask="url(#path-1-outside-1_0_1)"/>
<path d="M0.384 4.332L0.00950387 3.40477L-0.616 3.6574V4.332H0.384ZM5.94 2.088H6.94V0.605629L5.5655 1.16077L5.94 2.088ZM5.94 4.116L6.31339 5.04367L6.94 4.79146V4.116H5.94ZM1.14 6.048H0.14V7.52846L1.51339 6.97567L1.14 6.048ZM1.14 4.86L1.51339 3.93232L0.14 3.37954V4.86H1.14ZM5.94 6.792H6.94V6.11654L6.31339 5.86432L5.94 6.792ZM5.94 8.82L5.5655 9.74723L6.94 10.3024V8.82H5.94ZM0.384 6.576H-0.616V7.2506L0.00950387 7.50323L0.384 6.576ZM0.758496 5.25923L6.3145 3.01523L5.5655 1.16077L0.00950387 3.40477L0.758496 5.25923ZM4.94 2.088V4.116H6.94V2.088H4.94ZM5.56661 3.18832L0.766611 5.12033L1.51339 6.97567L6.31339 5.04367L5.56661 3.18832ZM2.14 6.048V4.86H0.14V6.048H2.14ZM0.766611 5.78767L5.56661 7.71968L6.31339 5.86432L1.51339 3.93232L0.766611 5.78767ZM4.94 6.792V8.82H6.94V6.792H4.94ZM6.3145 7.89277L0.758496 5.64877L0.00950387 7.50323L5.5655 9.74723L6.3145 7.89277ZM1.384 6.576V4.332H-0.616V6.576H1.384ZM10.2761 1.188H11.2761V0.188H10.2761V1.188ZM10.4441 7.092L9.71307 7.77432L9.72483 7.78692L9.73702 7.79911L10.4441 7.092ZM11.9681 7.272H12.9681V6.272H11.9681V7.272ZM11.9681 9V10H12.9681V9H11.9681ZM8.40413 8.412L9.10405 7.69779L8.40413 8.412ZM7.80412 1.188V0.188H6.80412V1.188H7.80412ZM11.9201 2.64H12.9201V1.64H11.9201V2.64ZM11.9201 4.344V5.344H12.9201V4.344H11.9201ZM6.67613 4.344H5.67613V5.344H6.67613V4.344ZM6.67613 2.64V1.64H5.67613V2.64H6.67613ZM9.27612 1.188V6.6H11.2761V1.188H9.27612ZM9.27612 6.6C9.27612 6.99088 9.38554 7.4234 9.71307 7.77432L11.1752 6.40968C11.2208 6.45858 11.2495 6.51187 11.2645 6.55586C11.2783 6.59634 11.2761 6.61542 11.2761 6.6H9.27612ZM9.73702 7.79911C10.0778 8.13984 10.5099 8.272 10.9241 8.272V6.272C10.924 6.272 10.9556 6.27206 11.0052 6.29067C11.058 6.31044 11.1096 6.34323 11.1512 6.38489L9.73702 7.79911ZM10.9241 8.272H11.9681V6.272H10.9241V8.272ZM10.9681 7.272V9H12.9681V7.272H10.9681ZM11.9681 8H10.2281V10H11.9681V8ZM10.2281 8C9.55466 8 9.24647 7.83736 9.10405 7.69779L7.7042 9.12621C8.36178 9.77064 9.2696 10 10.2281 10V8ZM9.10405 7.69779C8.96898 7.56541 8.80412 7.27042 8.80412 6.6H6.80412C6.80412 7.56158 7.03927 8.47459 7.7042 9.12621L9.10405 7.69779ZM8.80412 6.6V1.188H6.80412V6.6H8.80412ZM7.80412 2.188H10.2761V0.188H7.80412V2.188ZM10.9201 2.64V4.344H12.9201V2.64H10.9201ZM11.9201 3.344H6.67613V5.344H11.9201V3.344ZM7.67613 4.344V2.64H5.67613V4.344H7.67613ZM6.67613 3.64H11.9201V1.64H6.67613V3.64ZM17.2144 9L16.2157 9.05225L16.2653 10H17.2144V9ZM17.1064 6.936L17.1802 5.93873L16.0484 5.85489L16.1077 6.98825L17.1064 6.936ZM17.4304 6.96L18.4263 7.05054L18.5183 6.03785L17.5042 5.96273L17.4304 6.96ZM16.7704 8.652L17.4358 9.39857L17.4446 9.39049L16.7704 8.652ZM13.6984 8.52L14.4192 7.82689L13.6984 8.52ZM13.0984 2.64V1.64H12.0984V2.64H13.0984ZM15.5704 2.64H16.5704V1.64H15.5704V2.64ZM15.6184 6.672L14.6332 6.84334V6.84334L15.6184 6.672ZM15.7984 7.104L15.035 7.74994L15.0489 7.76642L15.0636 7.78228L15.7984 7.104ZM16.9624 2.64V1.64H15.9624V2.64H16.9624ZM19.4344 2.64H20.4344V1.64H19.4344V2.64ZM19.4344 9V10H20.4344V9H19.4344ZM18.213 8.94775L18.105 6.88375L16.1077 6.98825L16.2157 9.05225L18.213 8.94775ZM17.0325 7.93327L17.3565 7.95727L17.5042 5.96273L17.1802 5.93873L17.0325 7.93327ZM16.4345 6.86946C16.3723 7.55373 16.1968 7.82154 16.0961 7.91351L17.4446 9.39049C18.0799 8.81046 18.3445 7.95027 18.4263 7.05054L16.4345 6.86946ZM16.105 7.90549C15.958 8.03655 15.7288 8.144 15.3184 8.144V10.144C16.108 10.144 16.8468 9.92345 17.4357 9.39851L16.105 7.90549ZM15.3184 8.144C14.8579 8.144 14.5971 8.01192 14.4192 7.82689L12.9775 9.21311C13.5996 9.86008 14.4189 10.144 15.3184 10.144V8.144ZM14.4192 7.82689C14.2529 7.65391 14.0984 7.34076 14.0984 6.732H12.0984C12.0984 7.67524 12.3439 8.55409 12.9775 9.21311L14.4192 7.82689ZM14.0984 6.732V2.64H12.0984V6.732H14.0984ZM13.0984 3.64H15.5704V1.64H13.0984V3.64ZM14.5704 2.64V5.868H16.5704V2.64H14.5704ZM14.5704 5.868C14.5704 6.23659 14.5862 6.57322 14.6332 6.84334L16.6036 6.50066C16.5866 6.40278 16.5704 6.20341 16.5704 5.868H14.5704ZM14.6332 6.84334C14.6848 7.14019 14.7973 7.46902 15.035 7.74994L16.5618 6.45806C16.5929 6.49488 16.6066 6.52409 16.6105 6.53338C16.614 6.54181 16.6093 6.53333 16.6036 6.50066L14.6332 6.84334ZM15.0636 7.78228C15.4092 8.15672 15.8628 8.26 16.2304 8.26V6.26C16.222 6.26 16.2574 6.25856 16.318 6.28045C16.3843 6.30436 16.4637 6.3504 16.5332 6.42572L15.0636 7.78228ZM16.2304 8.26C16.5053 8.26 16.8032 8.20069 17.0812 8.0351C17.3622 7.86767 17.5599 7.62894 17.6888 7.37121L15.8999 6.47679C15.9168 6.44306 15.9645 6.37233 16.0576 6.3169C16.1475 6.26331 16.2195 6.26 16.2304 6.26V8.26ZM17.6888 7.37121C17.9084 6.93192 17.9624 6.38598 17.9624 5.868H15.9624C15.9624 6.07216 15.9503 6.22513 15.9328 6.33488C15.9146 6.44898 15.8954 6.4858 15.8999 6.47679L17.6888 7.37121ZM17.9624 5.868V2.64H15.9624V5.868H17.9624ZM16.9624 3.64H19.4344V1.64H16.9624V3.64ZM18.4344 2.64V9H20.4344V2.64H18.4344ZM19.4344 8H17.2144V10H19.4344V8ZM23.4219 0.48H24.4219V-0.52H23.4219V0.48ZM23.5659 7.116L22.8311 7.79428L22.8447 7.80897L22.8588 7.82311L23.5659 7.116ZM24.3699 7.272H25.3699V6.272H24.3699V7.272ZM24.3699 9V10H25.3699V9H24.3699ZM21.5379 8.436L20.8382 9.15036L20.8455 9.15757L20.853 9.16463L21.5379 8.436ZM20.9499 0.48V-0.52H19.9499V0.48H20.9499ZM22.4219 0.48V6.684H24.4219V0.48H22.4219ZM22.4219 6.684C22.4219 7.04171 22.5184 7.45547 22.8311 7.79428L24.3007 6.43772C24.3557 6.49728 24.3891 6.56119 24.4066 6.61377C24.4229 6.66273 24.4219 6.69055 24.4219 6.684H22.4219ZM22.8588 7.82311C23.1948 8.15911 23.619 8.272 23.9979 8.272V6.272C23.999 6.272 24.0352 6.27208 24.0916 6.29245C24.1519 6.31423 24.2169 6.35276 24.273 6.40889L22.8588 7.82311ZM23.9979 8.272H24.3699V6.272H23.9979V8.272ZM23.3699 7.272V9H25.3699V7.272H23.3699ZM24.3699 8H23.1699V10H24.3699V8ZM23.1699 8C22.6691 8 22.3935 7.86781 22.2228 7.70737L20.853 9.16463C21.4824 9.75619 22.2948 10 23.1699 10V8ZM22.2377 7.72164C22.0923 7.57919 21.9499 7.31865 21.9499 6.78H19.9499C19.9499 7.68135 20.1996 8.52481 20.8382 9.15036L22.2377 7.72164ZM21.9499 6.78V0.48H19.9499V6.78H21.9499ZM20.9499 1.48H23.4219V-0.52H20.9499V1.48ZM27.788 2.64H28.788V1.64H27.788V2.64ZM27.788 9V10H28.788V9H27.788ZM25.316 9H24.316V10H25.316V9ZM25.316 2.64V1.64H24.316V2.64H25.316ZM27.824 0.48H28.824V-0.52H27.824V0.48ZM27.824 1.956V2.956H28.824V1.956H27.824ZM25.28 1.956H24.28V2.956H25.28V1.956ZM25.28 0.48V-0.52H24.28V0.48H25.28ZM26.788 2.64V9H28.788V2.64H26.788ZM27.788 8H25.316V10H27.788V8ZM26.316 9V2.64H24.316V9H26.316ZM25.316 3.64H27.788V1.64H25.316V3.64ZM26.824 0.48V1.956H28.824V0.48H26.824ZM27.824 0.956H25.28V2.956H27.824V0.956ZM26.28 1.956V0.48H24.28V1.956H26.28ZM25.28 1.48H27.824V-0.52H25.28V1.48ZM30.4117 8.736L29.9486 9.62235L29.9565 9.62646L29.9644 9.63043L30.4117 8.736ZM29.1637 7.56L28.2954 8.05617L28.3014 8.06642L29.1637 7.56ZM29.1637 4.08L28.3013 3.57354L28.2954 3.58386L29.1637 4.08ZM30.4117 2.916L30.8642 3.80776L30.8693 3.80514L30.4117 2.916ZM34.1557 2.916L33.6926 3.80235L33.7005 3.80646L33.7084 3.81043L34.1557 2.916ZM35.4037 4.08L34.5354 4.57617L34.5414 4.58642L35.4037 4.08ZM35.4037 7.56L34.5413 7.05354L34.5354 7.06386L35.4037 7.56ZM34.1557 8.736L34.6082 9.62776L34.6133 9.62514L34.1557 8.736ZM33.0637 6.996L32.2241 6.45275V6.45275L33.0637 6.996ZM33.0637 4.644L32.2241 5.18725V5.18725L33.0637 4.644ZM31.5157 4.644L30.6761 4.10075L31.5157 4.644ZM31.5157 6.996L30.6761 7.53925L31.5157 6.996ZM32.2957 8.144C31.7125 8.144 31.2422 8.03322 30.8589 7.84157L29.9644 9.63043C30.6691 9.98278 31.4548 10.144 32.2957 10.144V8.144ZM30.8747 7.84965C30.4987 7.65323 30.2237 7.39025 30.0259 7.05358L28.3014 8.06642C28.6956 8.73775 29.2526 9.25877 29.9486 9.62235L30.8747 7.84965ZM30.0319 7.06386C29.841 6.72979 29.7317 6.32503 29.7317 5.82H27.7317C27.7317 6.62697 27.9103 7.38221 28.2954 8.05614L30.0319 7.06386ZM29.7317 5.82C29.7317 5.31497 29.841 4.91021 30.0319 4.57614L28.2954 3.58386C27.9103 4.25779 27.7317 5.01303 27.7317 5.82H29.7317ZM30.0259 4.58642C30.2222 4.2523 30.4937 3.99575 30.8642 3.80775L29.9591 2.02425C29.2576 2.38025 28.6971 2.8997 28.3014 3.57358L30.0259 4.58642ZM30.8693 3.80514C31.2502 3.60906 31.7168 3.496 32.2957 3.496V1.496C31.4506 1.496 30.6611 1.66294 29.954 2.02686L30.8693 3.80514ZM32.2957 3.496C32.8649 3.496 33.3214 3.60839 33.6926 3.80235L34.6187 2.02965C33.918 1.66361 33.1344 1.496 32.2957 1.496V3.496ZM33.7084 3.81043C34.0848 3.99859 34.3502 4.25199 34.5354 4.57614L36.2719 3.58386C35.8811 2.90001 35.3145 2.37741 34.6029 2.02157L33.7084 3.81043ZM34.5414 4.58642C34.7365 4.91875 34.8477 5.31978 34.8477 5.82H36.8477C36.8477 5.00822 36.6628 4.24925 36.2659 3.57358L34.5414 4.58642ZM34.8477 5.82C34.8477 6.32022 34.7365 6.72125 34.5414 7.05358L36.2659 8.06642C36.6628 7.39075 36.8477 6.63178 36.8477 5.82H34.8477ZM34.5354 7.06386C34.3487 7.39062 34.0798 7.65037 33.698 7.84686L34.6133 9.62514C35.3195 9.26163 35.8826 8.73738 36.2719 8.05614L34.5354 7.06386ZM33.7031 7.84425C33.3295 8.03385 32.8693 8.144 32.2957 8.144V10.144C33.13 10.144 33.9098 9.98215 34.6082 9.62775L33.7031 7.84425ZM32.2957 8.404C32.9557 8.404 33.5349 8.10856 33.9032 7.53925L32.2241 6.45275C32.2197 6.4596 32.2209 6.4561 32.23 6.44749C32.2396 6.43849 32.2534 6.42798 32.2705 6.41888C32.2875 6.40985 32.3014 6.40557 32.3088 6.40389C32.3155 6.40234 32.3122 6.404 32.2957 6.404V8.404ZM33.9032 7.53925C34.2284 7.03675 34.3277 6.42227 34.3277 5.82H32.3277C32.3277 6.24173 32.2509 6.41125 32.2241 6.45275L33.9032 7.53925ZM34.3277 5.82C34.3277 5.21773 34.2284 4.60325 33.9032 4.10075L32.2241 5.18725C32.2509 5.22875 32.3277 5.39827 32.3277 5.82H34.3277ZM33.9032 4.10075C33.5349 3.53144 32.9557 3.236 32.2957 3.236V5.236C32.3122 5.236 32.3155 5.23766 32.3088 5.23611C32.3014 5.23443 32.2875 5.23015 32.2705 5.22112C32.2534 5.21202 32.2396 5.20151 32.23 5.19251C32.2209 5.1839 32.2197 5.1804 32.2241 5.18725L33.9032 4.10075ZM32.2957 3.236C31.6376 3.236 31.0496 3.52349 30.6761 4.10075L32.3552 5.18725C32.3587 5.18193 32.3565 5.18646 32.3467 5.19566C32.3365 5.20523 32.3225 5.21554 32.3062 5.2241C32.29 5.23255 32.2777 5.23603 32.2731 5.23707C32.269 5.23799 32.2755 5.236 32.2957 5.236V3.236ZM30.6761 4.10075C30.3509 4.60325 30.2517 5.21773 30.2517 5.82H32.2517C32.2517 5.39827 32.3284 5.22875 32.3552 5.18725L30.6761 4.10075ZM30.2517 5.82C30.2517 6.42227 30.3509 7.03675 30.6761 7.53925L32.3552 6.45275C32.3284 6.41125 32.2517 6.24173 32.2517 5.82H30.2517ZM30.6761 7.53925C31.0496 8.11651 31.6376 8.404 32.2957 8.404V6.404C32.2755 6.404 32.269 6.40201 32.2731 6.40292C32.2777 6.40397 32.29 6.40745 32.3062 6.4159C32.3225 6.42446 32.3365 6.43477 32.3467 6.44434C32.3565 6.45354 32.3587 6.45807 32.3552 6.45275L30.6761 7.53925ZM39.0784 6.828H40.0784V5.828H39.0784V6.828ZM39.0784 9V10H40.0784V9H39.0784ZM36.6184 9H35.6184V10H36.6184V9ZM36.6184 6.828V5.828H35.6184V6.828H36.6184ZM38.0784 6.828V9H40.0784V6.828H38.0784ZM39.0784 8H36.6184V10H39.0784V8ZM37.6184 9V6.828H35.6184V9H37.6184ZM36.6184 7.828H39.0784V5.828H36.6184V7.828ZM44.365 0.48V-0.52H43.365V0.48H44.365ZM46.837 0.48H47.837V-0.52H46.837V0.48ZM46.837 9V10H47.837V9H46.837ZM44.425 9L43.4258 9.03893L43.4632 10H44.425V9ZM44.389 8.076L45.3883 8.03707L45.2448 4.35579L43.5072 7.60435L44.389 8.076ZM43.633 8.868L43.1345 8.00104L43.125 8.00663L43.633 8.868ZM41.089 8.724L41.6549 7.89949L41.089 8.724ZM40.153 7.56L39.2287 7.94149L39.2323 7.95041L39.2362 7.95927L40.153 7.56ZM40.153 4.092L39.2339 3.69807L39.2308 3.70527L40.153 4.092ZM41.089 2.916L41.6549 3.74051L41.089 2.916ZM43.597 2.772L44.105 1.91063L44.105 1.91063L43.597 2.772ZM44.365 3.564L43.5005 4.06662L45.365 7.27357V3.564H44.365ZM44.341 6.636L43.4022 6.29175L43.397 6.30569L43.3923 6.31977L44.341 6.636ZM44.341 4.98L43.3923 5.29623L43.397 5.31031L43.4022 5.32425L44.341 4.98ZM43.981 4.416L44.6287 3.65406L43.981 4.416ZM42.625 4.656L41.786 4.1118L41.7823 4.11761L42.625 4.656ZM42.637 6.972L41.7915 7.50599L41.7998 7.51906L41.8084 7.53186L42.637 6.972ZM43.981 7.212L44.6478 7.95724L44.65 7.95529L43.981 7.212ZM44.365 1.48H46.837V-0.52H44.365V1.48ZM45.837 0.48V9H47.837V0.48H45.837ZM46.837 8H44.425V10H46.837V8ZM45.4243 8.96107L45.3883 8.03707L43.3898 8.11493L43.4258 9.03893L45.4243 8.96107ZM43.5072 7.60435C43.4063 7.79314 43.2829 7.91578 43.1346 8.00109L44.1315 9.73491C44.6231 9.45222 45.0038 9.04686 45.2708 8.54765L43.5072 7.60435ZM43.125 8.00663C42.9915 8.08541 42.8052 8.144 42.529 8.144V10.144C43.1009 10.144 43.6506 10.0186 44.141 9.72937L43.125 8.00663ZM42.529 8.144C42.1548 8.144 41.8774 8.05217 41.6549 7.89949L40.5232 9.54851C41.1167 9.95583 41.7993 10.144 42.529 10.144V8.144ZM41.6549 7.89949C41.4157 7.73535 41.2183 7.5015 41.0699 7.16073L39.2362 7.95927C39.5198 8.61049 39.9464 9.15265 40.5232 9.54851L41.6549 7.89949ZM41.0774 7.17851C40.9284 6.81741 40.841 6.3711 40.841 5.82H38.841C38.841 6.5809 38.9617 7.29459 39.2287 7.94149L41.0774 7.17851ZM40.841 5.82C40.841 5.26838 40.9285 4.82853 41.0752 4.47873L39.2308 3.70527C38.9615 4.34747 38.841 5.05962 38.841 5.82H40.841ZM41.0722 4.48592C41.2219 4.13655 41.4196 3.90196 41.6549 3.74051L40.5232 2.09149C39.9424 2.49004 39.5162 3.03945 39.2339 3.69808L41.0722 4.48592ZM41.6549 3.74051C41.8774 3.58783 42.1548 3.496 42.529 3.496V1.496C41.7993 1.496 41.1167 1.68417 40.5232 2.09149L41.6549 3.74051ZM42.529 3.496C42.7695 3.496 42.9467 3.54939 43.089 3.63337L44.105 1.91063C43.6234 1.62661 43.0885 1.496 42.529 1.496V3.496ZM43.089 3.63336C43.2392 3.72192 43.378 3.85581 43.5005 4.06662L45.2295 3.06138C44.9521 2.58419 44.5789 2.19008 44.105 1.91063L43.089 3.63336ZM45.365 3.564V0.48H43.365V3.564H45.365ZM45.2799 6.98026C45.4152 6.61131 45.473 6.21977 45.473 5.82H43.473C43.473 6.02823 43.4429 6.18069 43.4022 6.29175L45.2799 6.98026ZM45.473 5.82C45.473 5.41094 45.4171 5.00985 45.2799 4.63575L43.4022 5.32425C43.441 5.43015 43.473 5.58906 43.473 5.82H45.473ZM45.2897 4.66377C45.1638 4.28612 44.9539 3.93051 44.6287 3.65406L43.3334 5.17794C43.3336 5.17811 43.3348 5.17912 43.3369 5.18161C43.3391 5.18416 43.343 5.18899 43.3481 5.19703C43.3584 5.21319 43.3749 5.24399 43.3923 5.29623L45.2897 4.66377ZM44.6287 3.65406C44.2823 3.35964 43.8629 3.212 43.417 3.212V5.212C43.4184 5.212 43.4034 5.21188 43.3799 5.20338C43.356 5.19472 43.3398 5.18337 43.3334 5.17794L44.6287 3.65406ZM43.417 3.212C42.7223 3.212 42.1514 3.54865 41.7861 4.11181L43.464 5.20019C43.4758 5.18203 43.4819 5.17647 43.4801 5.17822C43.4779 5.1804 43.4699 5.18752 43.456 5.19528C43.442 5.20313 43.4284 5.20809 43.418 5.21065C43.4082 5.21308 43.4068 5.212 43.417 5.212V3.212ZM41.7823 4.11761C41.4605 4.62129 41.349 5.21893 41.349 5.82H43.349C43.349 5.44507 43.4215 5.26671 43.4677 5.19439L41.7823 4.11761ZM41.349 5.82C41.349 6.4189 41.4731 7.00187 41.7915 7.50599L43.4825 6.43801C43.4169 6.33413 43.349 6.1491 43.349 5.82H41.349ZM41.8084 7.53186C42.169 8.06555 42.722 8.416 43.417 8.416V6.416C43.4147 6.416 43.4219 6.41581 43.4355 6.4193C43.4496 6.42288 43.464 6.42872 43.4767 6.43594C43.4891 6.44297 43.4943 6.44819 43.4928 6.44674C43.4909 6.44491 43.4811 6.43504 43.4656 6.41214L41.8084 7.53186ZM43.417 8.416C43.8609 8.416 44.2939 8.27392 44.6478 7.95724L43.3142 6.46676C43.3317 6.45117 43.3571 6.43505 43.3859 6.42462C43.4133 6.41472 43.4269 6.416 43.417 6.416V8.416ZM44.65 7.95529C44.9595 7.67671 45.1646 7.32745 45.2897 6.95223L43.3923 6.31977C43.3574 6.42455 43.3225 6.45929 43.3121 6.46871L44.65 7.95529ZM48.2306 4.08L47.3683 3.57354L47.3624 3.58386L48.2306 4.08ZM49.4786 2.916L49.9312 3.80781L49.9416 3.80235L49.4786 2.916ZM53.1746 2.964L52.6659 3.82498L52.6757 3.83062L53.1746 2.964ZM54.3866 4.26L53.4922 4.70721V4.70721L54.3866 4.26ZM54.7586 6.192L55.7573 6.24456L55.7577 6.23591L54.7586 6.192ZM54.7466 6.42V7.42H55.6954L55.7452 6.47256L54.7466 6.42ZM50.3666 6.42V5.42H49.3419L49.3669 6.44438L50.3666 6.42ZM50.6426 7.212L49.8919 7.87263L49.8986 7.88025L49.9055 7.88772L50.6426 7.212ZM51.8906 7.344L52.4356 8.1825L52.4453 8.17605L51.8906 7.344ZM52.2386 6.924L52.3074 5.92637L51.568 5.87537L51.3041 6.568L52.2386 6.924ZM54.6746 7.092L55.628 7.39371L56.0115 6.18182L54.7434 6.09437L54.6746 7.092ZM53.4746 8.592L52.9518 7.73955L52.9467 7.74271L53.4746 8.592ZM49.4786 8.736L49.0156 9.62241L49.0261 9.62775L49.4786 8.736ZM48.2306 7.56L47.3623 8.05617L47.3683 8.06642L48.2306 7.56ZM52.3106 5.16V6.16H53.3619L53.3094 5.11006L52.3106 5.16ZM52.0226 4.416L51.3 5.10722L51.3077 5.11525L51.3155 5.12311L52.0226 4.416ZM50.6546 4.416L51.3773 5.10722V5.10722L50.6546 4.416ZM50.3666 5.16L49.3679 5.10879L49.314 6.16H50.3666V5.16ZM48.7986 5.82C48.7986 5.31497 48.908 4.91021 49.0989 4.57614L47.3624 3.58386C46.9773 4.25779 46.7986 5.01303 46.7986 5.82H48.7986ZM49.0929 4.58642C49.2891 4.2523 49.5607 3.99575 49.9312 3.80775L49.0261 2.02425C48.3246 2.38025 47.7641 2.8997 47.3683 3.57358L49.0929 4.58642ZM49.9416 3.80235C50.3114 3.6092 50.7713 3.496 51.3506 3.496V1.496C50.5059 1.496 49.7179 1.6628 49.0156 2.02965L49.9416 3.80235ZM51.3506 3.496C51.882 3.496 52.3101 3.61469 52.6659 3.82493L53.6834 2.10307C52.9831 1.68931 52.1953 1.496 51.3506 1.496V3.496ZM52.6757 3.83062C53.0286 4.03384 53.2974 4.31766 53.4922 4.70721L55.2811 3.81279C54.9158 3.08234 54.3766 2.50216 53.6736 2.09738L52.6757 3.83062ZM53.4922 4.70721C53.6845 5.09179 53.7854 5.56198 53.7596 6.14809L55.7577 6.23591C55.7959 5.36602 55.6488 4.54821 55.2811 3.81279L53.4922 4.70721ZM53.76 6.13944L53.748 6.36744L55.7452 6.47256L55.7572 6.24456L53.76 6.13944ZM54.7466 5.42H50.3666V7.42H54.7466V5.42ZM49.3669 6.44438C49.3793 6.9509 49.5273 7.4583 49.8919 7.87263L51.3933 6.55137C51.3932 6.55121 51.393 6.55101 51.3923 6.54985C51.3916 6.54859 51.3891 6.54413 51.3859 6.53492C51.3794 6.51631 51.3682 6.47335 51.3663 6.39562L49.3669 6.44438ZM49.9055 7.88772C50.2976 8.31555 50.8165 8.5 51.3506 8.5V6.5C51.3112 6.5 51.309 6.49382 51.3284 6.5017C51.3376 6.50545 51.3483 6.51104 51.3588 6.51839C51.3693 6.52571 51.3762 6.53242 51.3798 6.53628L49.9055 7.88772ZM51.3506 8.5C51.7343 8.5 52.1054 8.39709 52.4356 8.18244L51.3456 6.50556C51.3456 6.50558 51.346 6.50533 51.3468 6.50491C51.3475 6.50448 51.3486 6.50395 51.3499 6.50335C51.3526 6.50211 51.3554 6.50105 51.3581 6.50029C51.3607 6.49953 51.3619 6.4994 51.3613 6.49948C51.3606 6.49958 51.3572 6.5 51.3506 6.5V8.5ZM52.4453 8.17605C52.7641 7.96352 53.0261 7.66585 53.1731 7.27999L51.3041 6.568C51.3116 6.54845 51.3225 6.53037 51.3336 6.51698C51.344 6.50444 51.3479 6.50394 51.3359 6.51195L52.4453 8.17605ZM52.1698 7.92163L54.6058 8.08963L54.7434 6.09437L52.3074 5.92637L52.1698 7.92163ZM53.7212 6.79029C53.5985 7.17795 53.3605 7.48891 52.9518 7.73956L53.9975 9.44444C54.7888 8.95909 55.3507 8.27005 55.628 7.39371L53.7212 6.79029ZM52.9467 7.74271C52.54 7.9955 52.0224 8.144 51.3506 8.144V10.144C52.3268 10.144 53.2252 9.9245 54.0026 9.44129L52.9467 7.74271ZM51.3506 8.144C50.767 8.144 50.3033 8.03308 49.9312 7.84425L49.0261 9.62775C49.726 9.98292 50.5102 10.144 51.3506 10.144V8.144ZM49.9416 7.84965C49.5656 7.65323 49.2906 7.39025 49.0929 7.05358L47.3683 8.06642C47.7626 8.73775 48.3196 9.25877 49.0156 9.62235L49.9416 7.84965ZM49.0989 7.06386C48.908 6.72979 48.7986 6.32503 48.7986 5.82H46.7986C46.7986 6.62697 46.9773 7.38221 47.3624 8.05614L49.0989 7.06386ZM53.3094 5.11006C53.2847 4.61572 53.1268 4.10598 52.7297 3.70889L51.3155 5.12311C51.3082 5.11577 51.3022 5.10811 51.2979 5.10145C51.2938 5.09495 51.2929 5.09208 51.2941 5.09499C51.2966 5.10154 51.3081 5.13537 51.3119 5.20994L53.3094 5.11006ZM52.7453 3.72478C52.3667 3.32902 51.8748 3.14 51.3506 3.14V5.14C51.3622 5.14 51.3659 5.14097 51.3633 5.14048C51.3604 5.13995 51.353 5.13823 51.3427 5.13402C51.3323 5.12976 51.3223 5.12429 51.3137 5.11833C51.3052 5.11245 51.3007 5.10798 51.3 5.10722L52.7453 3.72478ZM51.3506 3.14C50.829 3.14 50.3222 3.31687 49.932 3.72478L51.3773 5.10722C51.3738 5.11081 51.3672 5.11692 51.3574 5.12353C51.3476 5.13019 51.3377 5.13522 51.3293 5.13858C51.3113 5.14569 51.3136 5.14 51.3506 5.14V3.14ZM49.932 3.72478C49.5549 4.11905 49.3933 4.61378 49.3679 5.10879L51.3653 5.21121C51.3688 5.14325 51.3796 5.11032 51.3832 5.10099C51.3858 5.09426 51.3843 5.09983 51.3773 5.10722L49.932 3.72478ZM50.3666 6.16H52.3106V4.16H50.3666V6.16ZM59.8014 9V10H60.4929L60.737 9.35306L59.8014 9ZM57.4134 9L56.4778 9.35306L56.722 10H57.4134V9ZM55.0134 2.64V1.64H53.5672L54.0778 2.99306L55.0134 2.64ZM57.3294 2.64L58.2799 2.32901L58.0544 1.64H57.3294V2.64ZM58.6134 6.564L57.663 6.87499L58.6179 9.79317L59.5647 6.87236L58.6134 6.564ZM59.8854 2.64V1.64H59.1584L58.9342 2.33164L59.8854 2.64ZM62.2014 2.64L63.137 2.99306L63.6476 1.64H62.2014V2.64ZM59.8014 8H57.4134V10H59.8014V8ZM58.349 8.64694L55.949 2.28694L54.0778 2.99306L56.4778 9.35306L58.349 8.64694ZM55.0134 3.64H57.3294V1.64H55.0134V3.64ZM56.379 2.95099L57.663 6.87499L59.5639 6.25301L58.2799 2.32901L56.379 2.95099ZM59.5647 6.87236L60.8367 2.94836L58.9342 2.33164L57.6622 6.25564L59.5647 6.87236ZM59.8854 3.64H62.2014V1.64H59.8854V3.64ZM61.2658 2.28694L58.8658 8.64694L60.737 9.35306L63.137 2.99306L61.2658 2.28694ZM65.6678 -7.15256e-07V-1H64.9537L64.7219 -0.324466L65.6678 -7.15256e-07ZM68.1758 -7.15256e-07L69.1214 0.325448L69.5776 -1H68.1758V-7.15256e-07ZM64.6238 10.32V11.32H65.3372L65.5694 10.6454L64.6238 10.32ZM62.1278 10.32L61.1819 9.99553L60.7276 11.32H62.1278V10.32ZM65.6678 0.999999H68.1758V-1H65.6678V0.999999ZM67.2303 -0.325449L63.6783 9.99455L65.5694 10.6454L69.1214 0.325448L67.2303 -0.325449ZM64.6238 9.32H62.1278V11.32H64.6238V9.32ZM63.0737 10.6445L66.6137 0.324464L64.7219 -0.324466L61.1819 9.99553L63.0737 10.6445ZM74.4952 4.332H75.4952V3.6574L74.8697 3.40477L74.4952 4.332ZM74.4952 6.576L74.8697 7.50323L75.4952 7.2506V6.576H74.4952ZM68.9392 8.82H67.9392V10.3024L69.3137 9.74723L68.9392 8.82ZM68.9392 6.792L68.5659 5.86432L67.9392 6.11654V6.792H68.9392ZM73.7393 4.86H74.7393V3.37954L73.3659 3.93232L73.7393 4.86ZM73.7393 6.048L73.3659 6.97567L74.7393 7.52846V6.048H73.7393ZM68.9392 4.116H67.9392V4.79146L68.5659 5.04367L68.9392 4.116ZM68.9392 2.088L69.3137 1.16077L67.9392 0.605629V2.088H68.9392ZM73.4952 4.332V6.576H75.4952V4.332H73.4952ZM74.1208 5.64877L68.5648 7.89277L69.3137 9.74723L74.8697 7.50323L74.1208 5.64877ZM69.9392 8.82V6.792H67.9392V8.82H69.9392ZM69.3126 7.71968L74.1126 5.78767L73.3659 3.93232L68.5659 5.86432L69.3126 7.71968ZM72.7393 4.86V6.048H74.7393V4.86H72.7393ZM74.1126 5.12033L69.3126 3.18832L68.5659 5.04367L73.3659 6.97567L74.1126 5.12033ZM69.9392 4.116V2.088H67.9392V4.116H69.9392ZM68.5648 3.01523L74.1208 5.25923L74.8697 3.40477L69.3137 1.16077L68.5648 3.01523Z" fill="black" fill-opacity="0.2" mask="url(#path-1-outside-1_0_1)"/>
</svg>
