
<svg xmlns="http://www.w3.org/2000/svg" xmlns:xlink="http://www.w3.org/1999/xlink" viewBox="0,0,256,256" width="50px" height="50px" fill-rule="nonzero"><g fill="none" fill-rule="nonzero" stroke="none" stroke-width="1" stroke-linecap="butt" stroke-linejoin="miter" stroke-miterlimit="10" stroke-dasharray="" stroke-dashoffset="0" font-family="none" font-weight="none" font-size="none" text-anchor="none" style="mix-blend-mode: normal"><g transform="scale(5.12,5.12)"><path d="M15,1.906l-3.998,2.308l-0.002,-0.001l-0.001,4.622l24.001,13.856l4,-2.31v-4.619z" fill-opacity="0.90196" fill="#6fff66"></path><path d="M39,15.762l-24,-13.856l-4,2.309l24,13.857z" fill="#211c1c"></path><path d="M35,18.072v4.619l4,-2.31v-4.619z" fill="#fbfbfb"></path><path d="M15,27.309l-3.998,2.308l-0.002,-0.001l-0.001,4.622l24.001,13.856l4,-2.309v-4.619z" fill-opacity="0.90196" fill="#6fff66"></path><path d="M39,41.166l-24,-13.857l-4,2.31l24,13.856z" fill="#211c1c"></path><path d="M35,43.475v4.619l4,-2.309v-4.619z" fill="#fbfbfb"></path><path d="M15,14.608l-3.998,2.308l-0.002,-0.002l-0.001,4.623l24.001,13.855l4,-2.309v-4.619z" fill-opacity="0.90196" fill="#6fff66"></path><path d="M39,28.464l-24,-13.856l-4,2.309l24,13.857z" fill="#211c1c"></path><path d="M35,30.774v4.618l4,-2.309v-4.619z" fill="#fbfbfb"></path></g></g></svg>