<svg viewBox="-3.2 -3.2 38.40 38.40" version="1.1" xmlns="http://www.w3.org/2000/svg">
  <defs>
    <linearGradient id="myGradient" x1="0%" y1="0%" x2="100%" y2="100%">
      <stop offset="0%" style="stop-color: #8aff85;" />
      <stop offset="100%" style="stop-color: #d0ff7d;" />
    </linearGradient>
  </defs>
  <g id="SVGRepo_bgCarrier" stroke-width="0">
    <path transform="translate(-3.2, -3.2), scale(2.4)" fill="url(#myGradient)" d="M9.166.33a2.25 2.25 0 00-2.332 0l-5.25 3.182A2.25 2.25 0 00.5 5.436v5.128a2.25 2.25 0 001.084 1.924l5.25 3.182a2.25 2.25 0 002.332 0l5.25-3.182a2.25 2.25 0 001.084-1.924V5.436a2.25 2.25 0 00-1.084-1.924L9.166.33z" stroke="#211c11" stroke-width="0"></path>
  </g>
  <g id="SVGRepo_tracerCarrier" stroke-linecap="round" stroke-linejoin="round"></g>
  <g id="SVGRepo_iconCarrier">
    <title>phone-call</title>
    <path d="M31.129 23.072c-0.118-0.743-0.365-1.409-0.719-2.004l0.014 0.026c-0.189-0.31-0.502-0.529-0.868-0.589l-0.007-0.001-8.969-1.424c-0.056-0.009-0.12-0.013-0.185-0.013-0.348 0-0.664 0.138-0.895 0.363l0-0c-0.605 0.609-1.094 1.334-1.429 2.14l-0.016 0.044c-3.506-1.573-6.252-4.319-7.785-7.729l-0.039-0.097c0.849-0.351 1.574-0.839 2.182-1.445l-0 0c0.226-0.226 0.366-0.539 0.366-0.885 0-0.069-0.006-0.137-0.017-0.204l0.001 0.007-1.423-8.97c-0.061-0.374-0.281-0.688-0.587-0.873l-0.006-0.003c-0.546-0.327-1.185-0.568-1.866-0.684l-0.033-0.005c-0.349-0.078-0.75-0.122-1.161-0.122-0.024 0-0.047 0-0.071 0l0.004-0h-0.010c-3.772 0.028-6.821 3.081-6.844 6.851v0.002c0.015 13.037 10.579 23.601 23.615 23.616h0.001c3.776-0.022 6.831-3.076 6.854-6.849v-0.002c0.001-0.029 0.001-0.063 0.001-0.098 0-0.373-0.039-0.737-0.114-1.088l0.006 0.034z" />
  </g>
</svg>