<svg id="visual" viewBox="0 0 540 960" width="540" height="960" xmlns="http://www.w3.org/2000/svg" xmlns:xlink="http://www.w3.org/1999/xlink" version="1.1"><rect x="0" y="0" width="540" height="960" fill="#262827"></rect><path d="M0 351L6 348.7C12 346.3 24 341.7 36 319.7C48 297.7 60 258.3 72 245.5C84 232.7 96 246.3 108 264.8C120 283.3 132 306.7 144 327C156 347.3 168 364.7 180 347.8C192 331 204 280 216 250.7C228 221.3 240 213.7 252 216.8C264 220 276 234 288 245.5C300 257 312 266 324 262.8C336 259.7 348 244.3 360 237.7C372 231 384 233 396 257C408 281 420 327 432 336.5C444 346 456 319 468 296.8C480 274.7 492 257.3 504 245.8C516 234.3 528 228.7 534 225.8L540 223L540 961L534 961C528 961 516 961 504 961C492 961 480 961 468 961C456 961 444 961 432 961C420 961 408 961 396 961C384 961 372 961 360 961C348 961 336 961 324 961C312 961 300 961 288 961C276 961 264 961 252 961C240 961 228 961 216 961C204 961 192 961 180 961C168 961 156 961 144 961C132 961 120 961 108 961C96 961 84 961 72 961C60 961 48 961 36 961C24 961 12 961 6 961L0 961Z" fill="#000000"></path><path d="M0 436L6 425.3C12 414.7 24 393.3 36 393.7C48 394 60 416 72 430C84 444 96 450 108 444.2C120 438.3 132 420.7 144 397.5C156 374.3 168 345.7 180 329.8C192 314 204 311 216 310.3C228 309.7 240 311.3 252 325.5C264 339.7 276 366.3 288 389C300 411.7 312 430.3 324 416C336 401.7 348 354.3 360 353.8C372 353.3 384 399.7 396 425C408 450.3 420 454.7 432 453.5C444 452.3 456 445.7 468 442.2C480 438.7 492 438.3 504 441.8C516 445.3 528 452.7 534 456.3L540 460L540 961L534 961C528 961 516 961 504 961C492 961 480 961 468 961C456 961 444 961 432 961C420 961 408 961 396 961C384 961 372 961 360 961C348 961 336 961 324 961C312 961 300 961 288 961C276 961 264 961 252 961C240 961 228 961 216 961C204 961 192 961 180 961C168 961 156 961 144 961C132 961 120 961 108 961C96 961 84 961 72 961C60 961 48 961 36 961C24 961 12 961 6 961L0 961Z" fill="#003100"></path><path d="M0 533L6 538C12 543 24 553 36 541.8C48 530.7 60 498.3 72 486.7C84 475 96 484 108 474.2C120 464.3 132 435.7 144 436.5C156 437.3 168 467.7 180 468.7C192 469.7 204 441.3 216 442.3C228 443.3 240 473.7 252 470.5C264 467.3 276 430.7 288 431C300 431.3 312 468.7 324 481.2C336 493.7 348 481.3 360 482.2C372 483 384 497 396 497.3C408 497.7 420 484.3 432 477.7C444 471 456 471 468 474.7C480 478.3 492 485.7 504 475C516 464.3 528 435.7 534 421.3L540 407L540 961L534 961C528 961 516 961 504 961C492 961 480 961 468 961C456 961 444 961 432 961C420 961 408 961 396 961C384 961 372 961 360 961C348 961 336 961 324 961C312 961 300 961 288 961C276 961 264 961 252 961C240 961 228 961 216 961C204 961 192 961 180 961C168 961 156 961 144 961C132 961 120 961 108 961C96 961 84 961 72 961C60 961 48 961 36 961C24 961 12 961 6 961L0 961Z" fill="#045700"></path><path d="M0 646L6 636C12 626 24 606 36 600C48 594 60 602 72 610C84 618 96 626 108 620.2C120 614.3 132 594.7 144 578.8C156 563 168 551 180 558.2C192 565.3 204 591.7 216 603.5C228 615.3 240 612.7 252 615.7C264 618.7 276 627.3 288 637C300 646.7 312 657.3 324 646.8C336 636.3 348 604.7 360 595.5C372 586.3 384 599.7 396 610.2C408 620.7 420 628.3 432 614C444 599.7 456 563.3 468 544C480 524.7 492 522.3 504 525.2C516 528 528 536 534 540L540 544L540 961L534 961C528 961 516 961 504 961C492 961 480 961 468 961C456 961 444 961 432 961C420 961 408 961 396 961C384 961 372 961 360 961C348 961 336 961 324 961C312 961 300 961 288 961C276 961 264 961 252 961C240 961 228 961 216 961C204 961 192 961 180 961C168 961 156 961 144 961C132 961 120 961 108 961C96 961 84 961 72 961C60 961 48 961 36 961C24 961 12 961 6 961L0 961Z" fill="#3a7e00"></path><path d="M0 616L6 631.2C12 646.3 24 676.7 36 693.8C48 711 60 715 72 718.2C84 721.3 96 723.7 108 719.3C120 715 132 704 144 700.2C156 696.3 168 699.7 180 680.8C192 662 204 621 216 617C228 613 240 646 252 649.3C264 652.7 276 626.3 288 635.7C300 645 312 690 324 686.8C336 683.7 348 632.3 360 606.5C372 580.7 384 580.3 396 608.7C408 637 420 694 432 723.7C444 753.3 456 755.7 468 755C480 754.3 492 750.7 504 744C516 737.3 528 727.7 534 722.8L540 718L540 961L534 961C528 961 516 961 504 961C492 961 480 961 468 961C456 961 444 961 432 961C420 961 408 961 396 961C384 961 372 961 360 961C348 961 336 961 324 961C312 961 300 961 288 961C276 961 264 961 252 961C240 961 228 961 216 961C204 961 192 961 180 961C168 961 156 961 144 961C132 961 120 961 108 961C96 961 84 961 72 961C60 961 48 961 36 961C24 961 12 961 6 961L0 961Z" fill="#64a815"></path><path d="M0 717L6 729.3C12 741.7 24 766.3 36 759C48 751.7 60 712.3 72 693.7C84 675 96 677 108 685.2C120 693.3 132 707.7 144 708.8C156 710 168 698 180 695.3C192 692.7 204 699.3 216 727.8C228 756.3 240 806.7 252 828.5C264 850.3 276 843.7 288 828.8C300 814 312 791 324 794.5C336 798 348 828 360 820.5C372 813 384 768 396 739C408 710 420 697 432 703C444 709 456 734 468 750.2C480 766.3 492 773.7 504 761.7C516 749.7 528 718.3 534 702.7L540 687L540 961L534 961C528 961 516 961 504 961C492 961 480 961 468 961C456 961 444 961 432 961C420 961 408 961 396 961C384 961 372 961 360 961C348 961 336 961 324 961C312 961 300 961 288 961C276 961 264 961 252 961C240 961 228 961 216 961C204 961 192 961 180 961C168 961 156 961 144 961C132 961 120 961 108 961C96 961 84 961 72 961C60 961 48 961 36 961C24 961 12 961 6 961L0 961Z" fill="#92d327"></path><path d="M0 854L6 860.5C12 867 24 880 36 896.2C48 912.3 60 931.7 72 940.7C84 949.7 96 948.3 108 927.8C120 907.3 132 867.7 144 866.7C156 865.7 168 903.3 180 905.5C192 907.7 204 874.3 216 869.2C228 864 240 887 252 879C264 871 276 832 288 824.7C300 817.3 312 841.7 324 866.5C336 891.3 348 916.7 360 906C372 895.3 384 848.7 396 840.8C408 833 420 864 432 879.2C444 894.3 456 893.7 468 873.8C480 854 492 815 504 818C516 821 528 866 534 888.5L540 911L540 961L534 961C528 961 516 961 504 961C492 961 480 961 468 961C456 961 444 961 432 961C420 961 408 961 396 961C384 961 372 961 360 961C348 961 336 961 324 961C312 961 300 961 288 961C276 961 264 961 252 961C240 961 228 961 216 961C204 961 192 961 180 961C168 961 156 961 144 961C132 961 120 961 108 961C96 961 84 961 72 961C60 961 48 961 36 961C24 961 12 961 6 961L0 961Z" fill="#c3ff38"></path></svg>