<svg xmlns="http://www.w3.org/2000/svg" width="896" height="672">
<defs>
<style>
@import url('https://fonts.googleapis.com/css2?family=Space+Grotesk&display=swap');
text { font-family: 'Space Grotesk', sans-serif; }
</style>
</defs>
<rect width="100%" height="100%" fill="#211c1c" />
<g>
<filter id="blur-filter"><feGaussianBlur in="SourceGraphic" stdDeviation="5"></feGaussianBlur></filter><path fill="none" opacity="1" transform="translate(0, 0) rotate(49, 0, 0) scale(0.9008171247057108)" d="M7.275725210337401 -3.6378626051687006
L-7.275725210337401 -3.6378626051687006
L-3.6378626051687006 3.6378626051687006
L10.913587815506101 3.6378626051687006
Z" stroke="#33eb00" stroke-width="-1.8189313025843503"></path><path fill="none" opacity="1" transform="translate(0, 0) rotate(53, 55, 0) scale(0.9078437184636656)" d="M60.990086222075774 -2.995043111037888
L49.009913777924226 -2.995043111037888
L52.00495688896211 2.995043111037888
L63.98512933311366 2.995043111037888
Z" stroke="#33eb00" stroke-width="-1.497521555518944"></path><path fill="none" opacity="1" transform="translate(0, 0) rotate(57, 110, 0) scale(0.921747334544636)" d="M114.71887419103605 -2.3594370955180284
L105.28112580896395 -2.3594370955180284
L107.64056290448197 2.3594370955180284
L117.07831128655408 2.3594370955180284
Z" stroke="#33eb00" stroke-width="-1.1797185477590142"></path><path fill="none" opacity="1" transform="translate(0, 0) rotate(61, 165, 0) scale(0.9418553647660914)" d="M168.4291339501115 -1.714566975055744
L161.5708660498885 -1.714566975055744
L163.28543302494427 1.714566975055744
L170.14370092516722 1.714566975055744
Z" stroke="#33eb00" stroke-width="-0.857283487527872"></path><path fill="none" opacity="1" transform="translate(0, 0) rotate(65, 220, 0) scale(0.9671950531498201)" d="M222.09123959478185 -1.0456197973909245
L217.90876040521815 -1.0456197973909245
L218.9543802026091 1.0456197973909245
L223.13685939217277 1.0456197973909245
Z" stroke="#33eb00" stroke-width="-0.5228098986954622"></path><path fill="none" opacity="1" transform="translate(0, 0) rotate(69, 275, 0) scale(0.9965405544444561)" d="M275.68114572952396 -0.3405728647619943
L274.31885427047604 -0.3405728647619943
L274.659427135238 0.3405728647619943
L276.02171859428597 0.3405728647619943
Z" stroke="#33eb00" stroke-width="-0.17028643238099714"></path><path fill="none" opacity="1" transform="translate(0, 0) rotate(73, 330, 0) scale(1.0284722362193934)" d="M329.1822114776703 0.40889426116483213
L330.8177885223297 0.40889426116483213
L330.40889426116485 -0.40889426116483213
L328.7733172165055 -0.40889426116483213
Z" stroke="#33eb00" stroke-width="0.20444713058241606"></path><path fill="none" opacity="1" transform="translate(0, 0) rotate(77, 385, 0) scale(1.061445355702773)" d="M382.58647704939574 1.2067614753021376
L387.41352295060426 1.2067614753021376
L386.20676147530213 -1.2067614753021376
L381.3797155740936 -1.2067614753021376
Z" stroke="#33eb00" stroke-width="0.6033807376510688"></path><path fill="none" opacity="1" transform="translate(0, 0) rotate(81, 440, 0) scale(1.0938647890189834)" d="M435.8953083004635 2.0523458497682547
L444.1046916995365 2.0523458497682547
L442.05234584976824 -2.0523458497682547
L433.8429624506952 -2.0523458497682547
Z" stroke="#33eb00" stroke-width="1.0261729248841274"></path><path fill="none" opacity="1" transform="translate(0, 0) rotate(85, 495, 0) scale(1.124162197687266)" d="M489.11936554692494 2.9403172265375215
L500.88063445307506 2.9403172265375215
L497.9403172265375 -2.9403172265375215
L486.17904832038744 -2.9403172265375215
Z" stroke="#33eb00" stroke-width="1.4701586132687607"></path><path fill="none" opacity="1" transform="translate(0, 0) rotate(89, 550, 0) scale(1.1508718993368552)" d="M544.3136828632856 2.8431585683572083
L555.6863171367144 2.8431585683572083
L552.8431585683572 -2.8431585683572083
L541.4705242949284 -2.8431585683572083
Z" stroke="#33eb00" stroke-width="1.4215792841786041"></path><path fill="none" opacity="1" transform="translate(0, 0) rotate(93, 605, 0) scale(1.172701772279563)" d="M600.6501975403156 2.174901229842196
L609.3498024596844 2.174901229842196
L607.1749012298422 -2.174901229842196
L598.4752963104734 -2.174901229842196
Z" stroke="#33eb00" stroke-width="1.087450614921098"></path><path fill="none" opacity="1" transform="translate(0, 0) rotate(97, 660, 0) scale(1.1885957638252571)" d="M657.0551927637633 1.472403618118312
L662.9448072362367 1.472403618118312
L661.4724036181183 -1.472403618118312
L655.582789145645 -1.472403618118312
Z" stroke="#33eb00" stroke-width="0.736201809059156"></path><path fill="none" opacity="1" transform="translate(0, 0) rotate(101, 715, 0) scale(1.1977849784071695)" d="M713.5076934749483 0.7461532625258562
L716.4923065250517 0.7461532625258562
L715.7461532625258 -0.7461532625258562
L712.7615402124225 -0.7461532625258562
Z" stroke="#33eb00" stroke-width="0.3730766312629281"></path><path fill="none" opacity="1" transform="translate(0, 0) rotate(105, 770, 0) scale(1.1998248740527062)" d="M769.9829319201625 0.008534039918759196
L770.0170680798375 0.008534039918759196
L770.0085340399188 -0.008534039918759196
L769.9743978802437 -0.008534039918759196
Z" stroke="#33eb00" stroke-width="0.004267019959379598"></path><path fill="none" opacity="1" transform="translate(0, 0) rotate(109, 825, 0) scale(1.194616767764961)" d="M826.4543713037663 -0.7271856518831349
L823.5456286962337 -0.7271856518831349
L824.2728143481169 0.7271856518831349
L827.1815569556494 0.7271856518831349
Z" stroke="#33eb00" stroke-width="-0.36359282594156744"></path><path fill="none" opacity="1" transform="translate(0, 0) rotate(113, 880, 0) scale(1.1824126094600014)" d="M882.8958473885929 -1.447923694296463
L877.1041526114071 -1.447923694296463
L878.5520763057035 1.447923694296463
L884.3437710828894 1.447923694296463
Z" stroke="#33eb00" stroke-width="-0.7239618471482315"></path><path fill="none" opacity="1" transform="translate(0, 0) rotate(117, 0, 55) scale(0.9078437184636656)" d="M5.841600930859886 52.07919953457006
L-5.841600930859886 52.07919953457006
L-2.920800465429943 57.92080046542994
L8.762401396289828 57.92080046542994
Z" stroke="#33eb00" stroke-width="-1.4604002327149714"></path><path fill="none" opacity="1" transform="translate(0, 0) rotate(121, 55, 55) scale(0.921747334544636)" d="M59.5681148492972 52.7159425753514
L50.4318851507028 52.7159425753514
L52.7159425753514 57.2840574246486
L61.85217227394581 57.2840574246486
Z" stroke="#33eb00" stroke-width="-1.1420287123243014"></path><path fill="none" opacity="1" transform="translate(0, 0) rotate(125, 110, 55) scale(0.9418553647660914)" d="M113.27508577499472 53.36245711250264
L106.72491422500528 53.36245711250264
L108.36245711250264 56.63754288749736
L114.91262866249208 56.63754288749736
Z" stroke="#33eb00" stroke-width="-0.8187714437486812"></path><path fill="none" opacity="1" transform="translate(0, 0) rotate(129, 165, 55) scale(0.9671950531498201)" d="M166.93304690565628 54.03347654717186
L163.06695309434372 54.03347654717186
L164.03347654717186 55.96652345282814
L167.89957035848443 55.96652345282814
Z" stroke="#33eb00" stroke-width="-0.4832617264140711"></path><path fill="none" opacity="1" transform="translate(0, 0) rotate(133, 220, 55) scale(0.9965405544444561)" d="M220.51815334281062 54.74092332859469
L219.48184665718938 54.74092332859469
L219.74092332859468 55.25907667140531
L220.77723001421595 55.25907667140531
Z" stroke="#33eb00" stroke-width="-0.1295383357026564"></path><path fill="none" opacity="1" transform="translate(0, 0) rotate(137, 275, 55) scale(1.0284722362193934)" d="M274.01399640232574 55.493001798837135
L275.98600359767426 55.493001798837135
L275.49300179883716 54.506998201162865
L273.5209946034886 54.506998201162865
Z" stroke="#33eb00" stroke-width="0.24650089941856762"></path><path fill="none" opacity="1" transform="translate(0, 0) rotate(141, 330, 55) scale(1.061445355702773)" d="M327.4128689497351 56.293565525132436
L332.5871310502649 56.293565525132436
L331.2935655251324 53.706434474867564
L326.1193034246027 53.706434474867564
Z" stroke="#33eb00" stroke-width="0.6467827625662166"></path><path fill="none" opacity="1" transform="translate(0, 0) rotate(145, 385, 55) scale(1.0938647890189834)" d="M380.7163977364039 57.141801131798054
L389.2836022635961 57.141801131798054
L387.14180113179805 52.858198868201946
L378.57459660460586 52.858198868201946
Z" stroke="#33eb00" stroke-width="1.0709005658990256"></path><path fill="none" opacity="1" transform="translate(0, 0) rotate(149, 440, 55) scale(1.124162197687266)" d="M433.9354995930139 58.03225020349305
L446.0645004069861 58.03225020349305
L443.03225020349305 51.96774979650695
L430.90324938952085 51.96774979650695
Z" stroke="#33eb00" stroke-width="1.516125101746526"></path><path fill="none" opacity="1" transform="translate(0, 0) rotate(153, 495, 55) scale(1.1508718993368552)" d="M487.08966191171766 58.95516904414117
L502.91033808828234 58.95516904414117
L498.95516904414114 51.04483095585883
L483.1344928675765 51.04483095585883
Z" stroke="#33eb00" stroke-width="1.9775845220705845"></path><path fill="none" opacity="1" transform="translate(0, 0) rotate(157, 550, 55) scale(1.172701772279563)" d="M542.905304477521 58.5473477612395
L557.094695522479 58.5473477612395
L553.5473477612395 51.4526522387605
L539.3579567162815 51.4526522387605
Z" stroke="#33eb00" stroke-width="1.7736738806197503"></path><path fill="none" opacity="1" transform="translate(0, 0) rotate(161, 605, 55) scale(1.1885957638252571)" d="M599.2730973122923 57.86345134385384
L610.7269026877077 57.86345134385384
L607.8634513438539 52.13654865614616
L596.4096459684384 52.13654865614616
Z" stroke="#33eb00" stroke-width="1.4317256719269178"></path><path fill="none" opacity="1" transform="translate(0, 0) rotate(165, 660, 55) scale(1.1977849784071695)" d="M655.7040892205107 57.14795538974463
L664.2959107794893 57.14795538974463
L662.1479553897447 52.85204461025537
L653.5561338307662 52.85204461025537
Z" stroke="#33eb00" stroke-width="1.0739776948723139"></path><path fill="none" opacity="1" transform="translate(0, 0) rotate(169, 715, 55) scale(1.1998248740527062)" d="M712.1745529689191 56.41272351554043
L717.8254470310809 56.41272351554043
L716.4127235155404 53.58727648445957
L710.7618294533787 53.58727648445957
Z" stroke="#33eb00" stroke-width="0.7063617577702154"></path><path fill="none" opacity="1" transform="translate(0, 0) rotate(173, 770, 55) scale(1.194616767764961)" d="M768.6581827449633 55.670908627518386
L771.3418172550367 55.670908627518386
L770.6709086275184 54.329091372481614
L767.9872741174448 54.329091372481614
Z" stroke="#33eb00" stroke-width="0.33545431375919166"></path><path fill="none" opacity="1" transform="translate(0, 0) rotate(177, 825, 55) scale(1.1824126094600014)" d="M825.1282245830448 54.9358877084776
L824.8717754169552 54.9358877084776
L824.9358877084776 55.0641122915224
L825.1923368745672 55.0641122915224
Z" stroke="#33eb00" stroke-width="-0.03205614576119892"></path><path fill="none" opacity="1" transform="translate(0, 0) rotate(181, 880, 55) scale(1.1638027935135788)" d="M881.5596193386622 54.22019033066891
L878.4403806613378 54.22019033066891
L879.2201903306689 55.77980966933109
L882.3394290079933 55.77980966933109
Z" stroke="#33eb00" stroke-width="-0.3899048346655442"></path><path fill="none" opacity="1" transform="translate(0, 0) rotate(185, 0, 110) scale(0.921747334544636)" d="M4.41735550755836 107.79132224622082
L-4.41735550755836 107.79132224622082
L-2.20867775377918 112.20867775377918
L6.626033261337541 112.20867775377918
Z" stroke="#33eb00" stroke-width="-1.10433887688959"></path><path fill="none" opacity="1" transform="translate(0, 0) rotate(189, 55, 110) scale(0.9418553647660914)" d="M58.121037599877965 108.43948120006102
L51.878962400122035 108.43948120006102
L53.43948120006102 111.56051879993898
L59.68155639981695 111.56051879993898
Z" stroke="#33eb00" stroke-width="-0.7802593999694911"></path><path fill="none" opacity="1" transform="translate(0, 0) rotate(193, 110, 110) scale(0.9671950531498201)" d="M111.77485421653071 109.11257289173464
L108.22514578346929 109.11257289173464
L109.11257289173464 110.88742710826536
L112.66228132479608 110.88742710826536
Z" stroke="#33eb00" stroke-width="-0.4437135541326799"></path><path fill="none" opacity="1" transform="translate(0, 0) rotate(197, 165, 110) scale(0.9965405544444561)" d="M165.35516095609725 109.82241952195137
L164.64483904390275 109.82241952195137
L164.82241952195136 110.17758047804863
L165.5327414341459 110.17758047804863
Z" stroke="#33eb00" stroke-width="-0.08879023902431502"></path><path fill="none" opacity="1" transform="translate(0, 0) rotate(201, 220, 110) scale(1.0284722362193934)" d="M218.84578132698113 110.57710933650944
L221.15421867301887 110.57710933650944
L220.57710933650944 109.42289066349056
L218.2686719904717 109.42289066349056
Z" stroke="#33eb00" stroke-width="0.2885546682547196"></path><path fill="none" opacity="1" transform="translate(0, 0) rotate(205, 275, 110) scale(1.061445355702773)" d="M272.2392608500746 111.38036957496273
L277.7607391499254 111.38036957496273
L276.38036957496274 108.61963042503727
L270.85889127511183 108.61963042503727
Z" stroke="#33eb00" stroke-width="0.6901847874813636"></path><path fill="none" opacity="1" transform="translate(0, 0) rotate(209, 330, 110) scale(1.0938647890189834)" d="M325.5374871723443 112.23125641382785
L334.4625128276557 112.23125641382785
L332.23125641382785 107.76874358617215
L323.30623075851645 107.76874358617215
Z" stroke="#33eb00" stroke-width="1.115628206913924"></path><path fill="none" opacity="1" transform="translate(0, 0) rotate(213, 385, 110) scale(1.124162197687266)" d="M378.7516336391028 113.12418318044858
L391.2483663608972 113.12418318044858
L388.1241831804486 106.87581681955142
L375.62745045865427 106.87581681955142
Z" stroke="#33eb00" stroke-width="1.5620915902242922"></path><path fill="none" opacity="1" transform="translate(0, 0) rotate(217, 440, 110) scale(1.1508718993368552)" d="M431.90142736688387 114.04928631655805
L448.09857263311613 114.04928631655805
L444.04928631655804 105.95071368344195
L427.8521410503258 105.95071368344195
Z" stroke="#33eb00" stroke-width="2.0246431582790296"></path><path fill="none" opacity="1" transform="translate(0, 0) rotate(221, 495, 110) scale(1.172701772279563)" d="M485.1604114147264 114.91979429263681
L504.8395885852736 114.91979429263681
L499.9197942926368 105.08020570736319
L480.2406171220896 105.08020570736319
Z" stroke="#33eb00" stroke-width="2.459897146318403"></path><path fill="none" opacity="1" transform="translate(0, 0) rotate(225, 550, 110) scale(1.1885957638252571)" d="M541.4910018608213 114.25449906958936
L558.5089981391787 114.25449906958936
L554.2544990695893 105.74550093041064
L537.2365027912319 105.74550093041064
Z" stroke="#33eb00" stroke-width="2.1272495347946787"></path><path fill="none" opacity="1" transform="translate(0, 0) rotate(229, 605, 110) scale(1.1977849784071695)" d="M597.9004849660732 113.5497575169634
L612.0995150339268 113.5497575169634
L608.5497575169634 106.4502424830366
L594.3507274491099 106.4502424830366
Z" stroke="#33eb00" stroke-width="1.7748787584816996"></path><path fill="none" opacity="1" transform="translate(0, 0) rotate(233, 660, 110) scale(1.1998248740527062)" d="M654.3661740176758 112.8169129911621
L665.6338259823242 112.8169129911621
L662.8169129911621 107.1830870088379
L651.5492610265137 107.1830870088379
Z" stroke="#33eb00" stroke-width="1.4084564955810501"></path><path fill="none" opacity="1" transform="translate(0, 0) rotate(237, 715, 110) scale(1.194616767764961)" d="M710.8619941861602 112.0690029069199
L719.1380058138398 112.0690029069199
L717.0690029069199 107.9309970930801
L708.7929912792403 107.9309970930801
Z" stroke="#33eb00" stroke-width="1.0345014534599513"></path><path fill="none" opacity="1" transform="translate(0, 0) rotate(241, 770, 110) scale(1.1824126094600014)" d="M767.3606017774966 111.31969911125167
L772.6393982225034 111.31969911125167
L771.3196991112517 108.68030088874833
L766.040902666245 108.68030088874833
Z" stroke="#33eb00" stroke-width="0.6598495556258341"></path><path fill="none" opacity="1" transform="translate(0, 0) rotate(245, 825, 110) scale(1.1638027935135788)" d="M823.8355557362283 110.58222213188583
L826.1644442637717 110.58222213188583
L825.5822221318858 109.41777786811417
L823.2533336043425 109.41777786811417
Z" stroke="#33eb00" stroke-width="0.2911110659429146"></path><path fill="none" opacity="1" transform="translate(0, 0) rotate(249, 880, 110) scale(1.1396875975518919)" d="M880.2633952922641 109.86830235386792
L879.7366047077359 109.86830235386792
L879.8683023538679 110.13169764613208
L880.3950929383963 110.13169764613208
Z" stroke="#33eb00" stroke-width="-0.06584882306604399"></path><path fill="none" opacity="1" transform="translate(0, 0) rotate(253, 0, 165) scale(0.9418553647660914)" d="M2.966989424761207 163.5165052876194
L-2.966989424761207 163.5165052876194
L-1.4834947123806035 166.4834947123806
L4.45048413714181 166.4834947123806
Z" stroke="#33eb00" stroke-width="-0.7417473561903017"></path><path fill="none" opacity="1" transform="translate(0, 0) rotate(257, 55, 165) scale(0.9671950531498201)" d="M56.61666152740516 164.19166923629743
L53.38333847259484 164.19166923629743
L54.19166923629742 165.80833076370257
L57.424992291107735 165.80833076370257
Z" stroke="#33eb00" stroke-width="-0.4041653818512887"></path><path fill="none" opacity="1" transform="translate(0, 0) rotate(261, 110, 165) scale(0.9965405544444561)" d="M110.1921685693839 164.90391571530805
L109.8078314306161 164.90391571530805
L109.90391571530806 165.09608428469195
L110.28825285407584 165.09608428469195
Z" stroke="#33eb00" stroke-width="-0.04804214234597283"></path><path fill="none" opacity="1" transform="translate(0, 0) rotate(265, 165, 165) scale(1.0284722362193934)" d="M163.6775662516365 165.66121687418175
L166.3224337483635 165.66121687418175
L165.66121687418175 164.33878312581825
L163.0163493774548 164.33878312581825
Z" stroke="#33eb00" stroke-width="0.3306084370908711"></path><path fill="none" opacity="1" transform="translate(0, 0) rotate(269, 220, 165) scale(1.061445355702773)" d="M217.06565275041396 166.46717362479302
L222.93434724958604 166.46717362479302
L221.46717362479302 163.53282637520698
L215.59847912562094 163.53282637520698
Z" stroke="#33eb00" stroke-width="0.733586812396511"></path><path fill="none" opacity="1" transform="translate(0, 0) rotate(273, 275, 165) scale(1.0938647890189834)" d="M270.3585766082847 167.32071169585765
L279.6414233917153 167.32071169585765
L277.32071169585765 162.67928830414235
L268.0378649124271 162.67928830414235
Z" stroke="#33eb00" stroke-width="1.1603558479288214"></path><path fill="none" opacity="1" transform="translate(0, 0) rotate(277, 330, 165) scale(1.124162197687266)" d="M323.56776768519177 168.21611615740412
L336.43223231480823 168.21611615740412
L333.2161161574041 161.78388384259588
L320.3516515277877 161.78388384259588
Z" stroke="#33eb00" stroke-width="1.6080580787020577"></path><path fill="none" opacity="1" transform="translate(0, 0) rotate(281, 385, 165) scale(1.1508718993368552)" d="M376.7131928220501 169.14340358897496
L393.2868071779499 169.14340358897496
L389.14340358897493 160.85659641102504
L372.56978923307514 160.85659641102504
Z" stroke="#33eb00" stroke-width="2.071701794487476"></path><path fill="none" opacity="1" transform="translate(0, 0) rotate(285, 440, 165) scale(1.172701772279563)" d="M429.8219814845235 170.08900925773824
L450.1780185154765 170.08900925773824
L445.08900925773827 159.91099074226176
L424.73297222678525 159.91099074226176
Z" stroke="#33eb00" stroke-width="2.544504628869123"></path><path fill="none" opacity="1" transform="translate(0, 0) rotate(289, 495, 165) scale(1.1885957638252571)" d="M483.7089064093502 170.6455467953249
L506.2910935906498 170.6455467953249
L500.6455467953249 159.3544532046751
L478.06335961402533 159.3544532046751
Z" stroke="#33eb00" stroke-width="2.8227733976624405"></path><path fill="none" opacity="1" transform="translate(0, 0) rotate(293, 550, 165) scale(1.1977849784071695)" d="M540.0968807116357 169.95155964418217
L559.9031192883643 169.95155964418217
L554.9515596441822 160.04844035581783
L535.1453210674534 160.04844035581783
Z" stroke="#33eb00" stroke-width="2.4757798220910847"></path><path fill="none" opacity="1" transform="translate(0, 0) rotate(297, 605, 165) scale(1.1998248740527062)" d="M596.5577950664325 169.22110246678378
L613.4422049335675 169.22110246678378
L609.2211024667838 160.77889753321622
L592.3366925996487 160.77889753321622
Z" stroke="#33eb00" stroke-width="2.110551233391886"></path><path fill="none" opacity="1" transform="translate(0, 0) rotate(301, 660, 165) scale(1.194616767764961)" d="M653.0658056273571 168.4670971863214
L666.9341943726429 168.4670971863214
L663.4670971863214 161.5329028136786
L649.5987084410357 161.5329028136786
Z" stroke="#33eb00" stroke-width="1.7335485931607109"></path><path fill="none" opacity="1" transform="translate(0, 0) rotate(305, 715, 165) scale(1.1824126094600014)" d="M709.5929789719486 167.70351051402574
L720.4070210280514 167.70351051402574
L717.7035105140258 162.29648948597426
L706.8894684579228 162.29648948597426
Z" stroke="#33eb00" stroke-width="1.3517552570128653"></path><path fill="none" opacity="1" transform="translate(0, 0) rotate(309, 770, 165) scale(1.1638027935135788)" d="M766.1114921337945 166.94425393310274
L773.8885078662055 166.94425393310274
L771.9442539331028 163.05574606689726
L764.1672382006917 163.05574606689726
Z" stroke="#33eb00" stroke-width="0.9721269665513733"></path><path fill="none" opacity="1" transform="translate(0, 0) rotate(313, 825, 165) scale(1.1396875975518919)" d="M822.5957771013304 166.2021114493348
L827.4042228986696 166.2021114493348
L826.2021114493348 163.7978885506652
L821.3936656519955 163.7978885506652
Z" stroke="#33eb00" stroke-width="0.6010557246673999"></path><path fill="none" opacity="1" transform="translate(0, 0) rotate(317, 880, 165) scale(1.11123363017753)" d="M879.0244674103197 165.48776629484013
L880.9755325896803 165.48776629484013
L880.4877662948402 164.51223370515987
L878.5367011154796 164.51223370515987
Z" stroke="#33eb00" stroke-width="0.24388314742006592"></path><path fill="none" opacity="1" transform="translate(0, 0) rotate(321, 0, 220) scale(0.9671950531498201)" d="M1.45846883827959 219.2707655808602
L-1.45846883827959 219.2707655808602
L-0.729234419139795 220.7292344191398
L2.1877032574193853 220.7292344191398
Z" stroke="#33eb00" stroke-width="-0.3646172095698975"></path><path fill="none" opacity="1" transform="translate(0, 0) rotate(325, 55, 220) scale(0.9965405544444561)" d="M55.029176182670525 219.98541190866473
L54.970823817329475 219.98541190866473
L54.98541190866474 220.01458809133527
L55.04376427400579 220.01458809133527
Z" stroke="#33eb00" stroke-width="-0.007294045667631388"></path><path fill="none" opacity="1" transform="translate(0, 0) rotate(329, 110, 220) scale(1.0284722362193934)" d="M108.5093511762919 220.74532441185406
L111.4906488237081 220.74532441185406
L110.74532441185404 219.25467558814594
L107.76402676443786 219.25467558814594
Z" stroke="#33eb00" stroke-width="0.3726622059270231"></path><path fill="none" opacity="1" transform="translate(0, 0) rotate(333, 165, 220) scale(1.061445355702773)" d="M161.89204465075338 221.55397767462333
L168.10795534924662 221.55397767462333
L166.55397767462333 218.44602232537667
L160.33806697613005 218.44602232537667
Z" stroke="#33eb00" stroke-width="0.7769888373116585"></path><path fill="none" opacity="1" transform="translate(0, 0) rotate(337, 220, 220) scale(1.0938647890189834)" d="M215.17966604422512 222.41016697788743
L224.82033395577488 222.41016697788743
L222.41016697788743 217.58983302211257
L212.7694990663377 217.58983302211257
Z" stroke="#33eb00" stroke-width="1.2050834889437196"></path><path fill="none" opacity="1" transform="translate(0, 0) rotate(341, 275, 220) scale(1.124162197687266)" d="M268.38390173128073 223.30804913435963
L281.61609826871927 223.30804913435963
L278.30804913435963 216.69195086564037
L265.07585259692104 216.69195086564037
Z" stroke="#33eb00" stroke-width="1.6540245671798237"></path><path fill="none" opacity="1" transform="translate(0, 0) rotate(345, 330, 220) scale(1.1508718993368552)" d="M321.52495827721634 224.23752086139183
L338.47504172278366 224.23752086139183
L334.23752086139183 215.76247913860817
L317.28743741582446 215.76247913860817
Z" stroke="#33eb00" stroke-width="2.1187604306959216"></path><path fill="none" opacity="1" transform="translate(0, 0) rotate(349, 385, 220) scale(1.172701772279563)" d="M374.63017648480286 225.18491175759857
L395.36982351519714 225.18491175759857
L390.18491175759857 214.81508824240143
L369.4452647272043 214.81508824240143
Z" stroke="#33eb00" stroke-width="2.5924558787992864"></path><path fill="none" opacity="1" transform="translate(0, 0) rotate(353, 440, 220) scale(1.1885957638252571)" d="M427.7321030394626 226.1339484802687
L452.2678969605374 226.1339484802687
L446.1339484802687 213.8660515197313
L421.59815455919386 213.8660515197313
Z" stroke="#33eb00" stroke-width="3.0669742401343547"></path><path fill="none" opacity="1" transform="translate(0, 0) rotate(357, 495, 220) scale(1.1977849784071695)" d="M482.2932764571981 226.35336177140096
L507.7067235428019 226.35336177140096
L501.35336177140096 213.64663822859904
L475.9399146857972 213.64663822859904
Z" stroke="#33eb00" stroke-width="3.1766808857004705"></path><path fill="none" opacity="1" transform="translate(0, 0) rotate(1, 550, 220) scale(1.1998248740527062)" d="M538.7494161151891 225.62529194240545
L561.2505838848109 225.62529194240545
L555.6252919424054 214.37470805759455
L533.1241241727837 214.37470805759455
Z" stroke="#33eb00" stroke-width="2.8126459712027216"></path><path fill="none" opacity="1" transform="translate(0, 0) rotate(5, 605, 220) scale(1.194616767764961)" d="M595.2696170685541 224.86519146572294
L614.7303829314459 224.86519146572294
L609.8651914657229 215.13480853427706
L590.4044256028312 215.13480853427706
Z" stroke="#33eb00" stroke-width="2.4325957328614694"></path><path fill="none" opacity="1" transform="translate(0, 0) rotate(9, 660, 220) scale(1.1824126094600014)" d="M651.8253561664004 224.0873219167998
L668.1746438335996 224.0873219167998
L664.0873219167999 215.9126780832002
L647.7380342496006 215.9126780832002
Z" stroke="#33eb00" stroke-width="2.043660958399898"></path><path fill="none" opacity="1" transform="translate(0, 0) rotate(13, 715, 220) scale(1.1638027935135788)" d="M708.3874285313607 223.30628573431966
L721.6125714686393 223.30628573431966
L718.3062857343197 216.69371426568034
L705.081142797041 216.69371426568034
Z" stroke="#33eb00" stroke-width="1.6531428671598323"></path><path fill="none" opacity="1" transform="translate(0, 0) rotate(17, 770, 220) scale(1.1396875975518919)" d="M764.9281589103966 222.53592054480168
L775.0718410896034 222.53592054480168
L772.5359205448017 217.46407945519832
L762.392238365595 217.46407945519832
Z" stroke="#33eb00" stroke-width="1.267960272400844"></path><path fill="none" opacity="1" transform="translate(0, 0) rotate(21, 825, 220) scale(1.11123363017753)" d="M821.4234502082317 221.7882748958842
L828.5765497917683 221.7882748958842
L826.7882748958842 218.2117251041158
L819.6351753123474 218.2117251041158
Z" stroke="#33eb00" stroke-width="0.8941374479420967"></path><path fill="none" opacity="1" transform="translate(0, 0) rotate(25, 880, 220) scale(1.0798173945368692)" d="M877.8545357696679 221.07273211516602
L882.1454642303321 221.07273211516602
L881.072732115166 218.92726788483398
L876.7818036545019 218.92726788483398
Z" stroke="#33eb00" stroke-width="0.5363660575830103"></path><path fill="none" opacity="1" transform="translate(0, 0) rotate(29, 0, 275) scale(0.9965405544444561)" d="M-0.1338162040428372 275.06690810202144
L0.1338162040428372 275.06690810202144
L0.0669081020214186 274.93309189797856
L-0.2007243060642558 274.93309189797856
Z" stroke="#33eb00" stroke-width="0.0334540510107093"></path><path fill="none" opacity="1" transform="translate(0, 0) rotate(33, 55, 275) scale(1.0284722362193934)" d="M53.341136100947296 275.82943194952634
L56.658863899052704 275.82943194952634
L55.82943194952635 274.17056805047366
L52.51170415142095 274.17056805047366
Z" stroke="#33eb00" stroke-width="0.41471597476317545"></path><path fill="none" opacity="1" transform="translate(0, 0) rotate(37, 110, 275) scale(1.061445355702773)" d="M106.71843655109278 276.64078172445363
L113.28156344890722 276.64078172445363
L111.64078172445362 273.35921827554637
L105.07765482663916 273.35921827554637
Z" stroke="#33eb00" stroke-width="0.8203908622268054"></path><path fill="none" opacity="1" transform="translate(0, 0) rotate(41, 165, 275) scale(1.0938647890189834)" d="M160.00075548016554 277.49962225991726
L169.99924451983446 277.49962225991726
L167.49962225991723 272.50037774008274
L157.5011332202483 272.50037774008274
Z" stroke="#33eb00" stroke-width="1.2498111299586179"></path><path fill="none" opacity="1" transform="translate(0, 0) rotate(45, 220, 275) scale(1.124162197687266)" d="M213.20003577736964 278.3999821113152
L226.79996422263036 278.3999821113152
L223.39998211131518 271.6000178886848
L209.80005366605445 271.6000178886848
Z" stroke="#33eb00" stroke-width="1.6999910556575895"></path><path fill="none" opacity="1" transform="translate(0, 0) rotate(49, 275, 275) scale(1.1508718993368552)" d="M266.33672373238255 279.3316381338087
L283.66327626761745 279.3316381338087
L279.3316381338087 270.6683618661913
L262.00508559857377 270.6683618661913
Z" stroke="#33eb00" stroke-width="2.1658190669043673"></path><path fill="none" opacity="1" transform="translate(0, 0) rotate(53, 330, 275) scale(1.172701772279563)" d="M319.4383714850822 280.28081425745887
L340.5616285149178 280.28081425745887
L335.28081425745887 269.71918574254113
L314.15755722762333 269.71918574254113
Z" stroke="#33eb00" stroke-width="2.6404071287294495"></path><path fill="none" opacity="1" transform="translate(0, 0) rotate(57, 385, 275) scale(1.1885957638252571)" d="M372.53769844697587 281.2311507765121
L397.46230155302413 281.2311507765121
L391.2311507765121 268.7688492234879
L366.3065476704638 268.7688492234879
Z" stroke="#33eb00" stroke-width="3.1155753882560373"></path><path fill="none" opacity="1" transform="translate(0, 0) rotate(61, 440, 275) scale(1.1977849784071695)" d="M425.67023477773307 282.16488261113346
L454.32976522226693 282.16488261113346
L447.16488261113346 267.83511738886654
L418.5053521665996 267.83511738886654
Z" stroke="#33eb00" stroke-width="3.582441305566732"></path><path fill="none" opacity="1" transform="translate(0, 0) rotate(65, 495, 275) scale(1.1998248740527062)" d="M480.9410371639458 282.0294814180271
L509.0589628360542 282.0294814180271
L502.0294814180271 267.9705185819729
L473.91155574591863 267.9705185819729
Z" stroke="#33eb00" stroke-width="3.5147407090135574"></path><path fill="none" opacity="1" transform="translate(0, 0) rotate(69, 550, 275) scale(1.194616767764961)" d="M537.4734285097511 281.26328574512445
L562.5265714902489 281.26328574512445
L556.2632857451244 268.73671425487555
L531.2101427646267 268.73671425487555
Z" stroke="#33eb00" stroke-width="3.131642872562229"></path><path fill="none" opacity="1" transform="translate(0, 0) rotate(73, 605, 275) scale(1.1824126094600014)" d="M594.0577333608522 280.4711333195739
L615.9422666391478 280.4711333195739
L610.4711333195738 269.5288666804261
L588.5866000412784 269.5288666804261
Z" stroke="#33eb00" stroke-width="2.735566659786931"></path><path fill="none" opacity="1" transform="translate(0, 0) rotate(77, 660, 275) scale(1.1638027935135788)" d="M650.6633649289269 279.6683175355366
L669.3366350710731 279.6683175355366
L664.6683175355366 270.3316824644634
L645.9950473933902 270.3316824644634
Z" stroke="#33eb00" stroke-width="2.33415876776829"></path><path fill="none" opacity="1" transform="translate(0, 0) rotate(81, 715, 275) scale(1.1396875975518919)" d="M707.2605407194628 278.8697296402686
L722.7394592805372 278.8697296402686
L718.8697296402686 271.1302703597314
L703.3908110791942 271.1302703597314
Z" stroke="#33eb00" stroke-width="1.9348648201342884"></path><path fill="none" opacity="1" transform="translate(0, 0) rotate(85, 770, 275) scale(1.11123363017753)" d="M763.8224330061435 278.0887834969283
L776.1775669938565 278.0887834969283
L773.0887834969283 271.9112165030717
L760.7336495092152 271.9112165030717
Z" stroke="#33eb00" stroke-width="1.5443917484641274"></path><path fill="none" opacity="1" transform="translate(0, 0) rotate(89, 825, 275) scale(1.0798173945368692)" d="M820.3270532115171 277.33647339424147
L829.6729467884829 277.33647339424147
L827.3364733942415 272.66352660575853
L817.9905798172756 272.66352660575853
Z" stroke="#33eb00" stroke-width="1.1682366971207263"></path><path fill="none" opacity="1" transform="translate(0, 0) rotate(93, 880, 275) scale(1.046958697925591)" d="M876.7587506590237 276.62062467048816
L883.2412493409763 276.62062467048816
L881.6206246704882 273.37937532951184
L875.1381259885355 273.37937532951184
Z" stroke="#33eb00" stroke-width="0.8103123352440756"></path><path fill="none" opacity="1" transform="translate(0, 0) rotate(97, 0, 330) scale(1.0284722362193934)" d="M-1.8270789743973095 330.91353948719865
L1.8270789743973095 330.91353948719865
L0.9135394871986547 329.08646051280135
L-2.740618461595964 329.08646051280135
Z" stroke="#33eb00" stroke-width="0.45676974359932737"></path><path fill="none" opacity="1" transform="translate(0, 0) rotate(101, 55, 330) scale(1.061445355702773)" d="M51.54482845143219 331.7275857742839
L58.45517154856781 331.7275857742839
L56.72758577428391 328.2724142257161
L49.81724267714828 328.2724142257161
Z" stroke="#33eb00" stroke-width="0.8637928871419532"></path><path fill="none" opacity="1" transform="translate(0, 0) rotate(105, 110, 330) scale(1.0938647890189834)" d="M104.82184491610595 332.589077541947
L115.17815508389405 332.589077541947
L112.58907754194703 327.410922458053
L102.23276737415891 327.410922458053
Z" stroke="#33eb00" stroke-width="1.2945387709735152"></path><path fill="none" opacity="1" transform="translate(0, 0) rotate(109, 165, 330) scale(1.124162197687266)" d="M158.01616982345857 333.49191508827073
L171.98383017654143 333.49191508827073
L168.4919150882707 326.50808491172927
L154.52425473518787 326.50808491172927
Z" stroke="#33eb00" stroke-width="1.745957544135355"></path><path fill="none" opacity="1" transform="translate(0, 0) rotate(113, 220, 330) scale(1.1508718993368552)" d="M211.14848918754876 334.4257554062256
L228.85151081245124 334.4257554062256
L224.42575540622562 325.5742445937744
L206.72273378132311 325.5742445937744
Z" stroke="#33eb00" stroke-width="2.212877703112813"></path><path fill="none" opacity="1" transform="translate(0, 0) rotate(117, 275, 330) scale(1.172701772279563)" d="M264.24656648536154 335.37671675731923
L285.75343351463846 335.37671675731923
L280.37671675731923 324.62328324268077
L258.8698497280423 324.62328324268077
Z" stroke="#33eb00" stroke-width="2.6883583786596126"></path><path fill="none" opacity="1" transform="translate(0, 0) rotate(121, 330, 330) scale(1.1885957638252571)" d="M317.3432938544891 336.3283530727554
L342.6567061455109 336.3283530727554
L336.3283530727554 323.6716469272446
L311.0149407817337 323.6716469272446
Z" stroke="#33eb00" stroke-width="3.16417653637772"></path><path fill="none" opacity="1" transform="translate(0, 0) rotate(125, 385, 330) scale(1.1977849784071695)" d="M370.47432721378163 337.2628363931092
L399.52567278621837 337.2628363931092
L392.2628363931092 322.7371636068908
L363.2114908206725 322.7371636068908
Z" stroke="#33eb00" stroke-width="3.631418196554586"></path><path fill="none" opacity="1" transform="translate(0, 0) rotate(129, 440, 330) scale(1.1998248740527062)" d="M423.67545713912835 338.1622714304358
L456.32454286087165 338.1622714304358
L448.1622714304358 321.8377285695642
L415.51318570869256 321.8377285695642
Z" stroke="#33eb00" stroke-width="4.081135715217905"></path><path fill="none" opacity="1" transform="translate(0, 0) rotate(133, 495, 330) scale(1.194616767764961)" d="M479.67723995094804 337.66138002452595
L510.32276004905196 337.66138002452595
L502.66138002452595 322.33861997547405
L472.0158599264221 322.33861997547405
Z" stroke="#33eb00" stroke-width="3.8306900122629886"></path><path fill="none" opacity="1" transform="translate(0, 0) rotate(137, 550, 330) scale(1.1824126094600014)" d="M536.4768529596615 336.76157352016924
L563.5231470403385 336.76157352016924
L556.7615735201692 323.23842647983076
L529.7152794394923 323.23842647983076
Z" stroke="#33eb00" stroke-width="3.380786760084618"></path><path fill="none" opacity="1" transform="translate(0, 0) rotate(141, 605, 330) scale(1.1638027935135788)" d="M593.4105594090006 335.7947202954997
L616.5894405909994 335.7947202954997
L610.7947202954997 324.2052797045003
L587.6158391135009 324.2052797045003
Z" stroke="#33eb00" stroke-width="2.897360147749859"></path><path fill="none" opacity="1" transform="translate(0, 0) rotate(145, 660, 330) scale(1.1396875975518919)" d="M650.3359140857095 334.83204295714523
L669.6640859142905 334.83204295714523
L664.8320429571453 325.16795704285477
L645.5038711285642 325.16795704285477
Z" stroke="#33eb00" stroke-width="2.4160214785726293"></path><path fill="none" opacity="1" transform="translate(0, 0) rotate(149, 715, 330) scale(1.11123363017753)" d="M707.2203278995789 333.88983605021053
L722.7796721004211 333.88983605021053
L718.8898360502105 326.11016394978947
L703.3304918493684 326.11016394978947
Z" stroke="#33eb00" stroke-width="1.9449180251052673"></path><path fill="none" opacity="1" transform="translate(0, 0) rotate(153, 770, 330) scale(1.0798173945368692)" d="M764.0369527312172 332.9815236343914
L775.9630472687828 332.9815236343914
L772.9815236343915 327.0184763656086
L761.0554290968257 327.0184763656086
Z" stroke="#33eb00" stroke-width="1.4907618171957089"></path><path fill="none" opacity="1" transform="translate(0, 0) rotate(157, 825, 330) scale(1.046958697925591)" d="M820.7665025103832 332.1167487448084
L829.2334974896168 332.1167487448084
L827.1167487448083 327.8832512551916
L818.6497537655749 327.8832512551916
Z" stroke="#33eb00" stroke-width="1.0583743724041759"></path><path fill="none" opacity="1" transform="translate(0, 0) rotate(161, 880, 330) scale(1.0142471288420645)" d="M877.3985012890305 331.30074935548475
L882.6014987109695 331.30074935548475
L881.3007493554848 328.69925064451525
L876.0977519335456 328.69925064451525
Z" stroke="#33eb00" stroke-width="0.6503746777423872"></path><path fill="none" opacity="1" transform="translate(0, 0) rotate(165, 0, 385) scale(1.061445355702773)" d="M-3.1626100799367416 386.58130503996836
L3.1626100799367416 386.58130503996836
L1.5813050399683708 383.41869496003164
L-4.743915119905113 383.41869496003164
Z" stroke="#33eb00" stroke-width="0.7906525199841854"></path><path fill="none" opacity="1" transform="translate(0, 0) rotate(169, 55, 385) scale(1.0938647890189834)" d="M50.39352238155061 387.3032388092247
L59.60647761844939 387.3032388092247
L57.303238809224695 382.6967611907753
L48.090283572325916 382.6967611907753
Z" stroke="#33eb00" stroke-width="1.1516194046123476"></path><path fill="none" opacity="1" transform="translate(0, 0) rotate(173, 110, 385) scale(1.124162197687266)" d="M103.88134508702296 388.0593274564885
L116.11865491297704 388.0593274564885
L113.05932745648852 381.9406725435115
L100.82201763053446 381.9406725435115
Z" stroke="#33eb00" stroke-width="1.5296637282442573"></path><path fill="none" opacity="1" transform="translate(0, 0) rotate(177, 165, 385) scale(1.1508718993368552)" d="M157.3184816217425 388.84075918912873
L172.6815183782575 388.84075918912873
L168.84075918912873 381.15924081087127
L153.47772243261377 381.15924081087127
Z" stroke="#33eb00" stroke-width="1.9203795945643711"></path><path fill="none" opacity="1" transform="translate(0, 0) rotate(181, 220, 385) scale(1.172701772279563)" d="M210.72840427541888 389.63579786229053
L229.27159572458112 389.63579786229053
L224.63579786229056 380.36420213770947
L206.09260641312832 380.36420213770947
Z" stroke="#33eb00" stroke-width="2.3178989311452787"></path><path fill="none" opacity="1" transform="translate(0, 0) rotate(185, 275, 385) scale(1.1885957638252571)" d="M264.13879400942676 390.4306029952866
L285.86120599057324 390.4306029952866
L280.4306029952866 379.5693970047134
L258.70819101414014 379.5693970047134
Z" stroke="#33eb00" stroke-width="2.7153014976433134"></path><path fill="none" opacity="1" transform="translate(0, 0) rotate(189, 330, 385) scale(1.1977849784071695)" d="M317.5795569107138 391.2102215446431
L342.4204430892862 391.2102215446431
L336.2102215446431 378.7897784553569
L311.36933536607063 378.7897784553569
Z" stroke="#33eb00" stroke-width="3.1051107723215585"></path><path fill="none" opacity="1" transform="translate(0, 0) rotate(193, 385, 385) scale(1.1998248740527062)" d="M371.0806242650651 391.95968786746744
L398.9193757349349 391.95968786746744
L391.95968786746744 378.04031213253256
L364.1209363975977 378.04031213253256
Z" stroke="#33eb00" stroke-width="3.479843933733715"></path><path fill="none" opacity="1" transform="translate(0, 0) rotate(197, 440, 385) scale(1.194616767764961)" d="M424.7662334547071 392.6168832726465
L455.2337665452929 392.6168832726465
L447.6168832726465 377.3831167273535
L417.14935018206063 377.3831167273535
Z" stroke="#33eb00" stroke-width="3.8084416363232276"></path><path fill="none" opacity="1" transform="translate(0, 0) rotate(201, 495, 385) scale(1.1824126094600014)" d="M481.670246246504 391.664876876748
L508.329753753496 391.664876876748
L501.664876876748 378.335123123252
L475.00536936975607 378.335123123252
Z" stroke="#33eb00" stroke-width="3.332438438373992"></path><path fill="none" opacity="1" transform="translate(0, 0) rotate(205, 550, 385) scale(1.1638027935135788)" d="M538.6009089077063 390.69954554614685
L561.3990910922937 390.69954554614685
L555.6995455461469 379.30045445385315
L532.9013633615594 379.30045445385315
Z" stroke="#33eb00" stroke-width="2.8497727730734193"></path><path fill="none" opacity="1" transform="translate(0, 0) rotate(209, 605, 385) scale(1.1396875975518919)" d="M595.522319346192 389.738840326904
L614.477680653808 389.738840326904
L609.738840326904 380.261159673096
L590.7834790192879 380.261159673096
Z" stroke="#33eb00" stroke-width="2.369420163452001"></path><path fill="none" opacity="1" transform="translate(0, 0) rotate(213, 660, 385) scale(1.11123363017753)" d="M652.4020792801635 388.7989603599182
L667.5979207198365 388.7989603599182
L663.7989603599183 381.2010396400818
L648.6031189202453 381.2010396400818
Z" stroke="#33eb00" stroke-width="1.8994801799591248"></path><path fill="none" opacity="1" transform="translate(0, 0) rotate(217, 715, 385) scale(1.0798173945368692)" d="M709.2135657286162 387.8932171356919
L720.7864342713838 387.8932171356919
L717.8932171356919 382.1067828643081
L706.3203485929243 382.1067828643081
Z" stroke="#33eb00" stroke-width="1.4466085678459404"></path><path fill="none" opacity="1" transform="translate(0, 0) rotate(221, 770, 385) scale(1.046958697925591)" d="M765.9377411982663 387.03112940086686
L774.0622588017337 387.03112940086686
L772.0311294008669 382.96887059913314
L763.9066117973994 382.96887059913314
Z" stroke="#33eb00" stroke-width="1.01556470043344"></path><path fill="none" opacity="1" transform="translate(0, 0) rotate(225, 825, 385) scale(1.0142471288420645)" d="M822.564389731312 386.217805134344
L827.435610268688 386.217805134344
L826.217805134344 383.782194865656
L821.346584596968 383.782194865656
Z" stroke="#33eb00" stroke-width="0.6089025671720093"></path><path fill="none" opacity="1" transform="translate(0, 0) rotate(229, 880, 385) scale(0.9832651582708778)" d="M879.09270377588 385.45364811206
L880.90729622412 385.45364811206
L880.45364811206 384.54635188794
L878.6390556638199 384.54635188794
Z" stroke="#33eb00" stroke-width="0.22682405603001077"></path><path fill="none" opacity="1" transform="translate(0, 0) rotate(233, 0, 440) scale(1.0938647890189834)" d="M-2.046114922674669 441.0230574613373
L2.046114922674669 441.0230574613373
L1.0230574613373344 438.9769425386627
L-3.0691723840120035 438.9769425386627
Z" stroke="#33eb00" stroke-width="0.5115287306686672"></path><path fill="none" opacity="1" transform="translate(0, 0) rotate(237, 55, 440) scale(1.124162197687266)" d="M51.512623636120374 441.74368818193983
L58.487376363879626 441.74368818193983
L56.74368818193982 438.25631181806017
L49.76893545418056 438.25631181806017
Z" stroke="#33eb00" stroke-width="0.8718440909699073"></path><path fill="none" opacity="1" transform="translate(0, 0) rotate(241, 110, 440) scale(1.1508718993368552)" d="M105.01227843123681 442.4938607843816
L114.98772156876319 442.4938607843816
L112.4938607843816 437.5061392156184
L102.51841764685521 437.5061392156184
Z" stroke="#33eb00" stroke-width="1.246930392190798"></path><path fill="none" opacity="1" transform="translate(0, 0) rotate(245, 165, 440) scale(1.172701772279563)" d="M158.47329733821348 443.2633513308933
L171.52670266178652 443.2633513308933
L168.26335133089324 436.7366486691067
L155.20994600732024 436.7366486691067
Z" stroke="#33eb00" stroke-width="1.6316756654466271"></path><path fill="none" opacity="1" transform="translate(0, 0) rotate(249, 220, 440) scale(1.1885957638252571)" d="M211.9208894608978 444.0395552695511
L228.0791105391022 444.0395552695511
L224.0395552695511 435.9604447304489
L207.8813341913467 435.9604447304489
Z" stroke="#33eb00" stroke-width="2.0197776347755516"></path><path fill="none" opacity="1" transform="translate(0, 0) rotate(253, 275, 440) scale(1.1977849784071695)" d="M265.3831611651513 444.8084194174244
L284.6168388348487 444.8084194174244
L279.8084194174244 435.1915805825756
L260.574741747727 435.1915805825756
Z" stroke="#33eb00" stroke-width="2.404209708712173"></path><path fill="none" opacity="1" transform="translate(0, 0) rotate(257, 330, 440) scale(1.1998248740527062)" d="M318.8890032163085 445.55549839184573
L341.1109967836915 445.55549839184573
L335.55549839184573 434.44450160815427
L313.33350482446275 434.44450160815427
Z" stroke="#33eb00" stroke-width="2.7777491959228793"></path><path fill="none" opacity="1" transform="translate(0, 0) rotate(261, 385, 440) scale(1.194616767764961)" d="M372.4658676692391 446.2670661653804
L397.5341323307609 446.2670661653804
L391.2670661653804 433.7329338346196
L366.1988015038587 433.7329338346196
Z" stroke="#33eb00" stroke-width="3.1335330826902204"></path><path fill="none" opacity="1" transform="translate(0, 0) rotate(265, 440, 440) scale(1.1824126094600014)" d="M426.86363953334654 446.56818023332676
L453.13636046665346 446.56818023332676
L446.56818023332676 433.43181976667324
L420.2954593000198 433.43181976667324
Z" stroke="#33eb00" stroke-width="3.284090116663366"></path><path fill="none" opacity="1" transform="translate(0, 0) rotate(269, 495, 440) scale(1.1638027935135788)" d="M483.79125840641206 445.60437079679394
L506.20874159358794 445.60437079679394
L500.60437079679394 434.39562920320606
L478.1868876096181 434.39562920320606
Z" stroke="#33eb00" stroke-width="2.80218539839698"></path><path fill="none" opacity="1" transform="translate(0, 0) rotate(273, 550, 440) scale(1.1396875975518919)" d="M540.7087246066745 444.64563769666273
L559.2912753933255 444.64563769666273
L554.6456376966628 435.35436230333727
L536.0630869100117 435.35436230333727
Z" stroke="#33eb00" stroke-width="2.3228188483313734"></path><path fill="none" opacity="1" transform="translate(0, 0) rotate(277, 605, 440) scale(1.11123363017753)" d="M597.583830660748 443.708084669626
L612.416169339252 443.708084669626
L608.7080846696259 436.291915330374
L593.8757459911221 436.291915330374
Z" stroke="#33eb00" stroke-width="1.8540423348129826"></path><path fill="none" opacity="1" transform="translate(0, 0) rotate(281, 660, 440) scale(1.0798173945368692)" d="M654.3901787260153 442.80491063699236
L665.6098212739847 442.80491063699236
L662.8049106369923 437.19508936300764
L651.585268089023 437.19508936300764
Z" stroke="#33eb00" stroke-width="1.4024553184961701"></path><path fill="none" opacity="1" transform="translate(0, 0) rotate(285, 715, 440) scale(1.046958697925591)" d="M711.1089798861492 441.9455100569254
L718.8910201138508 441.9455100569254
L716.9455100569254 438.0544899430746
L709.1634698292238 438.0544899430746
Z" stroke="#33eb00" stroke-width="0.9727550284627045"></path><path fill="none" opacity="1" transform="translate(0, 0) rotate(289, 770, 440) scale(1.0142471288420645)" d="M767.7302781735934 441.1348609132033
L772.2697218264066 441.1348609132033
L771.1348609132033 438.8651390867967
L766.5954172603903 438.8651390867967
Z" stroke="#33eb00" stroke-width="0.5674304566016307"></path><path fill="none" opacity="1" transform="translate(0, 0) rotate(293, 825, 440) scale(0.9832651582708778)" d="M824.2535248625923 440.37323756870387
L825.7464751374077 440.37323756870387
L825.3732375687039 439.62676243129613
L823.8802872938884 439.62676243129613
Z" stroke="#33eb00" stroke-width="0.18661878435192852"></path><path fill="none" opacity="1" transform="translate(0, 0) rotate(297, 880, 440) scale(0.9555115852867281)" d="M880.6874707680053 439.6562646159974
L879.3125292319947 439.6562646159974
L879.6562646159973 440.3437353840026
L881.0312061520079 440.3437353840026
Z" stroke="#33eb00" stroke-width="-0.1718676920013183"></path><path fill="none" opacity="1" transform="translate(0, 0) rotate(301, 0, 495) scale(1.124162197687266)" d="M-0.8560978147822292 495.4280489073911
L0.8560978147822292 495.4280489073911
L0.4280489073911146 494.5719510926089
L-1.2841467221733438 494.5719510926089
Z" stroke="#33eb00" stroke-width="0.2140244536955573"></path><path fill="none" opacity="1" transform="translate(0, 0) rotate(305, 55, 495) scale(1.1508718993368552)" d="M52.7060752407311 496.14696237963443
L57.2939247592689 496.14696237963443
L56.14696237963445 493.85303762036557
L51.55911286109665 493.85303762036557
Z" stroke="#33eb00" stroke-width="0.5734811898172247"></path><path fill="none" opacity="1" transform="translate(0, 0) rotate(309, 110, 495) scale(1.172701772279563)" d="M106.2181904010081 496.89090479949596
L113.7818095989919 496.89090479949596
L111.89090479949596 493.10909520050404
L104.32728560151214 493.10909520050404
Z" stroke="#33eb00" stroke-width="0.9454523997479748"></path><path fill="none" opacity="1" transform="translate(0, 0) rotate(313, 165, 495) scale(1.1885957638252571)" d="M159.70298491236883 497.6485075438156
L170.29701508763117 497.6485075438156
L167.64850754381558 492.3514924561844
L157.05447736855325 492.3514924561844
Z" stroke="#33eb00" stroke-width="1.3242537719077905"></path><path fill="none" opacity="1" transform="translate(0, 0) rotate(317, 220, 495) scale(1.1977849784071695)" d="M213.18676541958885 498.4066172902056
L226.81323458041115 498.4066172902056
L223.4066172902056 491.5933827097944
L209.78014812938326 491.5933827097944
Z" stroke="#33eb00" stroke-width="1.7033086451027875"></path><path fill="none" opacity="1" transform="translate(0, 0) rotate(321, 275, 495) scale(1.1998248740527062)" d="M266.69738216755184 499.1513089162241
L283.30261783244816 499.1513089162241
L279.1513089162241 490.8486910837759
L262.54607325132775 490.8486910837759
Z" stroke="#33eb00" stroke-width="2.075654458112044"></path><path fill="none" opacity="1" transform="translate(0, 0) rotate(325, 330, 495) scale(1.194616767764961)" d="M320.2620562280422 499.8689718859789
L339.7379437719578 499.8689718859789
L334.8689718859789 490.1310281140211
L315.3930843420632 490.1310281140211
Z" stroke="#33eb00" stroke-width="2.4344859429894607"></path><path fill="none" opacity="1" transform="translate(0, 0) rotate(329, 385, 495) scale(1.1824126094600014)" d="M373.9052047964602 500.5473976017699
L396.0947952035398 500.5473976017699
L390.5473976017699 489.4526023982301
L368.3578071946903 489.4526023982301
Z" stroke="#33eb00" stroke-width="2.773698800884949"></path><path fill="none" opacity="1" transform="translate(0, 0) rotate(333, 440, 495) scale(1.1638027935135788)" d="M428.9816079051178 500.5091960474411
L451.0183920948822 500.5091960474411
L445.5091960474411 489.4908039525589
L423.4724118576768 489.4908039525589
Z" stroke="#33eb00" stroke-width="2.7545980237205407"></path><path fill="none" opacity="1" transform="translate(0, 0) rotate(337, 495, 495) scale(1.1396875975518919)" d="M485.89512986715704 499.5524350664215
L504.10487013284296 499.5524350664215
L499.5524350664215 490.4475649335785
L481.3426948007355 490.4475649335785
Z" stroke="#33eb00" stroke-width="2.276217533210746"></path><path fill="none" opacity="1" transform="translate(0, 0) rotate(341, 550, 495) scale(1.11123363017753)" d="M542.7655820413327 498.61720897933367
L557.2344179586673 498.61720897933367
L553.6172089793337 491.38279102066633
L539.148373061999 491.38279102066633
Z" stroke="#33eb00" stroke-width="1.8086044896668398"></path><path fill="none" opacity="1" transform="translate(0, 0) rotate(345, 605, 495) scale(1.0798173945368692)" d="M599.5667917234144 497.7166041382928
L610.4332082765856 497.7166041382928
L607.7166041382928 492.2833958617072
L596.8501875851216 492.2833958617072
Z" stroke="#33eb00" stroke-width="1.3583020691464014"></path><path fill="none" opacity="1" transform="translate(0, 0) rotate(349, 660, 495) scale(1.046958697925591)" d="M656.2802185740321 496.85989071298394
L663.7197814259679 496.85989071298394
L661.8598907129839 493.14010928701606
L654.4203278610482 493.14010928701606
Z" stroke="#33eb00" stroke-width="0.9299453564919685"></path><path fill="none" opacity="1" transform="translate(0, 0) rotate(353, 715, 495) scale(1.0142471288420645)" d="M712.896166615875 496.0519166920625
L717.103833384125 496.0519166920625
L716.0519166920625 493.9480833079375
L711.8442499238125 493.9480833079375
Z" stroke="#33eb00" stroke-width="0.5259583460312528"></path><path fill="none" opacity="1" transform="translate(0, 0) rotate(357, 770, 495) scale(0.9832651582708778)" d="M769.4143459493046 495.2928270253477
L770.5856540506954 495.2928270253477
L770.2928270253477 494.7071729746523
L769.121518923957 494.7071729746523
Z" stroke="#33eb00" stroke-width="0.14641351267384592"></path><path fill="none" opacity="1" transform="translate(0, 0) rotate(1, 825, 495) scale(0.9555115852867281)" d="M825.8437525300707 494.57812373496466
L824.1562474699293 494.57812373496466
L824.5781237349647 495.42187626503534
L826.265628795106 495.42187626503534
Z" stroke="#33eb00" stroke-width="-0.21093813251765456"></path><path fill="none" opacity="1" transform="translate(0, 0) rotate(5, 880, 495) scale(0.9323290304118518)" d="M882.2018783194411 493.89906084027945
L877.7981216805589 493.89906084027945
L878.8990608402794 496.10093915972055
L883.3028174791617 496.10093915972055
Z" stroke="#33eb00" stroke-width="-0.550469579860281"></path><path fill="none" opacity="1" transform="translate(0, 0) rotate(9, 0, 550) scale(1.1508718993368552)" d="M0.39987205022539524 549.8000639748873
L-0.39987205022539524 549.8000639748873
L-0.19993602511269762 550.1999360251127
L0.5998080753380929 550.1999360251127
Z" stroke="#33eb00" stroke-width="-0.09996801255634881"></path><path fill="none" opacity="1" transform="translate(0, 0) rotate(13, 55, 550) scale(1.172701772279563)" d="M53.96308346380271 550.5184582680987
L56.03691653619729 550.5184582680987
L55.51845826809865 549.4815417319013
L53.44462519570406 549.4815417319013
Z" stroke="#33eb00" stroke-width="0.25922913404932263"></path><path fill="none" opacity="1" transform="translate(0, 0) rotate(17, 110, 550) scale(1.1885957638252571)" d="M107.48508036383988 551.2574598180801
L112.51491963616012 551.2574598180801
L111.25745981808005 548.7425401819199
L106.22762054575983 548.7425401819199
Z" stroke="#33eb00" stroke-width="0.6287299090400287"></path><path fill="none" opacity="1" transform="translate(0, 0) rotate(21, 165, 550) scale(1.1977849784071695)" d="M160.9903696740264 552.0048151629868
L169.0096303259736 552.0048151629868
L167.0048151629868 547.9951848370132
L158.9855545110396 547.9951848370132
Z" stroke="#33eb00" stroke-width="1.0024075814934017"></path><path fill="none" opacity="1" transform="translate(0, 0) rotate(25, 220, 550) scale(1.1998248740527062)" d="M214.50576111879516 552.7471194406024
L225.49423888120484 552.7471194406024
L222.7471194406024 547.2528805593976
L211.75864167819276 547.2528805593976
Z" stroke="#33eb00" stroke-width="1.3735597203012082"></path><path fill="none" opacity="1" transform="translate(0, 0) rotate(29, 275, 550) scale(1.194616767764961)" d="M268.0582447868452 553.4708776065773
L281.9417552131548 553.4708776065773
L278.4708776065774 546.5291223934227
L264.5873671802678 546.5291223934227
Z" stroke="#33eb00" stroke-width="1.7354388032887014"></path><path fill="none" opacity="1" transform="translate(0, 0) rotate(33, 330, 550) scale(1.1824126094600014)" d="M321.67282760200834 554.1635861989959
L338.32717239799166 554.1635861989959
L334.16358619899586 545.8364138010041
L317.5092414030125 545.8364138010041
Z" stroke="#33eb00" stroke-width="2.081793099497917"></path><path fill="none" opacity="1" transform="translate(0, 0) rotate(37, 385, 550) scale(1.1638027935135788)" d="M375.3704748648621 554.8147625675689
L394.6295251351379 554.8147625675689
L389.81476256756895 545.1852374324311
L370.55571229729316 545.1852374324311
Z" stroke="#33eb00" stroke-width="2.4073812837844697"></path><path fill="none" opacity="1" transform="translate(0, 0) rotate(41, 440, 550) scale(1.1396875975518919)" d="M431.08153512763954 554.4592324361803
L448.91846487236046 554.4592324361803
L444.45923243618023 545.5407675638197
L426.6223026914593 545.5407675638197
Z" stroke="#33eb00" stroke-width="2.2296162180901185"></path><path fill="none" opacity="1" transform="translate(0, 0) rotate(45, 495, 550) scale(1.11123363017753)" d="M487.9473334219172 553.5263332890414
L502.0526665780828 553.5263332890414
L498.5263332890414 546.4736667109586
L484.4210001328758 546.4736667109586
Z" stroke="#33eb00" stroke-width="1.7631666445206962"></path><path fill="none" opacity="1" transform="translate(0, 0) rotate(49, 550, 550) scale(1.0798173945368692)" d="M544.7434047208135 552.6282976395933
L555.2565952791865 552.6282976395933
L552.6282976395933 547.3717023604067
L542.1151070812202 547.3717023604067
Z" stroke="#33eb00" stroke-width="1.3141488197966325"></path><path fill="none" opacity="1" transform="translate(0, 0) rotate(53, 605, 550) scale(1.046958697925591)" d="M601.451457261915 551.7742713690425
L608.548542738085 551.7742713690425
L606.7742713690425 548.2257286309575
L599.6771858928726 548.2257286309575
Z" stroke="#33eb00" stroke-width="0.8871356845212327"></path><path fill="none" opacity="1" transform="translate(0, 0) rotate(57, 660, 550) scale(1.0142471288420645)" d="M658.0620550581565 550.9689724709217
L661.9379449418435 550.9689724709217
L660.9689724709217 549.0310275290783
L657.0930825872348 549.0310275290783
Z" stroke="#33eb00" stroke-width="0.48448623546087444"></path><path fill="none" opacity="1" transform="translate(0, 0) rotate(61, 715, 550) scale(0.9832651582708778)" d="M714.575167036017 550.2124164819916
L715.424832963983 550.2124164819916
L715.2124164819916 549.7875835180084
L714.3627505540254 549.7875835180084
Z" stroke="#33eb00" stroke-width="0.10620824099576369"></path><path fill="none" opacity="1" transform="translate(0, 0) rotate(65, 770, 550) scale(0.9555115852867281)" d="M771.000034292136 549.499982853932
L768.999965707864 549.499982853932
L769.499982853932 550.500017146068
L771.500051438204 550.500017146068
Z" stroke="#33eb00" stroke-width="-0.2500085730339908"></path><path fill="none" opacity="1" transform="translate(0, 0) rotate(69, 825, 550) scale(0.9323290304118518)" d="M827.3543683843875 548.8228158078063
L822.6456316156125 548.8228158078063
L823.8228158078063 551.1771841921937
L828.5315525765814 551.1771841921937
Z" stroke="#33eb00" stroke-width="-0.5885920960968883"></path><path fill="none" opacity="1" transform="translate(0, 0) rotate(73, 880, 550) scale(0.9148389843440644)" d="M883.6629365983443 548.1685317008279
L876.3370634016557 548.1685317008279
L878.1685317008279 551.8314682991721
L885.4944048975165 551.8314682991721
Z" stroke="#33eb00" stroke-width="-0.915734149586075"></path><path fill="none" opacity="1" transform="translate(0, 0) rotate(77, 0, 605) scale(1.172701772279563)" d="M1.7079765265973184 604.1460117367013
L-1.7079765265973184 604.1460117367013
L-0.8539882632986592 605.8539882632987
L2.5619647898959776 605.8539882632987
Z" stroke="#33eb00" stroke-width="-0.4269941316493296"></path><path fill="none" opacity="1" transform="translate(0, 0) rotate(81, 55, 605) scale(1.1885957638252571)" d="M55.26717581531093 604.8664120923445
L54.73282418468907 604.8664120923445
L54.86641209234453 605.1335879076555
L55.400763722966396 605.1335879076555
Z" stroke="#33eb00" stroke-width="-0.06679395382773258"></path><path fill="none" opacity="1" transform="translate(0, 0) rotate(85, 110, 605) scale(1.1977849784071695)" d="M108.79397392846393 605.6030130357681
L111.20602607153607 605.6030130357681
L110.60301303576803 604.3969869642319
L108.1909608926959 604.3969869642319
Z" stroke="#33eb00" stroke-width="0.30150651788401667"></path><path fill="none" opacity="1" transform="translate(0, 0) rotate(89, 165, 605) scale(1.1998248740527062)" d="M162.31414007003852 606.3429299649807
L167.68585992996148 606.3429299649807
L166.34292996498075 603.6570700350193
L160.97121010505776 603.6570700350193
Z" stroke="#33eb00" stroke-width="0.6714649824903731"></path><path fill="none" opacity="1" transform="translate(0, 0) rotate(93, 220, 605) scale(1.194616767764961)" d="M215.85443334564823 607.0727833271759
L224.14556665435177 607.0727833271759
L222.07278332717587 602.9272166728241
L213.78165001847236 602.9272166728241
Z" stroke="#33eb00" stroke-width="1.0363916635879418"></path><path fill="none" opacity="1" transform="translate(0, 0) rotate(97, 275, 605) scale(1.1824126094600014)" d="M269.44045040755645 607.7797747962218
L280.55954959244355 607.7797747962218
L277.7797747962218 602.2202252037782
L266.6606756113347 602.2202252037782
Z" stroke="#33eb00" stroke-width="1.3898873981108841"></path><path fill="none" opacity="1" transform="translate(0, 0) rotate(101, 330, 605) scale(1.1638027935135788)" d="M323.09453846729593 608.452730766352
L336.90546153270407 608.452730766352
L333.45273076635203 601.547269233648
L319.64180770094396 601.547269233648
Z" stroke="#33eb00" stroke-width="1.7263653831760106"></path><path fill="none" opacity="1" transform="translate(0, 0) rotate(105, 385, 605) scale(1.1396875975518919)" d="M376.8339156946868 609.0830421526566
L393.1660843053132 609.0830421526566
L389.08304215265656 600.9169578473434
L372.75087354203026 600.9169578473434
Z" stroke="#33eb00" stroke-width="2.0415210763282903"></path><path fill="none" opacity="1" transform="translate(0, 0) rotate(109, 440, 605) scale(1.11123363017753)" d="M433.1290848025018 608.435457598749
L446.8709151974982 608.435457598749
L443.4354575987491 601.564542401251
L429.69362720375267 601.564542401251
Z" stroke="#33eb00" stroke-width="1.7177287993745538"></path><path fill="none" opacity="1" transform="translate(0, 0) rotate(113, 495, 605) scale(1.0798173945368692)" d="M489.92001771821253 607.5399911408937
L500.07998228178747 607.5399911408937
L497.53999114089373 602.4600088591063
L487.3800265773188 602.4600088591063
Z" stroke="#33eb00" stroke-width="1.2699955704468635"></path><path fill="none" opacity="1" transform="translate(0, 0) rotate(117, 550, 605) scale(1.046958697925591)" d="M546.622695949798 606.688652025101
L553.377304050202 606.688652025101
L551.688652025101 603.311347974899
L544.934043924697 603.311347974899
Z" stroke="#33eb00" stroke-width="0.8443260125504972"></path><path fill="none" opacity="1" transform="translate(0, 0) rotate(121, 605, 605) scale(1.0142471288420645)" d="M603.2279435004381 605.886028249781
L606.7720564995619 605.886028249781
L605.886028249781 604.113971750219
L602.341915250657 604.113971750219
Z" stroke="#33eb00" stroke-width="0.4430141248904949"></path><path fill="none" opacity="1" transform="translate(0, 0) rotate(125, 660, 605) scale(0.9832651582708778)" d="M659.7359881227293 605.1320059386354
L660.2640118772707 605.1320059386354
L660.1320059386354 604.8679940613646
L659.6039821840939 604.8679940613646
Z" stroke="#33eb00" stroke-width="0.0660029693176811"></path><path fill="none" opacity="1" transform="translate(0, 0) rotate(129, 715, 605) scale(0.9555115852867281)" d="M716.1563160542013 604.4218419728993
L713.8436839457987 604.4218419728993
L714.4218419728993 605.5781580271007
L716.734474081302 605.5781580271007
Z" stroke="#33eb00" stroke-width="-0.2890790135503271"></path><path fill="none" opacity="1" transform="translate(0, 0) rotate(133, 770, 605) scale(0.9323290304118518)" d="M772.506858449334 603.746570775333
L767.493141550666 603.746570775333
L768.746570775333 606.253429224667
L773.760287674001 606.253429224667
Z" stroke="#33eb00" stroke-width="-0.6267146123334957"></path><path fill="none" opacity="1" transform="translate(0, 0) rotate(137, 825, 605) scale(0.9148389843440644)" d="M828.8125660227081 603.093716988646
L821.1874339772919 603.093716988646
L823.093716988646 606.906283011354
L830.7188490340621 606.906283011354
Z" stroke="#33eb00" stroke-width="-0.9531415056770168"></path><path fill="none" opacity="1" transform="translate(0, 0) rotate(141, 880, 605) scale(0.9038875541701499)" d="M885.1034678468066 602.4482660765967
L874.8965321531934 602.4482660765967
L877.4482660765967 607.5517339234033
L887.6552017702098 607.5517339234033
Z" stroke="#33eb00" stroke-width="-1.2758669617016472"></path><path fill="none" opacity="1" transform="translate(0, 0) rotate(145, 0, 660) scale(1.1885957638252571)" d="M3.0492712667819775 658.475364366609
L-3.0492712667819775 658.475364366609
L-1.5246356333909887 661.524635633391
L4.573906900172966 661.524635633391
Z" stroke="#33eb00" stroke-width="-0.7623178166954944"></path><path fill="none" opacity="1" transform="translate(0, 0) rotate(149, 55, 660) scale(1.1977849784071695)" d="M56.59757818290147 659.2012109085492
L53.40242181709853 659.2012109085492
L54.201210908549264 660.7987890914508
L57.396367274352215 660.7987890914508
Z" stroke="#33eb00" stroke-width="-0.39939454572536875"></path><path fill="none" opacity="1" transform="translate(0, 0) rotate(153, 110, 660) scale(1.1998248740527062)" d="M110.12251902128185 659.938740489359
L109.87748097871815 659.938740489359
L109.93874048935908 660.061259510641
L110.18377853192277 660.061259510641
Z" stroke="#33eb00" stroke-width="-0.030629755320462203"></path><path fill="none" opacity="1" transform="translate(0, 0) rotate(157, 165, 660) scale(1.194616767764961)" d="M163.65062190445127 660.6746890477743
L166.34937809554873 660.6746890477743
L165.67468904777436 659.3253109522257
L162.9759328566769 659.3253109522257
Z" stroke="#33eb00" stroke-width="0.3373445238871831"></path><path fill="none" opacity="1" transform="translate(0, 0) rotate(161, 220, 660) scale(1.1824126094600014)" d="M217.2080732131046 661.3959633934477
L222.7919267868954 661.3959633934477
L221.39596339344772 658.6040366065523
L215.81210981965688 658.6040366065523
Z" stroke="#33eb00" stroke-width="0.697981696723852"></path><path fill="none" opacity="1" transform="translate(0, 0) rotate(165, 275, 660) scale(1.1638027935135788)" d="M270.81860206972976 662.0906989651351
L279.18139793027024 662.0906989651351
L277.0906989651351 657.9093010348649
L268.7279031045947 657.9093010348649
Z" stroke="#33eb00" stroke-width="1.0453494825675522"></path><path fill="none" opacity="1" transform="translate(0, 0) rotate(169, 330, 660) scale(1.1396875975518919)" d="M324.50153388562063 662.7492330571897
L335.49846611437937 662.7492330571897
L332.7492330571897 657.2507669428103
L321.7523008284309 657.2507669428103
Z" stroke="#33eb00" stroke-width="1.3746165285948462"></path><path fill="none" opacity="1" transform="translate(0, 0) rotate(173, 385, 660) scale(1.11123363017753)" d="M378.31083618308634 663.3445819084568
L391.68916381691366 663.3445819084568
L388.3445819084568 656.6554180915432
L374.96625427462953 656.6554180915432
Z" stroke="#33eb00" stroke-width="1.6722909542284112"></path><path fill="none" opacity="1" transform="translate(0, 0) rotate(177, 440, 660) scale(1.0798173945368692)" d="M435.09663071561164 662.4516846421942
L444.90336928438836 662.4516846421942
L442.4516846421942 657.5483153578058
L432.64494607341743 657.5483153578058
Z" stroke="#33eb00" stroke-width="1.225842321097095"></path><path fill="none" opacity="1" transform="translate(0, 0) rotate(181, 495, 660) scale(1.046958697925591)" d="M491.79393463768093 661.6030326811596
L498.20606536231907 661.6030326811596
L496.6030326811595 658.3969673188404
L490.19090195652143 658.3969673188404
Z" stroke="#33eb00" stroke-width="0.8015163405797613"></path><path fill="none" opacity="1" transform="translate(0, 0) rotate(185, 550, 660) scale(1.0142471288420645)" d="M548.3938319427195 660.8030840286402
L551.6061680572805 660.8030840286402
L550.8030840286402 659.1969159713598
L547.5907479140793 659.1969159713598
Z" stroke="#33eb00" stroke-width="0.4015420143201169"></path><path fill="none" opacity="1" transform="translate(0, 0) rotate(189, 605, 660) scale(0.9832651582708778)" d="M604.8968092094416 660.0515953952792
L605.1031907905584 660.0515953952792
L605.0515953952792 659.9484046047208
L604.8452138141624 659.9484046047208
Z" stroke="#33eb00" stroke-width="0.025797697639598494"></path><path fill="none" opacity="1" transform="translate(0, 0) rotate(193, 660, 660) scale(0.9555115852867281)" d="M661.3125978162667 659.3437010918667
L658.6874021837333 659.3437010918667
L659.3437010918667 660.6562989081333
L661.9688967244 660.6562989081333
Z" stroke="#33eb00" stroke-width="-0.32814945406666335"></path><path fill="none" opacity="1" transform="translate(0, 0) rotate(197, 715, 660) scale(0.9323290304118518)" d="M717.6593485142804 658.6703257428597
L712.3406514857196 658.6703257428597
L713.6703257428597 661.3296742571403
L718.9890227714207 661.3296742571403
Z" stroke="#33eb00" stroke-width="-0.6648371285701024"></path><path fill="none" opacity="1" transform="translate(0, 0) rotate(201, 770, 660) scale(0.9148389843440644)" d="M773.9621954470718 658.0189022764641
L766.0378045529282 658.0189022764641
L768.0189022764641 661.9810977235359
L775.9432931706077 661.9810977235359
Z" stroke="#33eb00" stroke-width="-0.9905488617679578"></path><path fill="none" opacity="1" transform="translate(0, 0) rotate(205, 825, 660) scale(0.9038875541701499)" d="M830.2513060748823 657.3743469625588
L819.7486939251177 657.3743469625588
L822.3743469625588 662.6256530374412
L832.8769591123236 662.6256530374412
Z" stroke="#33eb00" stroke-width="-1.312826518720586"></path><path fill="none" opacity="1" transform="translate(0, 0) rotate(209, 880, 660) scale(0.9000045316725115)" d="M886.5595468576674 656.7202265711662
L873.4404531423326 656.7202265711662
L876.7202265711662 663.2797734288338
L889.8393202865012 663.2797734288338
Z" stroke="#33eb00" stroke-width="-1.6398867144168607"></path>
</g>
</svg>